<svg xmlns="http://www.w3.org/2000/svg" width="26" height="20" fill="none" viewBox="0 0 26 20">
    <path fill="#E4BB6B" d="M25.263.209v6.588a21.13 21.13 0 0 1-.262 3.404l.052.036h-.058c-.048.292-.103.58-.165.865l-.004.02-.006.02a15.455 15.455 0 0 1-1.665 3.954l-.008.012c-.816 1.343-1.858 2.616-3.117 3.823l-.598.573-4.805-3.426.778-.834c.898-.962 1.592-1.853 2.095-2.674.506-.825.845-1.6 1.034-2.327l.002-.006H14.89V.209h10.373ZM11.2.209v6.588c0 1.193-.086 2.328-.262 3.404l.052.036h-.058c-.049.292-.104.58-.165.865l-.005.02-.005.02a15.45 15.45 0 0 1-1.666 3.954l-.007.012c-.816 1.343-1.859 2.616-3.117 3.823l-.598.573-4.805-3.426.778-.834c.898-.962 1.592-1.853 2.095-2.674.506-.825.845-1.6 1.034-2.327l.002-.006H.827V.209H11.2Z"/>
</svg>
