<svg xmlns="http://www.w3.org/2000/svg" width="24" height="24" viewBox="0 0 24 24">
    <path fill="#0B1E3A" d="M11.522 6.635c0 .262.214.474.478.474a.476.476 0 0 0 .478-.474V3.474A.476.476 0 0 0 12 3a.476.476 0 0 0-.478.474v3.161Zm0 13.891c0 .262.214.474.478.474a.476.476 0 0 0 .478-.474v-1.58A.476.476 0 0 0 12 18.47a.476.476 0 0 0-.478.474v1.581Zm-5.57-8.052A.476.476 0 0 0 6.43 12a.476.476 0 0 0-.477-.474H3.478A.476.476 0 0 0 3 12c0 .262.214.474.478.474h2.475Zm14.57 0A.476.476 0 0 0 21 12a.476.476 0 0 0-.478-.474h-.38a.476.476 0 0 0-.477.474c0 .262.214.474.477.474h.38ZM8.742 7.309a.48.48 0 0 0 .652.176.472.472 0 0 0 .177-.646L8.154 4.38a.48.48 0 0 0-.652-.176.472.472 0 0 0-.177.646L8.742 7.31Zm7.105 12.31a.48.48 0 0 0 .652.176.472.472 0 0 0 .177-.646l-.63-1.09a.48.48 0 0 0-.651-.176.472.472 0 0 0-.177.646l.63 1.09Zm-9.049-4.067a.472.472 0 0 0 .173-.647.48.48 0 0 0-.653-.171l-1.939 1.12a.472.472 0 0 0-.172.647.48.48 0 0 0 .653.171l1.938-1.12Zm12.82-7.404a.472.472 0 0 0 .177-.647.48.48 0 0 0-.652-.174l-.125.07a.472.472 0 0 0-.176.648.48.48 0 0 0 .652.174l.124-.07ZM6.621 9.441a.48.48 0 0 0 .653-.172.472.472 0 0 0-.173-.647L4.86 7.328a.48.48 0 0 0-.653.171.472.472 0 0 0 .172.648L6.621 9.44Zm12.52 7.23a.48.48 0 0 0 .652-.17.472.472 0 0 0-.172-.648l-.849-.49a.48.48 0 0 0-.653.17.472.472 0 0 0 .172.648l.85.49Zm-9.907 1.075a.472.472 0 0 0-.177-.646.48.48 0 0 0-.651.176l-1.081 1.873a.472.472 0 0 0 .177.646.48.48 0 0 0 .652-.176l1.08-1.873Z"/>
</svg>
