<svg width="20" height="20" viewBox="0 0 20 20" fill="#FFF" xmlns="http://www.w3.org/2000/svg">
<path fill-rule="evenodd" d="M12.2792 1C13.1401 1 13.9044 1.55086 14.1766 2.36754L14.7208 4H17C18.6569 4 20 5.34315 20 7V15C20 16.6569 18.6569 18 17 18H3C1.34315 18 0 16.6569 0 15V7C0 5.34315 1.34315 4 3 4H5.27924L5.82339 2.36754C6.09562 1.55086 6.8599 1 7.72076 1H12.2792ZM12.2792 3H7.72076L7.17661 4.63246C6.90438 5.44914 6.1401 6 5.27924 6H3C2.44772 6 2 6.44772 2 7V15C2 15.5523 2.44772 16 3 16H17C17.5523 16 18 15.5523 18 15V7C18 6.44772 17.5523 6 17 6H14.7208C13.8599 6 13.0956 5.44914 12.8234 4.63246L12.2792 3ZM7.5 10.5C7.5 9.1193 8.6193 8 10 8C11.3807 8 12.5 9.1193 12.5 10.5C12.5 11.8807 11.3807 13 10 13C8.6193 13 7.5 11.8807 7.5 10.5ZM10 6C7.51472 6 5.5 8.0147 5.5 10.5C5.5 12.9853 7.51472 15 10 15C12.4853 15 14.5 12.9853 14.5 10.5C14.5 8.0147 12.4853 6 10 6Z"/>
</svg>
