<svg xmlns="http://www.w3.org/2000/svg" width="12" height="12" viewBox="0 0 12 12">
    <path fill="#FF492D" fill-rule="evenodd" stroke="#FF492D" stroke-width=".5" d="M8.35961275,2.63157019 C8.27450118,2.54733226 8.15900824,2.5 8.0385753,2.5 C7.91814236,2.5 7.80264942,2.54733226 7.71753785,2.63157019 L4.63308268,5.67872721 C4.54787638,5.76287148 4.5,5.87705183 4.5,5.99611604 C4.5,6.11518025 4.54787638,6.2293606 4.63308268,6.31350486 L7.71753785,9.36066189 C7.83121189,9.47873877 8.000727,9.52656236 8.16031315,9.48557764 C8.3198993,9.44459291 8.44443926,9.32125044 8.48561287,9.16340577 C8.52678648,9.0055611 8.47811343,8.83805738 8.35847834,8.72588424 L5.59506061,5.99611604 L8.35847834,3.26634784 C8.44383519,3.18235249 8.49191574,3.06825574 8.49212852,2.94919147 C8.4923413,2.8301272 8.44466885,2.71586319 8.35961275,2.63157019 Z" transform="rotate(-90 6.5 6)"/>
</svg>
