<svg width="80" height="16" viewBox="0 0 80 16" fill="none" xmlns="http://www.w3.org/2000/svg">
<path d="M26.18 3.27698C27.177 3.27698 28.009 3.58798 28.674 4.20998C29.35 4.83198 29.688 5.60498 29.688 6.52898C29.688 7.44298 29.35 8.21598 28.674 8.84698C28.009 9.46898 27.177 9.77998 26.179 9.77998H24.017V13.173H22.277V3.27698H26.18ZM26.18 8.25298C26.693 8.25298 27.117 8.09298 27.45 7.77298C27.782 7.44298 27.948 7.02798 27.948 6.52898C27.948 6.02898 27.782 5.61898 27.45 5.29898C27.117 4.96898 26.693 4.80398 26.18 4.80398H24.017V8.25398H26.179L26.18 8.25298ZM31.845 10.29C31.966 10.826 32.244 11.24 32.677 11.533C33.111 11.816 33.64 11.957 34.265 11.957C35.132 11.957 35.782 11.665 36.215 11.081L37.562 11.816C36.816 12.843 35.712 13.356 34.25 13.356C33.02 13.356 32.027 13.008 31.27 12.311C30.515 11.604 30.137 10.713 30.137 9.63898C30.137 8.58298 30.51 7.70198 31.256 6.99498C32.002 6.27898 32.959 5.92098 34.129 5.92098C35.238 5.92098 36.145 6.28398 36.851 7.00898C37.567 7.73498 37.925 8.61598 37.925 9.65298C37.925 9.81298 37.905 10.025 37.865 10.289H31.845V10.29ZM31.83 9.04498H36.276C36.166 8.46998 35.908 8.03698 35.505 7.74498C35.112 7.45198 34.648 7.30598 34.114 7.30598C33.509 7.30598 33.004 7.46198 32.602 7.77298C32.198 8.08298 31.942 8.50798 31.83 9.04498ZM45.72 11.731H46.734V15.067H45.13V13.173H39.943V15.067H38.341V11.731H39.263C39.727 11.118 39.959 10.265 39.959 9.17198V6.10498H45.72V11.731ZM41.063 11.731H44.117V7.50398H41.562V9.17198C41.562 10.181 41.396 11.034 41.063 11.731ZM51.334 13.357C50.194 13.357 49.242 12.999 48.475 12.282C47.719 11.566 47.341 10.685 47.341 9.63898C47.341 8.58298 47.719 7.70198 48.475 6.99498C49.242 6.27898 50.195 5.92098 51.334 5.92098C52.07 5.92098 52.74 6.08598 53.344 6.41598C53.95 6.74598 54.404 7.18798 54.706 7.74398L53.3 8.50798C53.1277 8.16764 52.8522 7.89045 52.513 7.71598C52.1485 7.51256 51.7363 7.41004 51.319 7.41898C50.653 7.41898 50.094 7.63098 49.639 8.05598C49.196 8.47998 48.975 9.00698 48.975 9.63898C48.975 10.27 49.196 10.798 49.64 11.222C50.094 11.646 50.653 11.858 51.318 11.858C51.7354 11.8646 52.1473 11.7622 52.513 11.561C52.8565 11.3824 53.1404 11.1075 53.33 10.77L54.736 11.519C54.4086 12.0892 53.9263 12.5548 53.345 12.862C52.7276 13.1951 52.0355 13.3654 51.334 13.357ZM61.62 6.10498V7.57498H59.155V13.173H57.522V7.57498H55.042V6.10498H61.62ZM68.418 6.10498H70.051V13.173H68.418V12.155C67.803 12.956 66.921 13.357 65.771 13.357C64.733 13.357 63.846 12.999 63.11 12.282C62.374 11.557 62.006 10.675 62.006 9.63898C62.006 8.59298 62.374 7.71198 63.11 6.99498C63.846 6.27898 64.733 5.92098 65.772 5.92098C66.921 5.92098 67.802 6.31698 68.418 7.10798V6.10498ZM64.32 11.265C64.773 11.689 65.343 11.901 66.029 11.901C66.714 11.901 67.284 11.689 67.737 11.265C68.191 10.831 68.417 10.289 68.417 9.63898C68.417 8.98898 68.191 8.45098 67.737 8.02698C67.284 7.59398 66.714 7.37698 66.029 7.37698C65.343 7.37698 64.773 7.59398 64.319 8.02698C63.866 8.45098 63.639 8.98898 63.639 9.63898C63.639 10.289 63.867 10.831 64.32 11.265ZM76.234 5.91998C77.273 5.91998 78.16 6.28398 78.896 7.00998C79.632 7.72498 80 8.60098 80 9.63798C80 10.684 79.632 11.565 78.896 12.281C78.16 12.998 77.273 13.356 76.234 13.356C75.085 13.356 74.203 12.96 73.588 12.168V16H71.955V6.10498H73.588V7.12198C74.203 6.32198 75.085 5.92098 76.235 5.92098L76.234 5.91998ZM74.269 11.265C74.722 11.689 75.292 11.901 75.977 11.901C76.663 11.901 77.233 11.689 77.687 11.265C78.14 10.831 78.367 10.289 78.367 9.63898C78.367 8.98898 78.14 8.45098 77.687 8.02698C77.233 7.59398 76.663 7.37698 75.977 7.37698C75.292 7.37698 74.722 7.59398 74.268 8.02698C73.815 8.45098 73.588 8.98898 73.588 9.63898C73.588 10.289 73.816 10.831 74.269 11.265Z" fill="#D9D9D9"/>
<path d="M8 16C12.4183 16 16 12.4183 16 8C16 3.58172 12.4183 0 8 0C3.58172 0 0 3.58172 0 8C0 12.4183 3.58172 16 8 16Z" fill="#D92C04"/>
</svg>
