<svg xmlns="http://www.w3.org/2000/svg" width="80" height="16" fill="none" viewBox="0 0 80 16">
    <path fill="#181818" d="M26.18 3.277c.997 0 1.829.311 2.494.933.676.622 1.014 1.395 1.014 2.319 0 .914-.338 1.687-1.014 2.318-.665.622-1.497.933-2.495.933h-2.162v3.393h-1.74V3.277h3.902Zm0 4.976c.513 0 .937-.16 1.27-.48.332-.33.498-.745.498-1.244 0-.5-.166-.91-.498-1.23-.333-.33-.757-.495-1.27-.495h-2.163v3.45h2.162ZM31.845 10.29c.121.536.399.95.832 1.243.434.283.963.424 1.588.424.867 0 1.517-.292 1.95-.876l1.347.735c-.746 1.027-1.85 1.54-3.312 1.54-1.23 0-2.223-.348-2.98-1.045-.755-.707-1.133-1.598-1.133-2.672 0-1.056.373-1.937 1.119-2.644.746-.716 1.703-1.074 2.873-1.074 1.109 0 2.016.363 2.722 1.088.716.726 1.074 1.607 1.074 2.644 0 .16-.02.372-.06.636h-6.02Zm-.015-1.245h4.446c-.11-.575-.368-1.008-.771-1.3-.393-.293-.857-.439-1.391-.439-.605 0-1.11.156-1.512.467-.404.31-.66.735-.772 1.272ZM45.72 11.731h1.014v3.336H45.13v-1.894h-5.187v1.894h-1.602v-3.336h.922c.464-.613.696-1.466.696-2.559V6.105h5.761v5.626Zm-4.657 0h3.054V7.504h-2.555v1.668c0 1.009-.167 1.862-.5 2.559ZM51.334 13.357c-1.14 0-2.092-.358-2.859-1.075-.756-.716-1.134-1.597-1.134-2.643 0-1.056.378-1.937 1.134-2.644.767-.716 1.72-1.074 2.859-1.074.736 0 1.406.165 2.01.495.606.33 1.06.772 1.362 1.328l-1.406.764a1.81 1.81 0 0 0-.787-.792 2.347 2.347 0 0 0-1.194-.297c-.666 0-1.225.212-1.68.637-.443.424-.664.951-.664 1.583 0 .631.221 1.159.665 1.583.454.424 1.013.636 1.678.636a2.4 2.4 0 0 0 1.195-.297 1.99 1.99 0 0 0 .817-.791l1.406.749a3.477 3.477 0 0 1-1.391 1.343 4.131 4.131 0 0 1-2.011.495ZM61.62 6.105v1.47h-2.465v5.598h-1.633V7.575h-2.48v-1.47h6.578ZM68.418 6.105h1.633v7.068h-1.633v-1.018c-.615.801-1.497 1.202-2.647 1.202-1.038 0-1.925-.358-2.661-1.075-.736-.725-1.104-1.607-1.104-2.643 0-1.046.368-1.927 1.104-2.644.736-.716 1.623-1.074 2.662-1.074 1.149 0 2.03.396 2.646 1.187V6.105Zm-4.098 5.16c.453.424 1.023.636 1.709.636.685 0 1.255-.212 1.708-.636.454-.434.68-.976.68-1.626 0-.65-.226-1.188-.68-1.612-.453-.433-1.023-.65-1.708-.65-.686 0-1.256.217-1.71.65-.453.424-.68.962-.68 1.612 0 .65.227 1.192.68 1.626ZM76.234 5.92c1.039 0 1.926.364 2.662 1.09C79.632 7.725 80 8.601 80 9.638c0 1.046-.368 1.927-1.104 2.643-.736.717-1.623 1.075-2.662 1.075-1.149 0-2.031-.396-2.646-1.188V16h-1.633V6.105h1.633v1.017c.615-.8 1.497-1.201 2.647-1.201Zm-1.965 5.345c.453.424 1.023.636 1.708.636.686 0 1.256-.212 1.71-.636.453-.434.68-.976.68-1.626 0-.65-.227-1.188-.68-1.612-.454-.433-1.024-.65-1.71-.65-.685 0-1.255.217-1.709.65-.453.424-.68.962-.68 1.612 0 .65.227 1.192.68 1.626Z"/>
    <circle cx="8" cy="8" r="8" fill="#D92C04"/>
</svg>
