<svg xmlns="http://www.w3.org/2000/svg" width="1920" height="1080" fill="none" viewBox="0 0 1920 1080"><g clip-path="url(#clip0_700_4)"><mask id="mask0_700_4" width="1920" height="1080" x="0" y="0" maskUnits="userSpaceOnUse" style="mask-type:luminance"><path fill="#fff" d="M1920 0H0v1080h1920V0Z"/></mask><g mask="url(#mask0_700_4)"><path fill="#0B1E3A" fill-opacity=".9" fill-rule="evenodd" d="M1920 0H0v1080h1920V0ZM631.156 706l181.9-259.611H665.508L676.801 374h245.165l-9.882 65.817L728.093 706h-96.937ZM357 706l9.882-63.377 113.406-99.618c10.353-9.389 18.823-17.683 25.411-24.881 6.902-7.198 11.921-14.24 15.058-21.126 3.451-6.885 5.176-14.083 5.176-21.595 0-10.015-3.607-17.526-10.823-22.534-6.901-5.32-16.313-7.981-28.234-7.981-11.921 0-24.312 2.504-37.174 7.512-12.863 4.694-26.038 11.736-39.528 21.125l-24.469-63.846a207.201 207.201 0 0 1 36.704-19.717c13.176-5.321 26.665-9.233 40.468-11.737 14.117-2.817 28.548-4.225 43.292-4.225 20.705 0 38.901 3.756 54.586 11.267 15.999 7.511 28.234 17.84 36.704 30.984 8.784 12.832 13.176 27.698 13.176 44.599 0 18.465-3.137 34.896-9.411 49.293-6.274 14.397-15.215 27.855-26.822 36.241-11.294 12.519-24.47 25.194-39.528 38.026l-59.394 51.641h121.979L586.166 706H357Zm623.682-4.173c13.852 2.782 27.088 4.173 39.708 4.173 24.63 0 47.1-4.791 67.42-14.374 20.62-9.892 37.09-23.957 49.41-42.196 12.62-18.547 18.93-40.65 18.93-66.307 0-17.311-3.54-33.076-10.62-47.296-7.08-14.22-17.4-25.503-30.94-33.849-13.24-8.347-29.4-12.52-48.48-12.52-12.32 0-24.63 2.319-36.94 6.955a101.485 101.485 0 0 0-11.54 4.866l9.23-58.19h132.52L1170 374H957.594l-32.323 204.486h53.102c8.003-6.801 16.777-12.056 26.317-15.765 9.85-3.71 19.55-5.565 29.09-5.565 12.01 0 21.86 2.937 29.56 8.81 8 5.874 12 14.529 12 25.967 0 8.965-2.31 16.847-6.93 23.648-4.61 6.801-11.08 11.901-19.39 15.302-8.31 3.4-17.85 5.1-28.63 5.1-13.85 0-27.549-2.009-41.094-6.028-13.237-4.327-26.32-11.437-39.249-21.329l-31.861 59.815c9.235 8.656 20.164 15.766 32.785 21.33 12.621 5.564 25.858 9.583 39.711 12.056Z" clip-rule="evenodd"/><path fill="#E4BB6B" d="M1201.91 381.176h14.49v1.365h-14.49v-1.365Zm3.48 1.365-.27.273-3.21 22.855.27.273h2.67l-.2 1.365H1194l.2-1.365h2.74l.27-.273 3.21-22.855-.27-.273h-2.67l.2-1.365h10.65l-.19 1.365h-2.75Zm15.67 0-.28.273-3.21 22.855.28.273h2.66l-.2 1.365h-10.65l.2-1.365h2.74l.27-.273 3.21-22.855-.27-.273h-2.66l.19-1.365h10.65l-.19 1.365h-2.74ZM1240.4 380.785c2.29 0 4.28.494 5.95 1.482a9.888 9.888 0 0 1 3.84 4.095c.91 1.716 1.37 3.718 1.37 6.006 0 2.184-.39 4.213-1.18 6.085a15.343 15.343 0 0 1-3.25 4.875 15.297 15.297 0 0 1-4.77 3.237c-1.81.754-3.72 1.131-5.76 1.131-2.3 0-4.28-.494-5.95-1.482a10.112 10.112 0 0 1-3.88-4.095c-.89-1.742-1.33-3.744-1.33-6.007 0-2.184.39-4.199 1.17-6.045.79-1.872 1.87-3.497 3.25-4.875a14.607 14.607 0 0 1 4.78-3.237c1.8-.78 3.72-1.17 5.76-1.17Zm-3.45 25.351c1.39 0 2.65-.351 3.8-1.053 1.17-.702 2.19-1.677 3.05-2.925.89-1.248 1.57-2.717 2.04-4.407.5-1.717.74-3.576.74-5.578 0-1.82-.22-3.471-.66-4.953-.45-1.482-1.15-2.665-2.12-3.549-.96-.884-2.21-1.326-3.75-1.326-1.39 0-2.67.351-3.84 1.053-1.15.702-2.17 1.677-3.06 2.925-.86 1.248-1.54 2.717-2.03 4.407-.47 1.69-.71 3.536-.71 5.539 0 1.82.22 3.484.67 4.992.47 1.482 1.19 2.665 2.15 3.549.97.884 2.21 1.326 3.72 1.326ZM1265.73 393.616c1.44.208 2.7.572 3.8 1.092 1.12.494 1.99 1.157 2.62 1.99.65.806.98 1.82.98 3.042 0 1.274-.33 2.418-.98 3.432-.65.988-1.51 1.82-2.58 2.496-1.07.65-2.29 1.157-3.64 1.521a16.76 16.76 0 0 1-4.12.507c-1.64 0-3.08-.221-4.3-.663-1.2-.468-2.14-1.092-2.82-1.872-.66-.806-.98-1.703-.98-2.691 0-1.04.31-1.872.94-2.496.62-.65 1.33-.975 2.11-.975.68 0 1.22.221 1.61.663.42.416.62.949.62 1.599 0 .754-.27 1.404-.82 1.95-.55.546-1.19.832-1.92.858a4.764 4.764 0 0 0 2.16 1.599c.91.312 1.9.468 2.97.468 2.25 0 3.93-.585 5.05-1.755 1.15-1.196 1.73-2.769 1.73-4.719 0-1.014-.21-1.898-.63-2.652-.42-.78-1.08-1.392-2-1.834-.91-.442-2.16-.663-3.76-.663l.2-1.365c.97 0 1.85-.143 2.66-.429a6.527 6.527 0 0 0 2.2-1.248 5.621 5.621 0 0 0 1.48-2.067c.37-.832.55-1.755.55-2.769 0-1.43-.36-2.496-1.09-3.198-.74-.728-1.79-1.092-3.18-1.092-1.2 0-2.31.26-3.32.78-1.02.52-1.82 1.209-2.39 2.067.7-.078 1.29.104 1.76.546.47.416.7.975.7 1.677 0 .78-.3 1.456-.9 2.028-.6.572-1.29.858-2.07.858-.63 0-1.16-.221-1.61-.663-.42-.442-.62-1.027-.62-1.755 0-.858.23-1.703.7-2.535.5-.858 1.19-1.625 2.08-2.301.88-.702 1.91-1.248 3.09-1.638 1.2-.416 2.49-.624 3.88-.624.94 0 1.88.104 2.82.312.94.208 1.78.533 2.54.975a5.46 5.46 0 0 1 1.88 1.716c.47.702.71 1.56.71 2.574 0 1.274-.36 2.405-1.06 3.393-.71.962-1.67 1.768-2.9 2.418-1.23.65-2.61 1.131-4.15 1.443ZM1273.15 415.302l1.33-9.36h2.94c.63-1.326 1.23-2.86 1.8-4.602a74.075 74.075 0 0 0 1.61-5.656c.52-2.028.99-4.134 1.41-6.318.41-2.184.78-4.368 1.09-6.552l-.27-.273h-3.68l.19-1.365h21.97l-.2 1.365h-2.74l-.27.273-3.21 22.855.23.273h2.71l-1.3 9.36h-1.29c.16-1.612.13-3.029-.08-4.251-.21-1.196-.64-2.119-1.29-2.769-.63-.65-1.51-.975-2.66-.975h-10.77c-1.72 0-3.08.715-4.07 2.145-.97 1.456-1.69 3.406-2.16 5.85h-1.29Zm6.11-9.36h10.85l.31-.273 3.21-22.855-.27-.273h-7.99l-.31.273c-.24 1.716-.54 3.588-.91 5.616a135.21 135.21 0 0 1-1.25 6.162 75.015 75.015 0 0 1-1.64 6.007c-.6 1.95-1.27 3.731-2 5.343ZM1301.11 407.307l.19-1.365h2.75l.27-.273 3.25-22.855-.31-.273h-2.67l.2-1.365h11.86c1.18 0 2.31.117 3.41.351 1.12.208 2.13.559 3.02 1.053a5.778 5.778 0 0 1 2.11 1.989c.52.806.78 1.807.78 3.003 0 1.404-.35 2.639-1.05 3.705a9.155 9.155 0 0 1-2.74 2.613 14.121 14.121 0 0 1-3.61 1.599c-1.25.338-2.44.507-3.56.507h-4.62l-1.37 9.673.27.273h3.96l-.2 1.365h-11.94Zm9.47-12.676h3.49a9.65 9.65 0 0 0 3.33-.585 5.265 5.265 0 0 0 2.58-1.989c.66-.962.98-2.249.98-3.861 0-1.352-.25-2.444-.74-3.276-.47-.832-1.1-1.43-1.88-1.794a5.76 5.76 0 0 0-2.59-.585h-3.21l-.27.273-1.69 11.817ZM1332.42 407.307h-7.83l.2-1.365h2.27l13.31-24.766h2.78l6.03 24.766h2.51l-.2 1.365h-10.3l.2-1.365h2.47l.27-.273-4.5-19.345h-.2l-10.33 19.345.31.273h3.21l-.2 1.365Zm.04-10.374h12.77l-.2 1.365h-12.76l.19-1.365ZM1371.4 393.578c2.14.208 3.83.819 5.09 1.833 1.28 1.015 1.92 2.367 1.92 4.057 0 1.378-.36 2.561-1.06 3.549-.68.988-1.58 1.794-2.7 2.418-1.1.624-2.27 1.092-3.53 1.404-1.25.312-2.44.468-3.56.468h-14.25l.19-1.365h2.74l.28-.273 3.25-22.855-.32-.273h-2.66l.2-1.365h12.68c1.15 0 2.26.091 3.33.273 1.1.156 2.08.455 2.94.897.89.416 1.59.988 2.11 1.716.53.702.79 1.599.79 2.691 0 1.196-.3 2.249-.9 3.159-.6.884-1.45 1.638-2.55 2.262-1.1.598-2.43 1.066-3.99 1.404Zm-6.66-11.037-.27.273-1.49 10.452h4.03c1.2 0 2.32-.208 3.37-.624 1.04-.416 1.88-1.053 2.5-1.911.66-.858.98-1.95.98-3.276 0-1.17-.24-2.106-.74-2.808a4.078 4.078 0 0 0-1.96-1.599c-.81-.338-1.75-.507-2.82-.507h-3.6Zm1.88 23.401c1.2 0 2.32-.221 3.37-.663 1.04-.468 1.88-1.144 2.5-2.028.63-.884.94-1.989.94-3.315 0-1.742-.52-3.055-1.56-3.94-1.05-.91-2.28-1.365-3.68-1.365h-5.41l-1.53 11.038.28.273h5.09ZM1387.24 382.541l.19-1.365h15.63l-.2 1.365h-15.62Zm-4.98 25.156c-.75 0-1.35-.221-1.8-.663a2.316 2.316 0 0 1-.66-1.638c0-.806.27-1.469.82-1.989.55-.52 1.24-.78 2.07-.78.47 0 .94.156 1.41.468.47.312.72.871.75 1.677.7-.572 1.36-1.521 1.96-2.847.6-1.326 1.16-2.951 1.68-4.875.52-1.925 1-4.083 1.45-6.475.44-2.418.86-5.005 1.25-7.761l-.23-.273h2.23l-.28.273c-.26 1.794-.54 3.653-.86 5.577a97.892 97.892 0 0 1-1.09 5.655c-.42 1.846-.9 3.602-1.45 5.266-.52 1.638-1.14 3.094-1.84 4.368-.71 1.248-1.5 2.236-2.39 2.964a4.735 4.735 0 0 1-3.02 1.053Zm24.28-25.156-.31.273-3.21 22.855.31.273h2.62l-.19 1.365h-10.61l.19-1.365h2.7l.28-.273 3.21-22.855-.28-.273h-2.62l.2-1.365h10.61l-.2 1.365h-2.7ZM1430.68 399.897h1.37l-2.75 7.41h-20.32l.2-1.365h2.74l.27-.273 3.21-22.855-.27-.273h-2.66l.19-1.365h19.54l.55 6.24-1.37.39c-.29-1.378-.74-2.444-1.37-3.198-.63-.754-1.44-1.287-2.43-1.599-.99-.312-2.18-.468-3.56-.468h-3.64l-.28.273-1.45 10.257h3.14c1.12 0 2.08-.325 2.89-.975.81-.676 1.35-1.781 1.61-3.315h1.37l-1.41 9.946h-1.37c.16-1.534-.08-2.627-.7-3.277-.61-.676-1.47-1.014-2.59-1.014h-3.13l-1.57 11.233.28.273h4.34c2.09 0 3.88-.494 5.37-1.482 1.51-.988 2.78-2.509 3.8-4.563ZM1454 381.176h10.65l-.19 1.365h-2.74l-.28.273-3.21 22.855.28.273h2.66l-.2 1.365h-10.65l.2-1.365h2.74l.27-.273 1.57-11.233h-11.75l-1.56 11.233.27.273h2.66l-.19 1.365h-10.65l.19-1.365h2.74l.28-.273 3.21-22.855-.28-.273h-2.66l.2-1.365h10.65l-.2 1.365h-2.74l-.27.273-1.45 10.257h11.75l1.44-10.257-.27-.273h-2.66l.19-1.365ZM1471.52 403.251l.35-2.769 15.59-15.679-.35 2.769-15.59 15.679Zm4.07-20.71-.27.273-3.21 22.855.27.273h2.67l-.2 1.365h-10.65l.2-1.365h2.74l.27-.273 3.21-22.855-.27-.273h-2.67l.2-1.365h10.65l-.19 1.365h-2.75Zm16.45 0-.27.273-3.21 22.855.27.273h2.66l-.19 1.365h-10.65l.19-1.365h2.74l.28-.273 3.21-22.855-.28-.273h-2.66l.2-1.365h10.65l-.2 1.365h-2.74ZM1501.85 403.251l.35-2.769 15.58-15.679-.35 2.769-15.58 15.679Zm4.07-20.71-.28.273-3.21 22.855.28.273h2.66l-.2 1.365h-10.65l.2-1.365h2.74l.27-.273 3.22-22.855-.28-.273h-2.66l.19-1.365h10.66l-.2 1.365h-2.74Zm16.44 0-.27.273-3.21 22.855.27.273h2.67l-.2 1.365h-10.65l.2-1.365h2.74l.27-.273 3.21-22.855-.27-.273h-2.67l.2-1.365h10.65l-.19 1.365h-2.75Zm-10.41-3.276c-.78 0-1.58-.104-2.39-.312-.81-.234-1.49-.572-2.04-1.014-.52-.468-.78-1.079-.78-1.833 0-.624.25-1.131.74-1.521.5-.39 1.04-.585 1.61-.585.5 0 .9.156 1.21.468.32.312.47.676.47 1.092 0 .364-.13.702-.39 1.014-.26.312-.53.533-.82.663.24.312.56.533.98.663.44.13.98.195 1.6.195.58 0 1.13-.065 1.65-.195.55-.13.97-.364 1.25-.702-.26-.13-.47-.312-.62-.546a1.67 1.67 0 0 1-.2-.741c0-.546.22-1.001.67-1.365.44-.364.95-.546 1.52-.546.47 0 .88.156 1.22.468.36.312.54.702.54 1.17 0 .78-.33 1.443-1.01 1.989-.66.546-1.47.962-2.43 1.248-.97.26-1.89.39-2.78.39ZM1208.37 453.965c1.65 0 3.25-.416 4.82-1.248 1.56-.858 3.14-2.158 4.74-3.9l1.17.897c-1.67 2.028-3.46 3.549-5.36 4.563-1.91 1.014-4.12 1.521-6.62 1.521h-.04c-2.22 0-4.17-.481-5.84-1.443-1.67-.988-2.97-2.366-3.91-4.134-.94-1.794-1.41-3.861-1.41-6.201 0-2.21.4-4.239 1.21-6.085.84-1.846 1.96-3.445 3.37-4.797a15.198 15.198 0 0 1 4.97-3.12 15.86 15.86 0 0 1 5.95-1.131c1.36 0 2.54.156 3.53.468 1.02.312 1.96.741 2.82 1.287l.94-1.365h1.37a67.224 67.224 0 0 0-.2 4.134c0 1.404.04 2.717.12 3.939l-1.33.39c-.31-1.43-.74-2.613-1.29-3.549-.55-.936-1.16-1.677-1.84-2.223a6.387 6.387 0 0 0-2.2-1.17 7.711 7.711 0 0 0-2.31-.351c-1.56 0-2.97.338-4.23 1.014-1.25.676-2.32 1.638-3.21 2.886-.86 1.222-1.52 2.652-1.99 4.29-.45 1.638-.67 3.42-.67 5.344 0 1.924.25 3.64.74 5.148.53 1.482 1.34 2.665 2.43 3.549 1.1.858 2.52 1.287 4.27 1.287ZM1252.24 455.798c-2.06 0-3.84-.429-5.33-1.287-1.46-.858-2.59-2.106-3.4-3.744-.79-1.638-1.18-3.627-1.18-5.967 0-2.158.34-4.186 1.02-6.085.7-1.898 1.68-3.588 2.94-5.07a13.489 13.489 0 0 1 4.42-3.471c1.72-.858 3.6-1.287 5.64-1.287 2.06 0 3.82.429 5.29 1.287 1.48.858 2.62 2.106 3.4 3.744.81 1.638 1.22 3.627 1.22 5.967 0 2.159-.36 4.187-1.06 6.085a16.344 16.344 0 0 1-2.9 5.07 13.894 13.894 0 0 1-4.46 3.51c-1.7.832-3.57 1.248-5.6 1.248Zm-14.57-13.26.2-1.365h7.05l-.2 1.365h-7.05Zm15.19 11.7c1.15 0 2.17-.312 3.06-.936.91-.624 1.7-1.469 2.35-2.535a16.263 16.263 0 0 0 1.68-3.549c.45-1.3.77-2.639.98-4.017.24-1.404.35-2.717.35-3.94 0-2.782-.47-4.94-1.41-6.474-.94-1.56-2.32-2.34-4.15-2.34-1.15 0-2.18.312-3.09.936-.91.624-1.71 1.469-2.39 2.535a17.687 17.687 0 0 0-1.64 3.549c-.42 1.3-.75 2.639-.98 4.018a26.206 26.206 0 0 0-.32 3.939c0 2.756.47 4.914 1.41 6.474.94 1.56 2.33 2.34 4.15 2.34Zm-12.06-23.596-.27.273-3.21 22.855.27.273h2.67l-.2 1.365h-10.65l.2-1.365h2.74l.27-.273 3.21-22.855-.27-.273h-2.67l.2-1.365h10.65l-.19 1.365h-2.75ZM1288.91 436.258c-.26-1.456-.7-2.587-1.33-3.393a5.138 5.138 0 0 0-2.35-1.716c-.91-.338-1.98-.507-3.21-.507h-2.78l.2-1.365h10.29l.55 6.591-1.37.39Zm-21.3 19.15.2-1.365h2.74l.27-.273 3.21-22.855-.27-.273h-2.66l.19-1.365h10.65l-.19 1.365h-2.74l-.28.273-1.37 9.673h4.62c1.18 0 2.3.13 3.37.39 1.07.234 2.02.624 2.86 1.17.83.52 1.49 1.196 1.96 2.028.47.806.7 1.794.7 2.964 0 1.664-.5 3.12-1.49 4.368-.96 1.248-2.28 2.21-3.95 2.886-1.65.676-3.49 1.014-5.52 1.014h-12.3Zm8.18-1.365h3.18c2.06 0 3.72-.572 4.97-1.716 1.28-1.17 1.92-2.756 1.92-4.758 0-1.82-.5-3.211-1.49-4.173-.97-.962-2.21-1.443-3.72-1.443h-3.48l-1.65 11.817.27.273ZM1299.94 451.352l.35-2.769 15.59-15.679-.35 2.769-15.59 15.679Zm4.07-20.71-.27.273-3.21 22.855.27.273h2.67l-.2 1.365h-10.65l.2-1.365h2.74l.27-.273 3.21-22.855-.27-.273h-2.67l.2-1.365h10.65l-.19 1.365h-2.75Zm16.45 0-.27.273-3.21 22.855.27.273h2.66l-.19 1.365h-10.65l.19-1.365h2.74l.28-.273 3.21-22.855-.28-.273h-2.66l.2-1.365h10.65l-.2 1.365h-2.74ZM1329.99 430.642l.2-1.365h15.62l-.19 1.365h-15.63Zm-4.97 25.156c-.76 0-1.36-.221-1.8-.663a2.284 2.284 0 0 1-.67-1.638c0-.806.28-1.469.82-1.989.55-.52 1.24-.78 2.08-.78.47 0 .94.156 1.41.468.47.312.72.871.74 1.677.71-.572 1.36-1.521 1.96-2.847.6-1.326 1.16-2.951 1.68-4.875.53-1.924 1.01-4.082 1.45-6.475.45-2.418.87-5.005 1.26-7.761l-.24-.273h2.23l-.27.273c-.26 1.794-.55 3.653-.86 5.577a98.073 98.073 0 0 1-1.1 5.656c-.42 1.846-.9 3.601-1.45 5.265-.52 1.638-1.13 3.094-1.84 4.368-.7 1.248-1.5 2.236-2.39 2.964a4.708 4.708 0 0 1-3.01 1.053Zm24.28-25.156-.32.273-3.21 22.855.32.273h2.62l-.2 1.365h-10.61l.2-1.365h2.7l.27-.273 3.21-22.855-.27-.273h-2.62l.19-1.365h10.61l-.19 1.365h-2.7ZM1373.43 447.998h1.37l-2.74 7.41h-20.32l.19-1.365h2.74l.28-.273 3.21-22.855-.27-.273h-2.67l.2-1.365h19.54l.55 6.24-1.37.39c-.29-1.378-.75-2.444-1.37-3.198-.63-.754-1.44-1.287-2.43-1.599-.99-.312-2.18-.468-3.57-.468h-3.64l-.27.273-1.45 10.258h3.13c1.12 0 2.09-.325 2.9-.976.81-.676 1.34-1.781 1.61-3.315h1.37l-1.41 9.946h-1.37c.15-1.534-.08-2.626-.71-3.276-.6-.676-1.46-1.014-2.58-1.014h-3.14l-1.56 11.232.27.273h4.35c2.09 0 3.87-.494 5.36-1.482 1.52-.988 2.78-2.509 3.8-4.563ZM1398.32 447.998h1.38l-2.75 7.41h-20.32l.2-1.365h2.74l.27-.273 3.21-22.855-.27-.273h-2.66l.19-1.365h19.54l.55 6.24-1.37.39c-.29-1.378-.74-2.444-1.37-3.198-.63-.754-1.44-1.287-2.43-1.599-.99-.312-2.18-.468-3.56-.468h-3.64l-.28.273-1.45 10.258h3.14c1.12 0 2.08-.325 2.89-.976.81-.676 1.35-1.781 1.61-3.315h1.37l-1.41 9.946h-1.37c.16-1.534-.08-2.626-.71-3.276-.6-.676-1.46-1.014-2.58-1.014h-3.13l-1.57 11.232.28.273h4.34c2.09 0 3.88-.494 5.37-1.482 1.51-.988 2.78-2.509 3.79-4.563ZM1434.85 430.642l-.28.273-3.25 22.855.32.273h2.62l-.19 1.365h-10.62l.2-1.365h2.7l.28-.273 2.7-19.033h-.2l-10.96 20.671h-2.59l-5.71-21.568h-.2l-2.82 19.93.31.273h3.18l-.2 1.365h-8.61l.19-1.365h3.09l.28-.273 3.25-22.855-.28-.273h-3.05l.2-1.365h8.53l5.33 20.32h.19l10.81-20.32h7.68l-.2 1.365h-2.7ZM1201.91 477.379h14.49v1.365h-14.49v-1.365Zm3.48 1.365-.27.273-3.21 22.855.27.273h2.67l-.2 1.365H1194l.2-1.365h2.74l.27-.273 3.21-22.855-.27-.273h-2.67l.2-1.365h10.65l-.19 1.365h-2.75Zm15.67 0-.28.273-3.21 22.855.28.273h2.66l-.2 1.365h-10.65l.2-1.365h2.74l.27-.273 3.21-22.855-.27-.273h-2.66l.19-1.365h10.65l-.19 1.365h-2.74ZM1245.21 496.1h1.37l-2.74 7.41h-20.32l.2-1.365h2.74l.27-.273 3.21-22.855-.27-.273h-2.66l.19-1.365h19.54l.55 6.24-1.37.39c-.29-1.378-.75-2.444-1.37-3.198-.63-.754-1.44-1.287-2.43-1.599-.99-.312-2.18-.468-3.56-.468h-3.64l-.28.273-1.45 10.258h3.14c1.12 0 2.08-.325 2.89-.975.81-.676 1.35-1.781 1.61-3.315h1.37l-1.41 9.945h-1.37c.16-1.534-.08-2.626-.71-3.276-.6-.676-1.46-1.014-2.58-1.014H1233l-1.57 11.232.27.273h4.35c2.09 0 3.88-.494 5.37-1.482 1.51-.988 2.78-2.509 3.79-4.563ZM1248.41 503.51l.2-1.365h2.74l.28-.273 3.25-22.855-.32-.273h-2.66l.2-1.365h11.86c1.17 0 2.31.117 3.41.351 1.12.208 2.12.559 3.01 1.053a5.808 5.808 0 0 1 2.12 1.989c.52.806.78 1.807.78 3.003 0 1.405-.35 2.64-1.06 3.706-.7 1.04-1.62 1.911-2.74 2.613a13.905 13.905 0 0 1-3.6 1.599c-1.25.338-2.44.507-3.56.507h-4.63l-1.37 9.672.28.273h3.95l-.19 1.365h-11.95Zm9.48-12.675h3.49c1.14 0 2.25-.195 3.32-.585a5.29 5.29 0 0 0 2.59-1.989c.65-.962.98-2.249.98-3.862 0-1.352-.25-2.444-.75-3.276-.47-.832-1.09-1.43-1.88-1.794-.78-.39-1.64-.585-2.58-.585h-3.21l-.28.273-1.68 11.818ZM1291.44 489.782c2.14.208 3.83.819 5.09 1.833 1.28 1.014 1.92 2.366 1.92 4.056 0 1.378-.36 2.561-1.06 3.549-.68.988-1.58 1.794-2.7 2.418-1.1.624-2.27 1.092-3.53 1.404-1.25.312-2.44.468-3.56.468h-14.25l.19-1.365h2.74l.28-.273 3.25-22.855-.32-.273h-2.66l.2-1.365h12.68c1.15 0 2.26.091 3.33.273 1.1.156 2.08.455 2.94.897.89.416 1.59.988 2.11 1.716.53.702.79 1.599.79 2.691 0 1.196-.3 2.25-.9 3.16-.6.884-1.45 1.638-2.55 2.262-1.09.598-2.43 1.066-3.99 1.404Zm-6.66-11.038-.27.273-1.49 10.453h4.03c1.2 0 2.33-.208 3.37-.624 1.04-.416 1.88-1.053 2.51-1.911.65-.858.97-1.951.97-3.277 0-1.17-.24-2.106-.74-2.808a4.078 4.078 0 0 0-1.96-1.599c-.81-.338-1.75-.507-2.82-.507h-3.6Zm1.88 23.401c1.2 0 2.32-.221 3.37-.663 1.04-.468 1.88-1.144 2.5-2.028.63-.884.94-1.989.94-3.315 0-1.742-.52-3.055-1.56-3.939-1.05-.91-2.27-1.365-3.68-1.365h-5.41l-1.52 11.037.27.273h5.09ZM1317.11 476.988c2.29 0 4.28.494 5.95 1.482a9.888 9.888 0 0 1 3.84 4.095c.91 1.716 1.37 3.719 1.37 6.007 0 2.184-.4 4.212-1.18 6.084a15.51 15.51 0 0 1-3.25 4.875 15.226 15.226 0 0 1-4.78 3.237c-1.8.754-3.72 1.131-5.75 1.131-2.3 0-4.28-.494-5.95-1.482a10.112 10.112 0 0 1-3.88-4.095c-.89-1.742-1.33-3.744-1.33-6.006 0-2.184.39-4.199 1.17-6.045.79-1.873 1.87-3.498 3.25-4.876a14.607 14.607 0 0 1 4.78-3.237c1.8-.78 3.72-1.17 5.76-1.17Zm-3.45 25.351c1.38 0 2.65-.351 3.8-1.053 1.17-.702 2.19-1.677 3.05-2.925.89-1.248 1.57-2.717 2.04-4.407.49-1.716.74-3.575.74-5.577 0-1.82-.22-3.472-.66-4.954-.45-1.482-1.15-2.665-2.12-3.549-.96-.884-2.22-1.326-3.76-1.326-1.38 0-2.66.351-3.83 1.053-1.15.702-2.17 1.677-3.06 2.925-.86 1.248-1.54 2.718-2.03 4.408-.47 1.69-.71 3.536-.71 5.538 0 1.82.22 3.484.67 4.992.47 1.482 1.18 2.665 2.15 3.549.97.884 2.21 1.326 3.72 1.326ZM1329.75 503.51l.2-1.365h2.74l.27-.273 3.21-22.855-.31-.273h-2.62l.19-1.365h18.52l.51 6.24-1.33.39c-.29-1.378-.74-2.444-1.37-3.198-.63-.754-1.44-1.287-2.43-1.599-.96-.312-2.15-.468-3.56-.468h-2.62l-.28.273-3.21 22.855.27.273h3.96l-.2 1.365h-11.94ZM1368.88 476.988c2.3 0 4.28.494 5.95 1.482a9.888 9.888 0 0 1 3.84 4.095c.92 1.716 1.37 3.719 1.37 6.007 0 2.184-.39 4.212-1.17 6.084a15.683 15.683 0 0 1-3.25 4.875 15.458 15.458 0 0 1-4.78 3.237c-1.8.754-3.72 1.131-5.76 1.131-2.29 0-4.28-.494-5.95-1.482s-2.96-2.353-3.87-4.095c-.89-1.742-1.34-3.744-1.34-6.006 0-2.184.4-4.199 1.18-6.045a14.935 14.935 0 0 1 3.25-4.876 14.4 14.4 0 0 1 4.78-3.237c1.8-.78 3.72-1.17 5.75-1.17Zm-3.44 25.351c1.38 0 2.65-.351 3.79-1.053 1.18-.702 2.2-1.677 3.06-2.925.89-1.248 1.57-2.717 2.04-4.407.49-1.716.74-3.575.74-5.577 0-1.82-.22-3.472-.67-4.954-.44-1.482-1.15-2.665-2.11-3.549-.97-.884-2.22-1.326-3.76-1.326-1.38 0-2.66.351-3.84 1.053-1.15.702-2.16 1.677-3.05 2.925-.86 1.248-1.54 2.718-2.04 4.408-.47 1.69-.7 3.536-.7 5.538 0 1.82.22 3.484.66 4.992.47 1.482 1.19 2.665 2.16 3.549.96.884 2.2 1.326 3.72 1.326ZM1194 551.609l.2-1.364h2.74l.27-.274 3.25-22.854-.31-.273h-2.67l.2-1.365h11.87c1.17 0 2.31.117 3.4.351 1.12.208 2.13.559 3.02 1.053a5.778 5.778 0 0 1 2.11 1.989c.52.807.78 1.807.78 3.003 0 1.404-.35 2.64-1.05 3.706a9.152 9.152 0 0 1-2.74 2.612 14.124 14.124 0 0 1-3.61 1.6c-1.25.338-2.44.506-3.56.506h-4.62l-1.37 9.672.27.274h3.96l-.2 1.364H1194Zm9.48-12.674h3.48a9.65 9.65 0 0 0 3.33-.586 5.263 5.263 0 0 0 2.58-1.988c.66-.962.98-2.249.98-3.861 0-1.352-.25-2.444-.74-3.277-.47-.832-1.1-1.43-1.88-1.794-.78-.39-1.65-.585-2.59-.585h-3.21l-.27.273-1.68 11.818ZM1223.51 552c-.86 0-1.55-.235-2.07-.703-.5-.468-.75-1.052-.75-1.754 0-.728.25-1.365.75-1.911.52-.546 1.2-.82 2.03-.82.6 0 1.13.183 1.57.547.47.338.71.832.71 1.482 0 .338-.1.688-.28 1.052-.16.338-.39.625-.7.859-.32.208-.72.312-1.22.312l-.11-.585a6.32 6.32 0 0 0 2.31-.975c.75-.52 1.54-1.248 2.34-2.184.81-.962 1.69-2.171 2.63-3.627l-7.25-16.849h-2.46l.19-1.365h10.34l-.2 1.365h-2.54l-.31.273 5.05 12.286h.19l7.91-12.286-.31-.273h-3.25l.2-1.365h8.02l-.19 1.365h-2.27l-10.65 16.108c-1.18 1.794-2.33 3.367-3.45 4.719-1.1 1.352-2.17 2.418-3.21 3.198-1.05.754-2.05 1.131-3.02 1.131ZM1257.62 550.168c1.65 0 3.25-.416 4.82-1.248 1.57-.858 3.15-2.158 4.74-3.9l1.17.897c-1.67 2.028-3.46 3.549-5.36 4.563-1.91 1.014-4.11 1.521-6.62 1.521h-.04c-2.22 0-4.16-.481-5.83-1.443-1.67-.988-2.98-2.366-3.92-4.134-.94-1.794-1.41-3.861-1.41-6.201 0-2.21.41-4.238 1.21-6.084.84-1.846 1.96-3.445 3.37-4.798a15.242 15.242 0 0 1 4.98-3.12 15.822 15.822 0 0 1 5.95-1.131c1.35 0 2.53.156 3.52.468 1.02.312 1.96.741 2.82 1.287l.94-1.365h1.37c-.1 1.326-.17 2.704-.19 4.135 0 1.404.03 2.717.11 3.939l-1.33.39c-.31-1.43-.74-2.613-1.29-3.549-.55-.936-1.16-1.678-1.84-2.224a6.434 6.434 0 0 0-2.19-1.17 7.809 7.809 0 0 0-2.31-.351c-1.57 0-2.98.338-4.23 1.014-1.26.676-2.33 1.638-3.21 2.887-.87 1.222-1.53 2.652-2 4.29-.44 1.638-.67 3.419-.67 5.343s.25 3.64.75 5.148c.52 1.482 1.33 2.665 2.42 3.549 1.1.858 2.52 1.287 4.27 1.287ZM1284.58 550.168c1.65 0 3.25-.416 4.82-1.248 1.56-.858 3.14-2.158 4.74-3.9l1.17.897c-1.67 2.028-3.46 3.549-5.36 4.563-1.91 1.014-4.12 1.521-6.62 1.521h-.04c-2.22 0-4.16-.481-5.83-1.443-1.68-.988-2.98-2.366-3.92-4.134-.94-1.794-1.41-3.861-1.41-6.201 0-2.21.4-4.238 1.21-6.084.84-1.846 1.96-3.445 3.37-4.798a15.198 15.198 0 0 1 4.97-3.12 15.873 15.873 0 0 1 5.96-1.131c1.35 0 2.53.156 3.52.468 1.02.312 1.96.741 2.82 1.287l.94-1.365h1.37c-.1 1.326-.17 2.704-.2 4.135 0 1.404.04 2.717.12 3.939l-1.33.39c-.31-1.43-.74-2.613-1.29-3.549-.55-.936-1.16-1.678-1.84-2.224a6.387 6.387 0 0 0-2.2-1.17 7.711 7.711 0 0 0-2.31-.351c-1.56 0-2.97.338-4.22 1.014-1.26.676-2.33 1.638-3.22 2.887-.86 1.222-1.52 2.652-1.99 4.29-.45 1.638-.67 3.419-.67 5.343s.25 3.64.75 5.148c.52 1.482 1.33 2.665 2.42 3.549 1.1.858 2.52 1.287 4.27 1.287ZM1297.17 551.611l.2-1.365h2.74l.27-.273 3.21-22.855-.27-.273h-2.66l.19-1.365h10.65l-.19 1.365h-2.75l-.27.273-3.21 22.855.27.273h2.67l-.2 1.365h-10.65Zm18.64 0-5.05-10.842c-.32-.65-.66-1.131-1.02-1.443a2.9 2.9 0 0 0-1.33-.624c-.5-.104-1.12-.156-1.88-.156l.19-1.365h3.02c1.2 0 2.15.052 2.86.156.7.078 1.28.312 1.72.702.44.364.88.988 1.29 1.872l3.92 8.307c.36.806.87 1.326 1.53 1.56.65.208 1.34.364 2.07.468l-.19 1.365h-7.13Zm-9.24-13.26.15-1.17c1.44 0 2.67-.221 3.69-.663 1.04-.442 1.94-1.014 2.7-1.716a14.52 14.52 0 0 0 1.99-2.379c.6-.858 1.17-1.716 1.69-2.574.55-.859 1.12-1.639 1.72-2.341a7.574 7.574 0 0 1 2.04-1.755c.78-.442 1.71-.663 2.78-.663.86 0 1.52.247 1.99.741.47.468.71 1.066.71 1.794-.03.78-.35 1.457-.98 2.029-.6.572-1.29.858-2.08.858-.57 0-1.1-.208-1.6-.624-.47-.416-.72-1.041-.74-1.873a12.96 12.96 0 0 0-2.28 2.497c-.62.91-1.24 1.833-1.84 2.769-.6.91-1.31 1.755-2.15 2.535-.81.754-1.84 1.365-3.09 1.833-1.23.468-2.8.702-4.7.702ZM1341.46 525.09c2.3 0 4.29.494 5.96 1.482a9.798 9.798 0 0 1 3.83 4.096c.92 1.716 1.37 3.718 1.37 6.006 0 2.184-.39 4.212-1.17 6.084a15.51 15.51 0 0 1-3.25 4.875 15.341 15.341 0 0 1-4.78 3.237c-1.8.754-3.72 1.131-5.75 1.131-2.3 0-4.28-.494-5.96-1.482-1.67-.988-2.96-2.353-3.87-4.095-.89-1.742-1.33-3.744-1.33-6.006 0-2.184.39-4.199 1.17-6.045a14.942 14.942 0 0 1 3.25-4.875 14.49 14.49 0 0 1 4.78-3.238c1.8-.78 3.72-1.17 5.75-1.17Zm-3.44 25.351c1.38 0 2.65-.351 3.8-1.053 1.17-.702 2.19-1.677 3.05-2.925.89-1.248 1.57-2.717 2.04-4.407.49-1.716.74-3.575.74-5.577 0-1.82-.22-3.471-.66-4.953-.45-1.482-1.15-2.666-2.12-3.55-.96-.884-2.22-1.326-3.76-1.326-1.38 0-2.66.351-3.84 1.053-1.14.702-2.16 1.677-3.05 2.926-.86 1.248-1.54 2.717-2.04 4.407-.47 1.69-.7 3.536-.7 5.538 0 1.82.22 3.484.67 4.992.46 1.482 1.18 2.665 2.15 3.549.96.884 2.2 1.326 3.72 1.326ZM1354.11 551.609l.2-1.364h2.74l.27-.274 3.21-22.854-.31-.273h-2.63l.2-1.365h18.52l.51 6.24-1.33.39c-.29-1.378-.74-2.443-1.37-3.198-.63-.754-1.44-1.287-2.43-1.599-.96-.312-2.15-.468-3.56-.468h-2.63l-.27.273-3.21 22.854.27.274h3.96l-.2 1.364h-11.94ZM1393.24 525.09c2.3 0 4.28.494 5.95 1.482a9.884 9.884 0 0 1 3.84 4.096c.91 1.716 1.37 3.718 1.37 6.006 0 2.184-.39 4.212-1.17 6.084a15.683 15.683 0 0 1-3.25 4.875 15.458 15.458 0 0 1-4.78 3.237c-1.8.754-3.72 1.131-5.76 1.131-2.29 0-4.28-.494-5.95-1.482s-2.96-2.353-3.88-4.095c-.88-1.742-1.33-3.744-1.33-6.006 0-2.184.39-4.199 1.18-6.045.78-1.872 1.86-3.497 3.25-4.875a14.45 14.45 0 0 1 4.77-3.238c1.81-.78 3.72-1.17 5.76-1.17Zm-3.45 25.351c1.39 0 2.65-.351 3.8-1.053 1.18-.702 2.2-1.677 3.06-2.925.88-1.248 1.56-2.717 2.03-4.407.5-1.716.75-3.575.75-5.577 0-1.82-.22-3.471-.67-4.953-.44-1.482-1.15-2.666-2.11-3.55-.97-.884-2.22-1.326-3.76-1.326-1.39 0-2.66.351-3.84 1.053-1.15.702-2.17 1.677-3.05 2.926-.86 1.248-1.54 2.717-2.04 4.407-.47 1.69-.7 3.536-.7 5.538 0 1.82.22 3.484.66 4.992.47 1.482 1.19 2.665 2.15 3.549.97.884 2.21 1.326 3.72 1.326ZM1439.04 525.479l.55 6.591-1.33.391c-.29-1.456-.76-2.587-1.41-3.394-.62-.806-1.43-1.378-2.43-1.716-.96-.338-2.15-.507-3.56-.507l-3.25 23.127.31.274h2.63l-.2 1.364h-10.61l.2-1.364h2.7l.27-.274 3.25-23.127c-1.36 0-2.58.169-3.68.507-1.1.338-2.07.91-2.94 1.716-.83.807-1.59 1.938-2.27 3.394l-1.25-.391 2.39-6.591h20.63ZM1460.73 544.2h1.37l-2.74 7.409h-20.32l.19-1.364h2.75l.27-.274 3.21-22.854-.27-.273h-2.67l.2-1.365h19.54l.55 6.24-1.37.39c-.29-1.378-.75-2.443-1.37-3.198-.63-.754-1.44-1.287-2.43-1.599-.99-.312-2.18-.468-3.57-.468h-3.64l-.27.273-1.45 10.258h3.13c1.13 0 2.09-.325 2.9-.975.81-.676 1.34-1.781 1.61-3.315h1.37l-1.41 9.945h-1.37c.15-1.534-.08-2.626-.71-3.276-.6-.676-1.46-1.014-2.58-1.014h-3.14l-1.56 11.231.27.274h4.35c2.09 0 3.88-.494 5.36-1.482 1.52-.988 2.78-2.509 3.8-4.563ZM1470.31 551.609h-7.83l.2-1.364h2.27l13.31-24.766h2.78l6.03 24.766h2.51l-.2 1.364h-10.29l.19-1.364h2.47l.27-.274-4.5-19.343h-.2l-10.33 19.343.31.274h3.21l-.2 1.364Zm.04-10.373h12.77l-.2 1.365h-12.76l.19-1.365ZM1512.43 525.479l.54 6.591-1.33.391c-.28-1.456-.75-2.587-1.41-3.394a5.036 5.036 0 0 0-2.42-1.716c-.97-.338-2.16-.507-3.57-.507l-3.25 23.127.32.274h2.62l-.2 1.364h-10.61l.2-1.364h2.7l.27-.274 3.25-23.127c-1.35 0-2.58.169-3.68.507-1.09.338-2.07.91-2.93 1.716-.84.807-1.6 1.938-2.28 3.394l-1.25-.391 2.39-6.591h20.64ZM1512.42 551.609l.2-1.364h2.74l.27-.274 3.25-22.854-.31-.273h-2.67l.2-1.365h11.87c1.17 0 2.31.117 3.4.351 1.12.208 2.13.559 3.02 1.053a5.778 5.778 0 0 1 2.11 1.989c.52.807.78 1.807.78 3.003 0 1.404-.35 2.64-1.05 3.706a9.152 9.152 0 0 1-2.74 2.612 14.124 14.124 0 0 1-3.61 1.6c-1.25.338-2.44.506-3.56.506h-4.62l-1.37 9.672.27.274h3.96l-.2 1.364h-11.94Zm9.48-12.674h3.48a9.65 9.65 0 0 0 3.33-.586 5.263 5.263 0 0 0 2.58-1.988c.66-.962.98-2.249.98-3.861 0-1.352-.25-2.444-.74-3.277-.47-.832-1.1-1.43-1.88-1.794-.78-.39-1.65-.585-2.59-.585h-3.21l-.27.273-1.68 11.818ZM1543.73 551.609h-7.83l.2-1.364h2.27l13.31-24.766h2.78l6.03 24.766h2.51l-.2 1.364h-10.29l.19-1.364h2.47l.27-.274-4.5-19.343h-.2l-10.33 19.343.31.274h3.21l-.2 1.364Zm.04-10.373h12.77l-.2 1.365h-12.76l.19-1.365Z"/></g></g><defs><clipPath id="clip0_700_4"><path fill="#fff" d="M0 0h1920v1080H0z"/></clipPath></defs></svg>