<svg xmlns="http://www.w3.org/2000/svg" width="375" height="720" fill="none" viewBox="0 0 375 720"><g clip-path="url(#clip0_700_51)"><path fill="#0B1E3A" fill-opacity=".9" fill-rule="evenodd" d="M375 0H0v720h375V0ZM50.79 375.986c-2.868 4.964-4.797 10.811-5.79 17.541h76.919l12.902-35.578h-5.789c-2.096 4.081-4.522 7.17-7.279 9.267-2.646 1.985-6.065 3.309-10.255 3.971-4.081.552-9.319.827-15.715.827h-33.58a49.974 49.974 0 0 1 12.903-12.576 121.243 121.243 0 0 1 16.541-9.432 1116.27 1116.27 0 0 1 17.204-7.944c5.624-2.647 10.752-5.46 15.384-8.439 4.631-3.089 8.326-6.674 11.083-10.756 2.867-4.193 4.3-9.212 4.3-15.059 0-5.957-1.378-10.701-4.135-14.231-2.757-3.531-6.176-6.178-10.256-7.944-4.08-1.875-8.271-3.089-12.572-3.64-4.3-.662-7.995-.993-11.082-.993-9.264 0-17.259 1.544-23.986 4.633-6.617 3.089-11.745 7.116-15.384 12.081-3.529 4.964-5.293 10.259-5.293 15.886 0 4.744 1.158 8.163 3.474 10.26 2.316 2.096 5.017 3.144 8.105 3.144 4.08 0 7.61-1.434 10.587-4.303 3.088-2.978 4.632-6.509 4.632-10.591 0-3.861-1.379-6.784-4.136-8.77-2.757-1.986-6.23-2.648-10.421-1.986 2.647-4.192 6.561-7.502 11.744-9.929 5.294-2.537 10.477-3.806 15.55-3.806 3.859 0 7.002.772 9.428 2.317 2.426 1.434 4.246 3.53 5.459 6.288 1.213 2.648 1.82 5.902 1.82 9.764 0 5.736-1.158 10.811-3.474 15.224-2.206 4.302-5.183 8.164-8.933 11.584-3.639 3.419-7.774 6.674-12.406 9.763a629.972 629.972 0 0 0-13.895 9.432c-4.632 3.2-9.043 6.73-13.233 10.591-4.08 3.861-7.554 8.329-10.421 13.404Zm183.139-74.632c2.426-5.626 4.136-11.859 5.128-18.699h-73.445l-12.406 33.923 5.293 1.655c2.095-4.192 4.466-7.281 7.113-9.267 2.757-1.986 6.12-3.254 10.09-3.806 4.081-.662 9.153-.993 15.219-.993h34.406c-3.528 7.723-7.719 14.397-12.571 20.024-4.742 5.516-9.65 10.535-14.722 15.058a576.712 576.712 0 0 0-14.061 12.908c-4.301 4.192-7.774 8.715-10.421 13.569-2.647 4.744-3.97 10.315-3.97 16.714 0 3.199.827 6.123 2.481 8.77 1.765 2.648 4.687 3.972 8.767 3.972 4.853 0 8.602-1.6 11.249-4.799 2.646-3.31 4.025-6.84 4.135-10.591.221-6.729 1.213-12.852 2.978-18.368 1.874-5.516 4.245-10.701 7.113-15.556a215.491 215.491 0 0 1 9.428-14.396 326.81 326.81 0 0 0 9.925-14.232c3.198-4.964 5.955-10.26 8.271-15.886Zm93.094 2.813H264.33l-5.955 26.146c2.757-1.875 6.285-3.53 10.586-4.964 4.301-1.545 9.925-2.317 16.873-2.317 13.123 0 22.938 2.868 29.444 8.605 6.617 5.737 9.925 13.183 9.925 22.34 0 8.164-2.371 15.39-7.113 21.678-4.742 6.178-11.083 10.977-19.023 14.397-7.94 3.42-16.652 5.13-26.136 5.13-7.829 0-14.226-1.103-19.188-3.31-4.852-2.206-8.436-5.075-10.752-8.605-2.316-3.64-3.474-7.391-3.474-11.253 0-4.964 1.544-9.046 4.632-12.245 3.088-3.199 6.672-4.799 10.752-4.799 3.418 0 6.175 1.103 8.271 3.31 2.095 2.206 3.143 4.964 3.143 8.274 0 3.751-1.324 7.06-3.97 9.928-2.647 2.759-6.066 4.138-10.256 4.138 2.205 2.758 5.128 4.798 8.767 6.122 3.639 1.214 7.223 1.821 10.752 1.821 6.176 0 11.193-1.435 15.053-4.303 3.86-2.979 6.672-7.005 8.436-12.08 1.875-5.075 2.812-10.701 2.812-16.879 0-4.854-.606-9.212-1.819-13.073-1.103-3.861-2.978-6.895-5.625-9.102-2.536-2.316-6.065-3.475-10.586-3.475-3.198 0-7.058.717-11.579 2.152-4.522 1.434-9.153 4.412-13.895 8.936l-4.797-1.324 12.737-56.76H330l-2.977 21.512ZM53.88 403.979H46.69l-.09.628h.972l.18.18-1.475 10.413-.18.179H45.09l-.09.628h5.123l.09-.628h-.97l-.18-.179 1.474-10.413.18-.18H54.76l.18.18-1.474 10.413-.18.179H52.28l-.09.628h5.124l.09-.628h-.971l-.18-.179 1.474-10.413.18-.18h1.006l.09-.628H53.88Zm13.448-.18c1.138 0 2.103.228 2.894.683a4.33 4.33 0 0 1 1.816 1.867c.419.802.629 1.735.629 2.8 0 .982-.174 1.903-.522 2.765a6.885 6.885 0 0 1-1.474 2.244 6.874 6.874 0 0 1-2.247 1.49c-.85.359-1.785.539-2.804.539-1.138 0-2.109-.221-2.912-.664a4.587 4.587 0 0 1-1.816-1.885c-.407-.814-.61-1.748-.61-2.801 0-.993.173-1.915.52-2.765a6.684 6.684 0 0 1 1.475-2.226 6.8 6.8 0 0 1 2.229-1.508c.862-.359 1.803-.539 2.822-.539Zm-1.564 11.67c.515 0 1.007-.156 1.474-.467.467-.323.887-.772 1.258-1.346.372-.575.665-1.257.881-2.047.216-.802.324-1.682.324-2.639 0-.778-.084-1.502-.252-2.173-.168-.682-.437-1.232-.809-1.651-.36-.419-.845-.629-1.456-.629-.515 0-1.007.162-1.474.485-.467.311-.887.754-1.258 1.329-.372.574-.665 1.262-.881 2.064-.216.79-.324 1.664-.324 2.621 0 .778.084 1.509.252 2.191.168.67.437 1.215.809 1.633.371.419.857.629 1.456.629Zm16.1-5.314c-.563-.24-1.258-.401-2.085-.485.863-.144 1.612-.353 2.247-.628.636-.288 1.127-.653 1.474-1.096.348-.442.522-.975.522-1.597 0-.491-.126-.898-.378-1.221a2.535 2.535 0 0 0-.953-.772 4.577 4.577 0 0 0-1.276-.431 7.236 7.236 0 0 0-1.312-.126c-.6 0-1.186.09-1.762.27a5.355 5.355 0 0 0-1.564.736c-.455.323-.82.7-1.096 1.131a2.633 2.633 0 0 0-.396 1.4c0 .371.12.676.36.916a1.2 1.2 0 0 0 .88.359c.444 0 .828-.156 1.151-.467.336-.311.504-.688.504-1.131 0-.419-.144-.736-.432-.952-.276-.227-.623-.305-1.043-.233a3.706 3.706 0 0 1 1.205-.969 3.282 3.282 0 0 1 1.456-.342c.611 0 1.055.174 1.33.521.288.347.432.802.432 1.365 0 .383-.054.754-.162 1.113a2.637 2.637 0 0 1-.486.969 2.357 2.357 0 0 1-.898.682c-.372.168-.827.252-1.367.252l-.09.628c.672 0 1.187.114 1.546.341.372.216.63.497.773.844.144.347.216.712.216 1.095 0 1.005-.263 1.783-.79 2.334-.528.539-1.26.808-2.194.808-.42 0-.797-.06-1.132-.18a3.976 3.976 0 0 1-.917-.502c.455 0 .827-.15 1.114-.449.288-.311.432-.67.432-1.077 0-.359-.114-.659-.342-.898-.227-.239-.527-.359-.898-.359-.432 0-.821.173-1.169.521-.335.335-.503.766-.503 1.292 0 .479.162.898.485 1.257.336.347.797.622 1.384.826.587.191 1.27.287 2.05.287.67 0 1.324-.072 1.959-.215a6.084 6.084 0 0 0 1.743-.665 3.64 3.64 0 0 0 1.259-1.149c.311-.467.467-1.023.467-1.669 0-.539-.15-1-.45-1.383-.287-.395-.718-.712-1.293-.951Zm2.343 9.533.61-4.309h1.223c.276-.562.54-1.257.791-2.082.252-.838.492-1.742.72-2.711.239-.97.449-1.951.628-2.945a68.17 68.17 0 0 0 .486-2.854l-.18-.18h-1.708l.09-.628h10.426l-.09.628h-1.006l-.18.18-1.474 10.413.162.179h.988l-.593 4.309h-.593c.06-.778.024-1.442-.108-1.993-.12-.551-.347-.969-.683-1.257-.324-.287-.773-.431-1.348-.431h-4.404c-.863 0-1.546.318-2.05.952-.491.646-.862 1.556-1.114 2.729h-.593Zm2.678-4.309h4.674l.198-.179 1.474-10.413-.18-.18h-3.398l-.18.18c-.107.682-.24 1.484-.395 2.405-.156.922-.341 1.88-.557 2.873a38.609 38.609 0 0 1-.737 2.872 18.861 18.861 0 0 1-.899 2.442Zm10.83 0-.09.628h5.573l.09-.628h-1.42l-.18-.179.629-4.399h2.067c.54 0 1.103-.084 1.69-.251a6.23 6.23 0 0 0 1.636-.772 4.153 4.153 0 0 0 1.24-1.221c.312-.491.468-1.053.468-1.688 0-.526-.114-.969-.342-1.328a2.593 2.593 0 0 0-.935-.898 4.624 4.624 0 0 0-1.366-.503 7.935 7.935 0 0 0-1.618-.161h-5.842l-.09.628h.971l.18.18-1.474 10.413-.18.179h-1.007Zm6.04-5.206h-1.348l.755-5.386.18-.18h1.186c.348 0 .665.09.953.269.288.168.521.437.701.808.18.371.27.85.27 1.437 0 .694-.126 1.268-.378 1.723-.251.455-.587.79-1.006 1.006a2.773 2.773 0 0 1-1.313.323Zm9.251 5.834h-3.685l.09-.628h1.042l6.31-11.4h1.258l3.056 11.4h1.043l-.09.628h-5.321l.09-.628h1.06l.18-.179-.811-3.142h-4.077l-1.727 3.142.18.179h1.492l-.09.628Zm2.948-8.886 1.112 4.308h-3.57l2.368-4.308h.09Zm18.432 3.465c-.611-.491-1.426-.778-2.445-.862.839-.156 1.528-.377 2.068-.664.539-.288.94-.647 1.204-1.078.264-.43.395-.915.395-1.454 0-.479-.119-.88-.359-1.203a2.31 2.31 0 0 0-.953-.79 4.572 4.572 0 0 0-1.384-.43 10.05 10.05 0 0 0-1.618-.126h-6.201l-.09.628h.97l.18.18-1.474 10.413-.18.179h-1.006l-.09.628h6.921c.539 0 1.096-.065 1.671-.197a6.414 6.414 0 0 0 1.618-.628 3.745 3.745 0 0 0 1.223-1.096c.311-.442.467-.975.467-1.597 0-.79-.306-1.425-.917-1.903Zm-5.447-5.799.18-.18h1.366c.456 0 .845.084 1.169.252.323.167.569.424.737.772.168.335.251.766.251 1.292 0 .599-.131 1.101-.395 1.508a2.423 2.423 0 0 1-.989.916 3.012 3.012 0 0 1-1.294.287h-1.708l.683-4.847Zm2.032 10.287a2.758 2.758 0 0 1-1.277.305h-2.031l-.18-.179.683-4.938h2.247c.492 0 .935.204 1.331.611.395.407.593.999.593 1.777 0 .611-.126 1.119-.378 1.526a2.459 2.459 0 0 1-.988.898Zm9.227-10.467.09-.628h10.246l-.09.628h-1.006l-.18.18-1.474 10.413.18.179h.97l-.09.628h-5.123l.09-.628h1.007l.18-.179 1.474-10.413-.18-.18h-3.254l-.18.18c-.107.73-.233 1.52-.377 2.37a39.896 39.896 0 0 1-.485 2.531c-.192.85-.414 1.664-.666 2.442a11.935 11.935 0 0 1-.88 2.082c-.324.611-.695 1.095-1.115 1.454a2.169 2.169 0 0 1-1.42.521c-.395 0-.713-.126-.953-.377a1.3 1.3 0 0 1-.359-.898c0-.431.144-.784.431-1.059a1.466 1.466 0 0 1 1.079-.431c.239 0 .491.09.755.269.263.18.401.497.413.952.312-.335.599-.826.863-1.472s.509-1.406.737-2.28c.228-.886.437-1.843.629-2.873.204-1.041.384-2.118.539-3.231l-.143-.18h-1.708Zm21.274 7.989h-.63c-.563.946-1.24 1.646-2.031 2.101a4.81 4.81 0 0 1-2.463.682h-1.258l-.18-.179.719-5.117h.953c.515 0 .947.179 1.294.539.36.347.498.825.414 1.436h.629l.647-4.578h-.629c-.084.61-.354 1.095-.809 1.454-.455.347-.941.521-1.456.521h-.953l.665-4.668.18-.18h.935c.575 0 1.102.072 1.582.216.479.143.899.389 1.258.736.36.347.635.838.827 1.472l.629-.18-.252-2.872h-9.005l-.09.628h.97l.18.18-1.474 10.413-.18.179h-1.006l-.09.628h9.365l1.259-3.411Zm10.644-8.617h5.123l-.09.628h-1.006l-.18.18-1.474 10.413.179.179h.971l-.09.628h-5.123l.09-.628h1.007l.179-.179.719-5.117h-4.763l-.719 5.117.18.179h.97l-.09.628h-5.123l.09-.628h1.007l.18-.179 1.474-10.413-.18-.18h-.971l.09-.628h5.123l-.09.628h-1.024l-.162.18-.665 4.668h4.763l.665-4.668-.179-.18h-.971l.09-.628Zm9.687 9.791-.203 1.43.18.179h.971l-.09.628h-5.123l.09-.628h1.006l.18-.179 1.474-10.413-.18-.18h-.97l.09-.628h5.123l-.09.628h-1.007l-.179.18-1.076 7.6 5.704-6.644.135-.956-.18-.18h-.97l.09-.628h5.123l-.09.628h-1.007l-.18.18-1.474 10.413.18.179h.971l-.09.628h-5.123l.09-.628h1.006l.18-.179 1.143-8.074-5.704 6.644Zm14.459 1.43.203-1.43 5.704-6.644-1.143 8.074-.18.179h-1.007l-.089.628h5.123l.09-.628h-.971l-.18-.179 1.474-10.413.18-.18h1.007l.089-.628h-5.123l-.09.628h.971l.18.18-.136.956-5.704 6.644 1.076-7.6.18-.18h1.007l.089-.628h-5.123l-.09.628h.971l.18.18-1.474 10.413-.18.179h-1.007l-.089.628h5.123l.09-.628h-.971l-.18-.179Zm4.063-12.011c-.396 0-.797-.054-1.205-.162a2.645 2.645 0 0 1-1.006-.502c-.264-.228-.396-.527-.396-.898a.92.92 0 0 1 .378-.772c.251-.191.515-.287.791-.287a.83.83 0 0 1 .611.233.74.74 0 0 1 .234.539c0 .191-.06.359-.18.502a.875.875 0 0 1-.414.306c.132.179.3.311.504.395.215.083.473.125.773.125.287 0 .569-.042.845-.125.275-.084.479-.216.611-.395a.57.57 0 0 1-.324-.27.792.792 0 0 1-.09-.359c0-.263.108-.484.324-.664.228-.191.479-.287.755-.287.239 0 .449.078.629.233a.68.68 0 0 1 .27.557c0 .395-.168.73-.504 1.005a3.464 3.464 0 0 1-1.222.628 5.208 5.208 0 0 1-1.384.198Zm20.255 11.49c-.707.407-1.426.61-2.157.61-.767 0-1.378-.203-1.833-.61-.456-.419-.785-.976-.989-1.67-.204-.694-.305-1.46-.305-2.298 0-.838.089-1.627.269-2.37.18-.742.444-1.4.791-1.974.348-.575.779-1.024 1.294-1.347a3.164 3.164 0 0 1 1.762-.503c.396 0 .761.072 1.097.216.347.132.659.341.934.628.276.287.528.665.755 1.131.228.455.42 1.012.576 1.67l.611-.18a26.452 26.452 0 0 1 0-1.956c.036-.755.072-1.437.108-2.047h-.63l-.341.538a5.986 5.986 0 0 0-1.204-.502c-.468-.144-1.037-.216-1.708-.216-1.007 0-1.954.18-2.84.539a7.218 7.218 0 0 0-2.319 1.472 6.849 6.849 0 0 0-1.564 2.226c-.372.85-.558 1.778-.558 2.783 0 1.089.222 2.041.666 2.855a4.832 4.832 0 0 0 1.869 1.867c.803.431 1.726.646 2.768.646h.018c1.103 0 2.11-.239 3.02-.718.911-.479 1.744-1.191 2.499-2.137l-.539-.412c-.659.766-1.342 1.352-2.05 1.759Zm19.194 1.508c-1.043 0-1.912-.198-2.607-.592a3.925 3.925 0 0 1-1.582-1.742c-.347-.766-.521-1.694-.521-2.783 0-.336.018-.665.054-.987h-1.235l-.724 5.117.179.179h.971l-.09.628h-5.123l.09-.628h1.007l.179-.179 1.474-10.413-.179-.18h-.971l.09-.628h5.123l-.09.628h-1.007l-.179.18-.661 4.668h1.239c.077-.407.184-.802.32-1.185a7.257 7.257 0 0 1 1.331-2.316 6.35 6.35 0 0 1 2.103-1.58c.827-.383 1.744-.575 2.75-.575 1.043 0 1.912.204 2.607.611.695.395 1.216.975 1.564 1.741.359.754.539 1.676.539 2.765 0 .993-.156 1.927-.467 2.801a7.103 7.103 0 0 1-1.349 2.316 6.125 6.125 0 0 1-2.103 1.579c-.815.383-1.726.575-2.732.575Zm.395-.718c.444 0 .839-.15 1.187-.449.347-.299.653-.694.916-1.185.264-.503.48-1.053.648-1.652.179-.61.311-1.232.395-1.867.096-.634.144-1.226.144-1.777 0-1.245-.186-2.226-.557-2.944-.36-.719-.887-1.078-1.582-1.078-.444 0-.839.15-1.187.449-.347.3-.653.7-.916 1.203a8.627 8.627 0 0 0-.666 1.652 15.498 15.498 0 0 0-.395 1.849 13.304 13.304 0 0 0-.126 1.777c0 1.233.18 2.215.539 2.945.372.718.905 1.077 1.6 1.077Zm16.761-9.731c.347.395.617.94.809 1.634l.629-.18-.27-3.213h-8.718l-.09.628h.971l.179.18-1.474 10.413-.179.179h-1.007l-.09.628h6.022c.959 0 1.816-.167 2.571-.502.766-.335 1.366-.796 1.797-1.383.444-.586.665-1.25.665-1.992 0-.467-.09-.88-.269-1.239a2.426 2.426 0 0 0-.809-.934 3.791 3.791 0 0 0-1.277-.574 6.817 6.817 0 0 0-1.725-.198h-2.068l.63-4.398.179-.18h1.079c.431 0 .857.09 1.276.269.432.168.821.455 1.169.862Zm-3.847 9.641h-1.151l-.179-.179.755-5.386h1.348c.599 0 1.066.227 1.402.682.347.443.521 1.047.521 1.813 0 .91-.245 1.652-.737 2.226-.491.563-1.144.844-1.959.844Zm11.154-.179.203-1.43 5.704-6.644-1.143 8.074-.18.179h-1.006l-.09.628h5.123l.09-.628h-.971l-.18-.179 1.474-10.413.18-.18h1.007l.09-.628h-5.123l-.09.628h.97l.18.18-.135.956-5.704 6.644 1.075-7.6.18-.18h1.007l.09-.628h-5.123l-.09.628h.97l.18.18-1.474 10.413-.18.179h-1.006l-.09.628h5.123l.09-.628h-.971l-.18-.179Zm14.087-11.221-.09.628h1.708l.144.18a60.408 60.408 0 0 1-.54 3.231 43.672 43.672 0 0 1-.629 2.873 18.279 18.279 0 0 1-.737 2.28c-.264.646-.551 1.137-.863 1.472-.012-.455-.15-.772-.413-.952-.264-.179-.516-.269-.755-.269-.432 0-.791.144-1.079.431-.287.275-.431.628-.431 1.059 0 .335.12.635.359.898.24.251.558.377.953.377.527 0 1.001-.174 1.42-.521.42-.359.791-.843 1.115-1.454.335-.61.629-1.304.881-2.082a28.16 28.16 0 0 0 .665-2.442c.191-.85.353-1.694.485-2.531.144-.85.27-1.64.377-2.37l.18-.18h3.254l.18.18-1.474 10.413-.18.179h-1.007l-.09.628h5.123l.09-.628H286l-.18-.179 1.474-10.413.18-.18h1.006l.09-.628h-10.246Zm20.554 8.617h.63l-1.259 3.411h-9.365l.09-.628h1.006l.18-.179 1.474-10.413-.18-.18h-.97l.09-.628h9.006l.251 2.872-.629.18c-.192-.634-.467-1.125-.827-1.472a3.036 3.036 0 0 0-1.258-.736 5.486 5.486 0 0 0-1.582-.216h-.935l-.18.18-.665 4.668h.953c.515 0 1.001-.174 1.456-.521.456-.359.725-.844.809-1.454h.629l-.647 4.578h-.629c.084-.611-.054-1.089-.414-1.436a1.724 1.724 0 0 0-1.294-.539h-.953l-.719 5.117.18.179h1.258a4.81 4.81 0 0 0 2.463-.682c.791-.455 1.468-1.155 2.031-2.101Zm12.658 0h-.629c-.563.946-1.24 1.646-2.031 2.101a4.81 4.81 0 0 1-2.463.682h-1.258l-.18-.179.719-5.117h.953c.515 0 .946.179 1.294.539.359.347.497.825.413 1.436h.63l.647-4.578h-.629c-.084.61-.354 1.095-.809 1.454-.456.347-.941.521-1.456.521h-.953l.665-4.668.18-.18h.934c.576 0 1.103.072 1.582.216.48.143.899.389 1.259.736.359.347.635.838.827 1.472l.629-.18-.252-2.872h-9.006l-.09.628h.971l.18.18-1.474 10.413-.18.179h-1.007l-.09.628h9.366l1.258-3.411Zm17.367-7.989-.179.18-1.474 10.413.179.179h.971l-.09.628h-5.123l.09-.628h1.007l.179-.179 1.241-8.762h-.09l-5.033 9.569h-1.133l-2.678-9.928h-.09l-1.295 9.121.18.179h1.51l-.09.628h-4.044l.09-.628h1.366l.18-.179 1.474-10.413-.18-.18h-1.33l.09-.628h4.583l2.283 8.438h.09l4.458-8.438H330l-.09.628h-1.007Zm-274.74 20.654h-7.42l-.092.656h1.001l.186.187-1.521 10.866-.186.187h-1.038l-.093.656h5.286l.093-.656h-1.002l-.185-.187 1.52-10.866.186-.187h4.173l.185.187-1.52 10.866-.186.187h-1.038l-.093.656h5.286l.092-.656h-1.001l-.186-.187 1.521-10.866.186-.187h1.038l.093-.656h-5.286Zm15.729 8.992h.649l-1.298 3.56H59.58l.092-.656h1.039l.186-.187 1.52-10.866-.185-.187H61.23l.093-.656h9.292l.26 2.998-.65.187c-.197-.662-.482-1.174-.853-1.536a3.115 3.115 0 0 0-1.298-.768 5.605 5.605 0 0 0-1.632-.225h-.964l-.186.187-.686 4.871h.983c.532 0 1.032-.181 1.502-.543.47-.375.748-.881.835-1.518h.649l-.668 4.777h-.649c.087-.637-.056-1.136-.426-1.498a1.772 1.772 0 0 0-1.336-.562h-.983l-.742 5.339.186.187h1.298c.89 0 1.737-.237 2.54-.712.817-.474 1.516-1.205 2.097-2.192Zm2.005 2.904-.092.656h5.75l.092-.656h-1.465l-.186-.187.65-4.59h2.132c.557 0 1.138-.088 1.744-.262a6.389 6.389 0 0 0 1.688-.806c.531-.35.958-.774 1.28-1.274.32-.512.481-1.099.481-1.761 0-.549-.117-1.011-.352-1.386a2.692 2.692 0 0 0-.964-.937 4.728 4.728 0 0 0-1.41-.524 8.011 8.011 0 0 0-1.67-.169h-6.027l-.093.656h1.002l.185.187-1.52 10.866-.186.187h-1.039Zm6.232-5.433h-1.39l.778-5.62.186-.187h1.224a1.8 1.8 0 0 1 .983.281c.296.175.538.456.723.843.186.387.278.887.278 1.498 0 .725-.13 1.324-.39 1.799-.259.475-.605.824-1.038 1.049-.42.225-.872.337-1.354.337Zm15.127-.468c1.051.087 1.892.387 2.522.899.631.5.946 1.162.946 1.986 0 .649-.16 1.205-.482 1.667a3.865 3.865 0 0 1-1.261 1.143 6.578 6.578 0 0 1-1.67.656 7.662 7.662 0 0 1-1.724.206h-7.14l.092-.656h1.039l.185-.187 1.52-10.866-.184-.187h-1.002l.093-.656h6.398c.582 0 1.138.044 1.67.131.544.088 1.02.238 1.428.45.42.2.748.474.983.824.247.337.37.756.37 1.255 0 .562-.135 1.068-.407 1.518-.272.449-.687.824-1.243 1.124-.556.299-1.267.531-2.133.693Zm-2.912-5.339-.185.187-.705 5.058h1.762c.47 0 .915-.1 1.335-.3.42-.212.76-.53 1.02-.955.272-.425.408-.949.408-1.574 0-.549-.086-.999-.26-1.348a1.71 1.71 0 0 0-.76-.806c-.334-.175-.735-.262-1.205-.262h-1.41Zm.594 11.24c.47 0 .909-.106 1.316-.318.42-.213.76-.525 1.02-.937.26-.425.39-.956.39-1.593 0-.811-.204-1.43-.612-1.854-.408-.425-.866-.637-1.372-.637H89.36l-.705 5.152.186.187h2.096Zm18.404-11.371c-.816-.475-1.811-.712-2.986-.712-1.051 0-2.022.187-2.912.562a7.01 7.01 0 0 0-2.3 1.573 7.001 7.001 0 0 0-1.52 2.323 7.628 7.628 0 0 0-.538 2.885c0 1.099.21 2.074.63 2.923a4.763 4.763 0 0 0 1.873 1.967c.829.462 1.83.693 3.005.693 1.051 0 2.015-.187 2.893-.562a7.106 7.106 0 0 0 2.319-1.555 7.205 7.205 0 0 0 1.521-2.342c.358-.899.537-1.86.537-2.885 0-1.111-.216-2.085-.649-2.922a4.498 4.498 0 0 0-1.873-1.948Zm-3.079 10.978c-.482.324-.989.487-1.521.487-.618 0-1.119-.219-1.502-.656-.383-.437-.661-1.005-.835-1.705a9.652 9.652 0 0 1-.259-2.285c0-.999.111-1.911.334-2.735.222-.837.525-1.555.908-2.155.384-.599.817-1.061 1.299-1.386.482-.337.989-.506 1.521-.506.63 0 1.131.219 1.502.656.383.437.661 1.011.835 1.723.173.7.259 1.455.259 2.267 0 .999-.111 1.917-.334 2.754-.222.824-.525 1.536-.908 2.136-.384.599-.817 1.067-1.299 1.405Zm6.745 1.049.093-.656h1.057l.186-.187 1.483-10.866-.185-.187h-1.002l.093-.656h8.94l.241 2.998-.631.187c-.198-.662-.482-1.174-.853-1.536a3.118 3.118 0 0 0-1.298-.768 5.609 5.609 0 0 0-1.632-.225h-.612l-.186.187-1.484 10.866.186.187h1.465l-.093.656h-5.768Zm22.396-12.027c-.816-.475-1.811-.712-2.986-.712-1.051 0-2.022.187-2.912.562a7.01 7.01 0 0 0-2.3 1.573 7.008 7.008 0 0 0-1.521 2.323 7.637 7.637 0 0 0-.537 2.885c0 1.099.21 2.074.63 2.923a4.765 4.765 0 0 0 1.873 1.967c.829.462 1.83.693 3.005.693 1.051 0 2.016-.187 2.893-.562a7.106 7.106 0 0 0 2.319-1.555 7.205 7.205 0 0 0 1.521-2.342c.358-.899.537-1.86.537-2.885 0-1.111-.216-2.085-.649-2.922a4.498 4.498 0 0 0-1.873-1.948Zm-3.079 10.978c-.482.324-.989.487-1.521.487-.618 0-1.119-.219-1.502-.656-.383-.437-.661-1.005-.834-1.705a9.6 9.6 0 0 1-.26-2.285c0-.999.111-1.911.334-2.735.222-.837.525-1.555.909-2.155.383-.599.816-1.061 1.298-1.386.482-.337.989-.506 1.521-.506.63 0 1.131.219 1.502.656.383.437.661 1.011.835 1.723.173.7.259 1.455.259 2.267 0 .999-.111 1.917-.334 2.754-.222.824-.525 1.536-.908 2.136-.384.599-.816 1.067-1.299 1.405Zm11.182 1.049.092-.656h1.039l.185-.187 1.521-10.866-.185-.187h-1.002l.093-.656h6.028c.581 0 1.137.056 1.669.169a4.727 4.727 0 0 1 1.41.524c.408.238.729.55.964.937.235.375.352.837.352 1.386 0 .662-.16 1.249-.482 1.761-.321.5-.748.924-1.28 1.274a6.378 6.378 0 0 1-1.687.806 6.316 6.316 0 0 1-1.744.262h-2.133l-.649 4.59.186.187h1.465l-.093.656h-5.749Zm4.933-6.089h1.391c.482 0 .934-.112 1.354-.337.433-.225.779-.574 1.039-1.049.259-.475.389-1.074.389-1.799 0-.611-.093-1.111-.278-1.498-.186-.387-.427-.668-.723-.843a1.8 1.8 0 0 0-.983-.281h-1.224l-.186.187-.779 5.62Zm8.969 5.901c.31.25.693.375 1.15.375.433 0 .891-.15 1.373-.45.494-.312 1.008-.761 1.539-1.348a15.73 15.73 0 0 0 1.595-2.136l5.249-8.149h1.02l.093-.656h-3.765l-.093.656h1.539l.186.187-3.505 5.62h-.093l-2.393-5.62.186-.187h1.113l.092-.656h-5.415l-.093.656h1.02l3.784 8.374a11.108 11.108 0 0 1-1.28 1.705c-.416.431-.825.759-1.229.983a.975.975 0 0 0 .097-.197c.075-.2.112-.387.112-.562a.981.981 0 0 0-.353-.786c-.222-.213-.513-.319-.871-.319-.458 0-.829.144-1.113.431-.272.287-.408.643-.408 1.068 0 .424.154.762.463 1.011Zm18.326-.562c.754 0 1.496-.212 2.225-.637.73-.424 1.435-1.036 2.115-1.836l.556.431c-.779.987-1.638 1.73-2.578 2.23-.94.499-1.978.749-3.116.749h-.018c-1.076 0-2.028-.225-2.857-.674a5.02 5.02 0 0 1-1.929-1.949c-.457-.849-.686-1.842-.686-2.978 0-1.049.192-2.017.575-2.904a7.165 7.165 0 0 1 1.614-2.323 7.43 7.43 0 0 1 2.392-1.536 7.653 7.653 0 0 1 2.931-.562c.692 0 1.279.075 1.762.225.482.149.896.324 1.242.524l.353-.562h.649c-.037.637-.074 1.349-.111 2.136a27.677 27.677 0 0 0 0 2.042l-.631.187c-.161-.687-.359-1.268-.593-1.742-.235-.487-.495-.881-.779-1.18a2.605 2.605 0 0 0-.965-.656 2.813 2.813 0 0 0-1.131-.225c-.68 0-1.286.175-1.818.525-.532.337-.977.805-1.335 1.405a7.269 7.269 0 0 0-.816 2.06 10.568 10.568 0 0 0-.279 2.473c0 .874.106 1.674.316 2.398.21.725.55 1.305 1.02 1.742.47.425 1.1.637 1.892.637Zm15.7-.637c-.729.425-1.471.637-2.226.637-.791 0-1.422-.212-1.891-.637-.47-.437-.81-1.017-1.02-1.742-.211-.724-.316-1.524-.316-2.398 0-.874.093-1.698.278-2.473a7.3 7.3 0 0 1 .817-2.06c.358-.6.803-1.068 1.335-1.405a3.23 3.23 0 0 1 1.818-.525c.408 0 .785.075 1.131.225.358.137.68.356.964.656.285.299.544.693.779 1.18.235.474.433 1.055.594 1.742l.63-.187a28.83 28.83 0 0 1 0-2.042c.037-.787.075-1.499.112-2.136h-.649l-.353.562a6.05 6.05 0 0 0-1.243-.524c-.482-.15-1.069-.225-1.761-.225a7.653 7.653 0 0 0-2.931.562 7.42 7.42 0 0 0-2.392 1.536 7.165 7.165 0 0 0-1.614 2.323c-.383.887-.575 1.855-.575 2.904 0 1.136.229 2.129.686 2.978a5.02 5.02 0 0 0 1.929 1.949c.829.449 1.781.674 2.856.674h.019c1.137 0 2.176-.25 3.116-.749.94-.5 1.799-1.243 2.578-2.23l-.557-.431c-.68.8-1.384 1.412-2.114 1.836Zm3.96 1.387.093-.656h1.039l.185-.187 1.521-10.866-.186-.187h-1.001l.093-.656h5.286l-.093.656h-1.039l-.185.187-.669 4.776c.669-.01 1.238-.116 1.707-.317a3.873 3.873 0 0 0 1.243-.825c.346-.349.643-.73.89-1.142.248-.412.482-.825.705-1.237.223-.412.464-.787.723-1.124.26-.349.569-.63.928-.843.358-.212.803-.318 1.335-.318.458 0 .822.131 1.094.393.272.25.408.562.408.937 0 .462-.173.862-.519 1.199-.334.325-.717.487-1.15.487-.309 0-.6-.113-.872-.337-.272-.238-.414-.587-.426-1.049a7.69 7.69 0 0 0-.946 1.292c-.26.437-.519.862-.779 1.274-.26.412-.569.781-.927 1.105a3.453 3.453 0 0 1-.76.514c.226.012.43.034.611.067.272.038.507.15.705.337.21.175.408.475.594.9l1.762 3.99c.173.387.364.637.574.749.211.1.489.175.835.225l-.093.656h-3.876l-2.281-5.208c-.136-.325-.272-.562-.408-.712a.797.797 0 0 0-.482-.281 2.94 2.94 0 0 0-.687-.074l-.76 5.432.185.187h1.002l-.093.656h-5.286Zm25.313-12.027c-.816-.475-1.812-.712-2.986-.712-1.051 0-2.022.187-2.912.562a6.999 6.999 0 0 0-2.3 1.573 7.008 7.008 0 0 0-1.521 2.323 7.619 7.619 0 0 0-.538 2.885c0 1.099.21 2.074.631 2.923a4.759 4.759 0 0 0 1.873 1.967c.828.462 1.83.693 3.005.693 1.051 0 2.015-.187 2.893-.562a7.102 7.102 0 0 0 2.318-1.555 7.172 7.172 0 0 0 1.521-2.342c.359-.899.538-1.86.538-2.885 0-1.111-.216-2.085-.649-2.922a4.503 4.503 0 0 0-1.873-1.948Zm-3.079 10.978c-.482.324-.989.487-1.521.487-.618 0-1.119-.219-1.502-.656-.384-.437-.662-1.005-.835-1.705a9.651 9.651 0 0 1-.26-2.285c0-.999.112-1.911.334-2.735.223-.837.526-1.555.909-2.155.383-.599.816-1.061 1.298-1.386.483-.337.989-.506 1.521-.506.631 0 1.132.219 1.502.656.384.437.662 1.011.835 1.723.173.7.26 1.455.26 2.267 0 .999-.112 1.917-.334 2.754-.223.824-.526 1.536-.909 2.136-.383.599-.816 1.067-1.298 1.405Zm6.745 1.049.093-.656h1.057l.185-.187 1.484-10.866-.186-.187h-1.001l.093-.656h8.939l.241 2.998-.63.187c-.198-.662-.482-1.174-.853-1.536a3.116 3.116 0 0 0-1.299-.768 5.6 5.6 0 0 0-1.632-.225h-.612l-.185.187-1.484 10.866.185.187h1.466l-.093.656h-5.768Zm22.396-12.027c-.816-.475-1.812-.712-2.986-.712-1.051 0-2.022.187-2.912.562a6.999 6.999 0 0 0-2.3 1.573 7.008 7.008 0 0 0-1.521 2.323 7.638 7.638 0 0 0-.538 2.885c0 1.099.21 2.074.631 2.923a4.765 4.765 0 0 0 1.873 1.967c.828.462 1.83.693 3.005.693 1.051 0 2.015-.187 2.893-.562a7.102 7.102 0 0 0 2.318-1.555 7.172 7.172 0 0 0 1.521-2.342c.359-.899.538-1.86.538-2.885 0-1.111-.216-2.085-.649-2.922a4.498 4.498 0 0 0-1.873-1.948Zm-3.079 10.978c-.482.324-.989.487-1.521.487-.618 0-1.119-.219-1.502-.656-.384-.437-.662-1.005-.835-1.705a9.651 9.651 0 0 1-.26-2.285c0-.999.112-1.911.334-2.735.223-.837.526-1.555.909-2.155.383-.599.816-1.061 1.298-1.386.483-.337.99-.506 1.521-.506.631 0 1.132.219 1.503.656.383.437.661 1.011.834 1.723.173.7.26 1.455.26 2.267 0 .999-.111 1.917-.334 2.754-.223.824-.526 1.536-.909 2.136-.383.599-.816 1.067-1.298 1.405Zm23.533-11.503.279 3.353-.631.188c-.198-.725-.482-1.293-.853-1.705-.359-.425-.761-.724-1.206-.899a3.405 3.405 0 0 0-1.335-.281l-1.539 11.053.185.187h1.002l-.093.656h-5.286l.093-.656h1.038l.186-.187 1.539-11.053c-.445 0-.915.093-1.409.281-.483.175-.965.474-1.447.899-.47.412-.903.98-1.298 1.705l-.594-.188 1.206-3.353h10.163Zm11.559 8.992h-.649c-.581.987-1.28 1.718-2.096 2.192a4.92 4.92 0 0 1-2.541.712h-1.298l-.186-.187.742-5.339h.983c.532 0 .977.187 1.336.562.371.362.513.861.426 1.498h.649l.668-4.777h-.649c-.087.637-.365 1.143-.835 1.518-.47.362-.97.543-1.502.543h-.983l.686-4.871.186-.187h.964a5.6 5.6 0 0 1 1.632.225c.495.149.928.405 1.299.768.37.362.655.874.853 1.536l.649-.187-.26-2.998h-9.292l-.093.656h1.002l.185.187-1.52 10.866-.186.187h-1.039l-.092.656h9.663l1.298-3.56Zm4.305 3.56h-3.802l.093-.656h1.076l6.51-11.896h1.298l3.153 11.896h1.076l-.093.656h-5.49l.093-.656h1.094l.186-.187-.837-3.279h-4.207l-1.782 3.279.186.187h1.539l-.093.656Zm3.042-9.274 1.148 4.497h-3.684l2.443-4.497h.093Zm18.464.075-.278-3.353h-10.164l-1.205 3.353.593.188c.396-.725.829-1.293 1.299-1.705.482-.425.964-.724 1.446-.899a3.971 3.971 0 0 1 1.41-.281l-1.54 11.053-.185.187h-1.039l-.092.656h5.286l.092-.656h-1.001l-.186-.187 1.54-11.053c.445 0 .89.093 1.335.281.445.175.847.474 1.206.899.371.412.655.98.853 1.705l.63-.188Zm.319 9.199.093-.656h1.039l.185-.187 1.521-10.866-.185-.187h-1.002l.093-.656h6.028c.581 0 1.137.056 1.669.169a4.731 4.731 0 0 1 1.409.524c.408.238.73.55.965.937.235.375.352.837.352 1.386 0 .662-.161 1.249-.482 1.761-.322.5-.748.924-1.28 1.274a6.384 6.384 0 0 1-1.688.806 6.31 6.31 0 0 1-1.743.262h-2.133l-.649 4.59.185.187h1.466l-.093.656h-5.75Zm4.934-6.089h1.391c.482 0 .933-.112 1.354-.337.433-.225.779-.574 1.038-1.049.26-.475.39-1.074.39-1.799 0-.611-.093-1.111-.278-1.498-.186-.387-.427-.668-.724-.843a1.796 1.796 0 0 0-.983-.281h-1.224l-.185.187-.779 5.62Zm6.948 6.089h3.802l.092-.656h-1.539l-.185-.187 1.781-3.279h4.207l.837 3.279-.186.187h-1.094l-.093.656h5.49l.093-.656h-1.076l-3.153-11.896h-1.298l-6.51 11.896h-1.076l-.092.656Zm7.991-4.777-1.148-4.497h-.092l-2.444 4.497h3.684Z" clip-rule="evenodd"/></g><defs><clipPath id="clip0_700_51"><path fill="#fff" d="M0 0h375v720H0z"/></clipPath></defs></svg>