<svg xmlns="http://www.w3.org/2000/svg" width="60" height="60" fill="none" viewBox="0 0 60 60">
    <path fill="#0B1E3A" d="m25.756 10.792 18.636 17.73c.22.212.377.44.469.686.093.247.139.51.139.792 0 .281-.046.545-.14.792a1.834 1.834 0 0 1-.468.686L25.756 49.26c-.516.493-1.162.739-1.936.739a2.782 2.782 0 0 1-1.99-.792c-.553-.527-.83-1.143-.83-1.846 0-.704.276-1.32.83-1.848L38.087 30 21.829 14.486a2.416 2.416 0 0 1-.774-1.82c0-.722.277-1.347.83-1.874.553-.528 1.198-.792 1.935-.792.738 0 1.383.264 1.936.792Z"/>
</svg>
