<svg width="375" height="720" viewBox="0 0 375 720" fill="none" xmlns="http://www.w3.org/2000/svg">
<g clip-path="url(#clip0_700_51)">
<path fill-rule="evenodd" clip-rule="evenodd" d="M375 0H0V720H375V0ZM50.7896 375.986C47.9224 380.95 45.9925 386.797 45 393.527H121.919L134.821 357.949H129.032C126.936 362.03 124.51 365.119 121.753 367.216C119.107 369.201 115.688 370.525 111.498 371.187C107.417 371.739 102.179 372.014 95.7829 372.014H62.2033C65.7322 367.05 70.0331 362.858 75.1058 359.438C80.2889 355.908 85.8028 352.764 91.6475 350.006C97.4922 347.248 103.227 344.6 108.851 342.062C114.475 339.415 119.603 336.602 124.235 333.623C128.866 330.534 132.561 326.949 135.318 322.867C138.185 318.674 139.618 313.655 139.618 307.808C139.618 301.851 138.24 297.107 135.483 293.577C132.726 290.046 129.307 287.399 125.227 285.633C121.147 283.758 116.956 282.544 112.655 281.993C108.355 281.331 104.66 281 101.573 281C92.3092 281 84.314 282.544 77.5871 285.633C70.9704 288.722 65.8425 292.749 62.2033 297.714C58.6744 302.678 56.91 307.973 56.91 313.6C56.91 318.344 58.0679 321.763 60.3838 323.86C62.6996 325.956 65.4014 327.004 68.4892 327.004C72.5695 327.004 76.0983 325.57 79.0758 322.701C82.1636 319.723 83.7075 316.192 83.7075 312.11C83.7075 308.249 82.329 305.326 79.5721 303.34C76.8151 301.354 73.3414 300.692 69.1508 301.354C71.7975 297.162 75.7124 293.852 80.8954 291.425C86.1888 288.888 91.3718 287.619 96.4446 287.619C100.304 287.619 103.447 288.391 105.873 289.936C108.299 291.37 110.119 293.466 111.332 296.224C112.545 298.872 113.152 302.126 113.152 305.988C113.152 311.724 111.994 316.799 109.678 321.212C107.472 325.514 104.495 329.376 100.745 332.796C97.1063 336.215 92.9708 339.47 88.3392 342.559C83.8178 345.538 79.1861 348.682 74.4442 351.991C69.8125 355.191 65.4014 358.721 61.2108 362.582C57.1306 366.443 53.6568 370.911 50.7896 375.986ZM233.929 301.354C236.355 295.728 238.065 289.495 239.057 282.655H165.612L153.206 316.578L158.499 318.233C160.594 314.041 162.965 310.952 165.612 308.966C168.369 306.98 171.732 305.712 175.702 305.16C179.783 304.498 184.855 304.167 190.921 304.167H225.327C221.799 311.89 217.608 318.564 212.756 324.191C208.014 329.707 203.106 334.726 198.034 339.249C193.071 343.662 188.384 347.965 183.973 352.157C179.672 356.349 176.199 360.872 173.552 365.726C170.905 370.47 169.582 376.041 169.582 382.44C169.582 385.639 170.409 388.563 172.063 391.21C173.828 393.858 176.75 395.182 180.83 395.182C185.683 395.182 189.432 393.582 192.079 390.383C194.725 387.073 196.104 383.543 196.214 379.792C196.435 373.063 197.427 366.94 199.192 361.424C201.066 355.908 203.437 350.723 206.305 345.868C209.282 340.904 212.425 336.105 215.733 331.472C219.152 326.838 222.46 322.094 225.658 317.24C228.856 312.276 231.613 306.98 233.929 301.354ZM327.023 304.167H264.33L258.375 330.313C261.132 328.438 264.66 326.783 268.961 325.349C273.262 323.804 278.886 323.032 285.834 323.032C298.957 323.032 308.772 325.9 315.278 331.637C321.895 337.374 325.203 344.82 325.203 353.977C325.203 362.141 322.832 369.367 318.09 375.655C313.348 381.833 307.007 386.632 299.067 390.052C291.127 393.472 282.415 395.182 272.931 395.182C265.102 395.182 258.705 394.079 253.743 391.872C248.891 389.666 245.307 386.797 242.991 383.267C240.675 379.627 239.517 375.876 239.517 372.014C239.517 367.05 241.061 362.968 244.149 359.769C247.237 356.57 250.821 354.97 254.901 354.97C258.319 354.97 261.076 356.073 263.172 358.28C265.267 360.486 266.315 363.244 266.315 366.554C266.315 370.305 264.991 373.614 262.345 376.482C259.698 379.241 256.279 380.62 252.089 380.62C254.294 383.378 257.217 385.418 260.856 386.742C264.495 387.956 268.079 388.563 271.608 388.563C277.784 388.563 282.801 387.128 286.661 384.26C290.521 381.281 293.333 377.255 295.097 372.18C296.972 367.105 297.909 361.479 297.909 355.301C297.909 350.447 297.303 346.089 296.09 342.228C294.987 338.367 293.112 335.333 290.465 333.126C287.929 330.81 284.4 329.651 279.879 329.651C276.681 329.651 272.821 330.368 268.3 331.803C263.778 333.237 259.147 336.215 254.405 340.739L249.608 339.415L262.345 282.655H330L327.023 304.167ZM53.8801 403.979H51.8129H48.9188H46.6897L46.5999 404.607H47.5706L47.7503 404.787L46.2763 415.2L46.0965 415.379H45.0899L45 416.007H50.1232L50.213 415.379H49.2423L49.0626 415.2L50.5366 404.787L50.7164 404.607H51.723H53.7903H54.761L54.9407 404.787L53.4667 415.2L53.2869 415.379H52.2803L52.1904 416.007H57.3136L57.4034 415.379H56.4327L56.253 415.2L57.727 404.787L57.9068 404.607H58.9134L59.0033 403.979H55.5699H53.8801ZM67.3279 403.799C68.4664 403.799 69.4311 404.027 70.222 404.482C71.0249 404.924 71.6301 405.547 72.0376 406.349C72.457 407.151 72.6668 408.084 72.6668 409.149C72.6668 410.131 72.493 411.052 72.1455 411.914C71.7979 412.764 71.3066 413.512 70.6714 414.158C70.0363 414.793 69.2873 415.289 68.4244 415.648C67.5736 416.007 66.6388 416.187 65.6202 416.187C64.4817 416.187 63.511 415.966 62.7081 415.523C61.9171 415.068 61.3119 414.44 60.8925 413.638C60.485 412.824 60.2813 411.89 60.2813 410.837C60.2813 409.844 60.4551 408.922 60.8026 408.072C61.1501 407.222 61.6415 406.48 62.2766 405.846C62.9118 405.2 63.6548 404.697 64.5057 404.338C65.3685 403.979 66.3092 403.799 67.3279 403.799ZM65.764 415.469C66.2793 415.469 66.7706 415.313 67.238 415.002C67.7054 414.679 68.1248 414.23 68.4963 413.656C68.8678 413.081 69.1614 412.399 69.3772 411.609C69.5929 410.807 69.7007 409.927 69.7007 408.97C69.7007 408.192 69.6168 407.468 69.4491 406.797C69.2813 406.115 69.0116 405.565 68.6401 405.146C68.2806 404.727 67.7953 404.517 67.1841 404.517C66.6688 404.517 66.1774 404.679 65.71 405.002C65.2427 405.313 64.8232 405.756 64.4517 406.331C64.0802 406.905 63.7866 407.593 63.5709 408.395C63.3552 409.185 63.2473 410.059 63.2473 411.016C63.2473 411.794 63.3312 412.525 63.499 413.207C63.6668 413.877 63.9364 414.422 64.3079 414.84C64.6794 415.259 65.1648 415.469 65.764 415.469ZM81.8646 410.155C81.3013 409.915 80.6063 409.754 79.7794 409.67C80.6422 409.526 81.3912 409.317 82.0264 409.042C82.6615 408.754 83.1528 408.389 83.5004 407.946C83.8479 407.504 84.0217 406.971 84.0217 406.349C84.0217 405.858 83.8959 405.451 83.6442 405.128C83.4045 404.805 83.0869 404.547 82.6915 404.356C82.296 404.152 81.8706 404.009 81.4152 403.925C80.9598 403.841 80.5224 403.799 80.1029 403.799C79.5037 403.799 78.9165 403.889 78.3413 404.069C77.766 404.236 77.2447 404.482 76.7774 404.805C76.322 405.128 75.9565 405.505 75.6808 405.936C75.4172 406.367 75.2854 406.833 75.2854 407.336C75.2854 407.707 75.4052 408.012 75.6449 408.252C75.8846 408.491 76.1782 408.611 76.5257 408.611C76.9691 408.611 77.3526 408.455 77.6762 408.144C78.0117 407.833 78.1795 407.456 78.1795 407.013C78.1795 406.594 78.0357 406.277 77.7481 406.061C77.4724 405.834 77.1249 405.756 76.7055 405.828C77.053 405.409 77.4545 405.086 77.9099 404.859C78.3772 404.631 78.8626 404.517 79.3659 404.517C79.9771 404.517 80.4205 404.691 80.6961 405.038C80.9837 405.385 81.1276 405.84 81.1276 406.403C81.1276 406.786 81.0736 407.157 80.9658 407.516C80.8699 407.875 80.7081 408.198 80.4804 408.485C80.2527 408.772 79.9531 409 79.5816 409.167C79.2101 409.335 78.7547 409.419 78.2154 409.419L78.1256 410.047C78.7967 410.047 79.312 410.161 79.6715 410.388C80.043 410.604 80.3007 410.885 80.4445 411.232C80.5883 411.579 80.6602 411.944 80.6602 412.327C80.6602 413.332 80.3965 414.11 79.8692 414.661C79.3419 415.2 78.6109 415.469 77.6762 415.469C77.2567 415.469 76.8792 415.409 76.5437 415.289C76.2081 415.158 75.9025 414.99 75.6269 414.787C76.0823 414.787 76.4538 414.637 76.7414 414.338C77.029 414.027 77.1728 413.668 77.1728 413.261C77.1728 412.902 77.059 412.602 76.8313 412.363C76.6036 412.124 76.304 412.004 75.9325 412.004C75.5011 412.004 75.1116 412.177 74.764 412.525C74.4285 412.86 74.2607 413.291 74.2607 413.817C74.2607 414.296 74.4225 414.715 74.7461 415.074C75.0816 415.421 75.543 415.696 76.1302 415.9C76.7174 416.091 77.4005 416.187 78.1795 416.187C78.8506 416.187 79.5037 416.115 80.1389 415.972C80.786 415.828 81.3672 415.606 81.8825 415.307C82.4098 415.008 82.8293 414.625 83.1409 414.158C83.4525 413.691 83.6082 413.135 83.6082 412.489C83.6082 411.95 83.4584 411.489 83.1588 411.106C82.8712 410.711 82.4398 410.394 81.8646 410.155ZM84.2066 419.688L84.8178 415.379H86.0402C86.3158 414.817 86.5795 414.122 86.8311 413.297C87.0828 412.459 87.3225 411.555 87.5502 410.586C87.7899 409.616 87.9996 408.635 88.1794 407.641C88.3711 406.636 88.5329 405.684 88.6647 404.787L88.4849 404.607H86.7772L86.8671 403.979H97.2932L97.2033 404.607H96.1966L96.0169 404.787L94.5428 415.2L94.7046 415.379H95.6933L95.1001 419.688H94.5069C94.5668 418.91 94.5309 418.246 94.399 417.695C94.2792 417.144 94.0515 416.726 93.716 416.438C93.3924 416.151 92.943 416.007 92.3678 416.007H87.9636C87.1008 416.007 86.4177 416.325 85.9144 416.959C85.423 417.605 85.0515 418.515 84.7999 419.688H84.2066ZM86.8851 415.379H91.5588L91.7566 415.2L93.2306 404.787L93.0508 404.607H89.6534L89.4736 404.787C89.3658 405.469 89.2339 406.271 89.0781 407.192C88.9224 408.114 88.7366 409.072 88.5209 410.065C88.3052 411.058 88.0595 412.016 87.7839 412.937C87.5082 413.859 87.2086 414.673 86.8851 415.379ZM97.7153 415.379L97.6255 416.007H103.198L103.288 415.379H101.868L101.688 415.2L102.317 410.801H104.384C104.924 410.801 105.487 410.717 106.074 410.55C106.661 410.37 107.207 410.113 107.71 409.778C108.225 409.443 108.639 409.036 108.95 408.557C109.262 408.066 109.418 407.504 109.418 406.869C109.418 406.343 109.304 405.9 109.076 405.541C108.848 405.17 108.537 404.871 108.141 404.643C107.746 404.416 107.291 404.248 106.775 404.14C106.26 404.033 105.721 403.979 105.157 403.979H99.3152L99.2253 404.607H100.196L100.376 404.787L98.9017 415.2L98.722 415.379H97.7153ZM103.755 410.173H102.407L103.162 404.787L103.342 404.607H104.528C104.876 404.607 105.193 404.697 105.481 404.876C105.769 405.044 106.002 405.313 106.182 405.684C106.362 406.055 106.452 406.534 106.452 407.121C106.452 407.815 106.326 408.389 106.074 408.844C105.823 409.299 105.487 409.634 105.068 409.85C104.66 410.065 104.223 410.173 103.755 410.173ZM113.006 416.007H109.321L109.411 415.379H110.453L116.763 403.979H118.021L121.077 415.379H122.12L122.03 416.007H116.709L116.799 415.379H117.859L118.039 415.2L117.228 412.058H113.151L111.424 415.2L111.604 415.379H113.096L113.006 416.007ZM115.954 407.121L117.066 411.429H113.496L115.864 407.121H115.954ZM134.386 410.586C133.775 410.095 132.96 409.808 131.941 409.724C132.78 409.568 133.469 409.347 134.009 409.06C134.548 408.772 134.949 408.413 135.213 407.982C135.477 407.552 135.608 407.067 135.608 406.528C135.608 406.049 135.489 405.648 135.249 405.325C135.021 404.99 134.704 404.727 134.296 404.535C133.901 404.332 133.439 404.188 132.912 404.105C132.397 404.021 131.857 403.979 131.294 403.979H125.093L125.003 404.607H125.973L126.153 404.787L124.679 415.2L124.499 415.379H123.493L123.403 416.007H130.324C130.863 416.007 131.42 415.942 131.995 415.81C132.583 415.666 133.122 415.457 133.613 415.182C134.116 414.894 134.524 414.529 134.836 414.086C135.147 413.644 135.303 413.111 135.303 412.489C135.303 411.699 134.997 411.064 134.386 410.586ZM128.939 404.787L129.119 404.607H130.485C130.941 404.607 131.33 404.691 131.654 404.859C131.977 405.026 132.223 405.283 132.391 405.631C132.559 405.966 132.642 406.397 132.642 406.923C132.642 407.522 132.511 408.024 132.247 408.431C131.995 408.838 131.666 409.143 131.258 409.347C130.851 409.538 130.419 409.634 129.964 409.634H128.256L128.939 404.787ZM130.971 415.074C130.575 415.277 130.15 415.379 129.694 415.379H127.663L127.483 415.2L128.166 410.262H130.413C130.905 410.262 131.348 410.466 131.744 410.873C132.139 411.28 132.337 411.872 132.337 412.65C132.337 413.261 132.211 413.769 131.959 414.176C131.708 414.571 131.378 414.87 130.971 415.074ZM140.198 404.607L140.288 403.979H145.411H147.838H150.534L150.444 404.607H149.438L149.258 404.787L147.784 415.2L147.964 415.379H148.934L148.844 416.007H143.721L143.811 415.379H144.818L144.998 415.2L146.472 404.787L146.292 404.607H145.321H143.038L142.858 404.787C142.751 405.517 142.625 406.307 142.481 407.157C142.349 407.994 142.187 408.838 141.996 409.688C141.804 410.538 141.582 411.352 141.33 412.13C141.079 412.908 140.785 413.602 140.45 414.212C140.126 414.823 139.755 415.307 139.335 415.666C138.916 416.013 138.442 416.187 137.915 416.187C137.52 416.187 137.202 416.061 136.962 415.81C136.723 415.547 136.603 415.247 136.603 414.912C136.603 414.481 136.747 414.128 137.034 413.853C137.322 413.566 137.681 413.422 138.113 413.422C138.352 413.422 138.604 413.512 138.868 413.691C139.131 413.871 139.269 414.188 139.281 414.643C139.593 414.308 139.88 413.817 140.144 413.171C140.408 412.525 140.653 411.765 140.881 410.891C141.109 410.005 141.318 409.048 141.51 408.018C141.714 406.977 141.894 405.9 142.049 404.787L141.906 404.607H140.198ZM161.472 412.596H160.842C160.279 413.542 159.602 414.242 158.811 414.697C158.032 415.152 157.211 415.379 156.348 415.379H155.09L154.91 415.2L155.629 410.083H156.582C157.097 410.083 157.529 410.262 157.876 410.622C158.236 410.969 158.374 411.447 158.29 412.058H158.919L159.566 407.48H158.937C158.853 408.09 158.583 408.575 158.128 408.934C157.673 409.281 157.187 409.455 156.672 409.455H155.719L156.384 404.787L156.564 404.607H157.499C158.074 404.607 158.601 404.679 159.081 404.823C159.56 404.966 159.98 405.212 160.339 405.559C160.699 405.906 160.974 406.397 161.166 407.031L161.795 406.851L161.543 403.979H152.538L152.448 404.607H153.418L153.598 404.787L152.124 415.2L151.944 415.379H150.938L150.848 416.007H160.213L161.472 412.596ZM172.116 403.979H177.239L177.149 404.607H176.143L175.963 404.787L174.489 415.2L174.668 415.379H175.639L175.549 416.007H170.426L170.516 415.379H171.523L171.702 415.2L172.421 410.083H167.658L166.939 415.2L167.119 415.379H168.089L167.999 416.007H162.876L162.966 415.379H163.973L164.153 415.2L165.627 404.787L165.447 404.607H164.476L164.566 403.979H169.689L169.599 404.607H168.575L168.413 404.787L167.748 409.455H172.511L173.176 404.787L172.997 404.607H172.026L172.116 403.979ZM181.803 413.77L181.6 415.2L181.78 415.379H182.751L182.661 416.007H177.538L177.628 415.379H178.634L178.814 415.2L180.288 404.787L180.108 404.607H179.138L179.228 403.979H184.351L184.261 404.607H183.254L183.075 404.787L181.999 412.387L187.703 405.743L187.838 404.787L187.658 404.607H186.688L186.778 403.979H191.901L191.811 404.607H190.804L190.624 404.787L189.15 415.2L189.33 415.379H190.301L190.211 416.007H185.088L185.178 415.379H186.184L186.364 415.2L187.507 407.126L181.803 413.77ZM196.262 415.2L196.465 413.77L202.169 407.126L201.026 415.2L200.846 415.379H199.839L199.75 416.007H204.873L204.963 415.379H203.992L203.812 415.2L205.286 404.787L205.466 404.607H206.473L206.562 403.979H201.439L201.349 404.607H202.32L202.5 404.787L202.364 405.743L196.66 412.387L197.736 404.787L197.916 404.607H198.923L199.012 403.979H193.889L193.799 404.607H194.77L194.95 404.787L193.476 415.2L193.296 415.379H192.289L192.2 416.007H197.323L197.413 415.379H196.442L196.262 415.2ZM200.325 403.189C199.929 403.189 199.528 403.135 199.12 403.027C198.725 402.92 198.389 402.752 198.114 402.525C197.85 402.297 197.718 401.998 197.718 401.627C197.718 401.304 197.844 401.047 198.096 400.855C198.347 400.664 198.611 400.568 198.887 400.568C199.138 400.568 199.342 400.646 199.498 400.801C199.654 400.957 199.732 401.136 199.732 401.34C199.732 401.531 199.672 401.699 199.552 401.842C199.444 401.986 199.306 402.088 199.138 402.148C199.27 402.327 199.438 402.459 199.642 402.543C199.857 402.626 200.115 402.668 200.415 402.668C200.702 402.668 200.984 402.626 201.26 402.543C201.535 402.459 201.739 402.327 201.871 402.148C201.715 402.088 201.607 401.998 201.547 401.878C201.487 401.759 201.457 401.639 201.457 401.519C201.457 401.256 201.565 401.035 201.781 400.855C202.009 400.664 202.26 400.568 202.536 400.568C202.775 400.568 202.985 400.646 203.165 400.801C203.345 400.945 203.435 401.13 203.435 401.358C203.435 401.753 203.267 402.088 202.931 402.363C202.596 402.638 202.188 402.848 201.709 402.991C201.23 403.123 200.768 403.189 200.325 403.189ZM220.58 414.679C219.873 415.086 219.154 415.289 218.423 415.289C217.656 415.289 217.045 415.086 216.59 414.679C216.134 414.26 215.805 413.703 215.601 413.009C215.397 412.315 215.296 411.549 215.296 410.711C215.296 409.873 215.385 409.084 215.565 408.341C215.745 407.599 216.009 406.941 216.356 406.367C216.704 405.792 217.135 405.343 217.65 405.02C218.166 404.685 218.753 404.517 219.412 404.517C219.808 404.517 220.173 404.589 220.509 404.733C220.856 404.865 221.168 405.074 221.443 405.361C221.719 405.648 221.971 406.026 222.198 406.492C222.426 406.947 222.618 407.504 222.774 408.162L223.385 407.982C223.361 407.42 223.361 406.768 223.385 406.026C223.421 405.271 223.457 404.589 223.493 403.979H222.863L222.522 404.517C222.186 404.326 221.785 404.158 221.318 404.015C220.85 403.871 220.281 403.799 219.61 403.799C218.603 403.799 217.656 403.979 216.77 404.338C215.895 404.685 215.122 405.176 214.451 405.81C213.792 406.432 213.27 407.174 212.887 408.036C212.515 408.886 212.329 409.814 212.329 410.819C212.329 411.908 212.551 412.86 212.995 413.674C213.45 414.475 214.073 415.098 214.864 415.541C215.667 415.972 216.59 416.187 217.632 416.187H217.65C218.753 416.187 219.76 415.948 220.67 415.469C221.581 414.99 222.414 414.278 223.169 413.332L222.63 412.92C221.971 413.686 221.288 414.272 220.58 414.679ZM239.774 416.187C238.731 416.187 237.862 415.989 237.167 415.595C236.472 415.188 235.945 414.607 235.585 413.853C235.238 413.087 235.064 412.159 235.064 411.07C235.064 410.734 235.082 410.405 235.118 410.083H233.883L233.159 415.2L233.338 415.379H234.309L234.219 416.007H229.096L229.186 415.379H230.193L230.372 415.2L231.846 404.787L231.667 404.607H230.696L230.786 403.979H235.909L235.819 404.607H234.812L234.633 404.787L233.972 409.455H235.211C235.288 409.048 235.395 408.653 235.531 408.27C235.843 407.396 236.286 406.624 236.862 405.954C237.449 405.283 238.15 404.757 238.965 404.374C239.792 403.991 240.709 403.799 241.715 403.799C242.758 403.799 243.627 404.003 244.322 404.41C245.017 404.805 245.538 405.385 245.886 406.151C246.245 406.905 246.425 407.827 246.425 408.916C246.425 409.909 246.269 410.843 245.958 411.717C245.646 412.59 245.197 413.362 244.609 414.033C244.034 414.703 243.333 415.229 242.506 415.612C241.691 415.995 240.78 416.187 239.774 416.187ZM240.169 415.469C240.613 415.469 241.008 415.319 241.356 415.02C241.703 414.721 242.009 414.326 242.272 413.835C242.536 413.332 242.752 412.782 242.92 412.183C243.099 411.573 243.231 410.951 243.315 410.316C243.411 409.682 243.459 409.09 243.459 408.539C243.459 407.294 243.273 406.313 242.902 405.595C242.542 404.876 242.015 404.517 241.32 404.517C240.876 404.517 240.481 404.667 240.133 404.966C239.786 405.266 239.48 405.666 239.217 406.169C238.953 406.66 238.731 407.21 238.551 407.821C238.384 408.419 238.252 409.036 238.156 409.67C238.072 410.292 238.03 410.885 238.03 411.447C238.03 412.68 238.21 413.662 238.569 414.392C238.941 415.11 239.474 415.469 240.169 415.469ZM256.93 405.738C257.277 406.133 257.547 406.678 257.739 407.372L258.368 407.192L258.098 403.979H254.503H253.173H249.38L249.29 404.607H250.261L250.44 404.787L248.966 415.2L248.787 415.379H247.78L247.69 416.007H253.712C254.671 416.007 255.528 415.84 256.283 415.505C257.049 415.17 257.649 414.709 258.08 414.122C258.524 413.536 258.745 412.872 258.745 412.13C258.745 411.663 258.655 411.25 258.476 410.891C258.296 410.52 258.026 410.209 257.667 409.957C257.319 409.706 256.894 409.514 256.39 409.383C255.887 409.251 255.312 409.185 254.665 409.185H252.597L253.227 404.787L253.406 404.607H254.413H254.485C254.916 404.607 255.342 404.697 255.761 404.876C256.193 405.044 256.582 405.331 256.93 405.738ZM253.083 415.379H251.932L251.753 415.2L252.508 409.814H253.856C254.455 409.814 254.922 410.041 255.258 410.496C255.605 410.939 255.779 411.543 255.779 412.309C255.779 413.219 255.534 413.961 255.042 414.535C254.551 415.098 253.898 415.379 253.083 415.379ZM264.237 415.2L264.44 413.77L270.144 407.126L269.001 415.2L268.821 415.379H267.815L267.725 416.007H272.848L272.938 415.379H271.967L271.787 415.2L273.261 404.787L273.441 404.607H274.448L274.538 403.979H269.415L269.325 404.607H270.295L270.475 404.787L270.34 405.743L264.636 412.387L265.711 404.787L265.891 404.607H266.898L266.988 403.979H261.865L261.775 404.607H262.745L262.925 404.787L261.451 415.2L261.271 415.379H260.265L260.175 416.007H265.298L265.388 415.379H264.417L264.237 415.2ZM278.324 403.979L278.234 404.607H279.942L280.086 404.787C279.93 405.9 279.75 406.977 279.546 408.018C279.354 409.048 279.145 410.005 278.917 410.891C278.689 411.765 278.444 412.525 278.18 413.171C277.916 413.817 277.629 414.308 277.317 414.643C277.305 414.188 277.167 413.871 276.904 413.691C276.64 413.512 276.388 413.422 276.149 413.422C275.717 413.422 275.358 413.566 275.07 413.853C274.783 414.128 274.639 414.481 274.639 414.912C274.639 415.247 274.759 415.547 274.998 415.81C275.238 416.061 275.556 416.187 275.951 416.187C276.478 416.187 276.952 416.013 277.371 415.666C277.791 415.307 278.162 414.823 278.486 414.212C278.821 413.602 279.115 412.908 279.367 412.13C279.618 411.352 279.84 410.538 280.032 409.688C280.223 408.838 280.385 407.994 280.517 407.157C280.661 406.307 280.787 405.517 280.894 404.787L281.074 404.607H283.357H284.328L284.508 404.787L283.034 415.2L282.854 415.379H281.847L281.757 416.007H286.88L286.97 415.379H286L285.82 415.2L287.294 404.787L287.474 404.607H288.48L288.57 403.979H285.874H283.447H278.324ZM298.878 412.596H299.508L298.249 416.007H288.884L288.974 415.379H289.98L290.16 415.2L291.634 404.787L291.454 404.607H290.484L290.574 403.979H299.58L299.831 406.851L299.202 407.031C299.01 406.397 298.735 405.906 298.375 405.559C298.016 405.212 297.596 404.966 297.117 404.823C296.637 404.679 296.11 404.607 295.535 404.607H294.6L294.42 404.787L293.755 409.455H294.708C295.223 409.455 295.709 409.281 296.164 408.934C296.62 408.575 296.889 408.09 296.973 407.48H297.602L296.955 412.058H296.326C296.41 411.447 296.272 410.969 295.912 410.622C295.565 410.262 295.133 410.083 294.618 410.083H293.665L292.946 415.2L293.126 415.379H294.384C295.247 415.379 296.068 415.152 296.847 414.697C297.638 414.242 298.315 413.542 298.878 412.596ZM311.536 412.596H310.907C310.344 413.542 309.667 414.242 308.876 414.697C308.097 415.152 307.276 415.379 306.413 415.379H305.155L304.975 415.2L305.694 410.083H306.647C307.162 410.083 307.593 410.262 307.941 410.622C308.3 410.969 308.438 411.447 308.354 412.058H308.984L309.631 407.48H309.002C308.918 408.09 308.648 408.575 308.193 408.934C307.737 409.281 307.252 409.455 306.737 409.455H305.784L306.449 404.787L306.629 404.607H307.563C308.139 404.607 308.666 404.679 309.145 404.823C309.625 404.966 310.044 405.212 310.404 405.559C310.763 405.906 311.039 406.397 311.231 407.031L311.86 406.851L311.608 403.979H302.602L302.512 404.607H303.483L303.663 404.787L302.189 415.2L302.009 415.379H301.002L300.912 416.007H310.278L311.536 412.596ZM328.903 404.607L328.724 404.787L327.25 415.2L327.429 415.379H328.4L328.31 416.007H323.187L323.277 415.379H324.284L324.463 415.2L325.704 406.438H325.614L320.581 416.007H319.448L316.77 406.079H316.68L315.385 415.2L315.565 415.379H317.075L316.985 416.007H312.941L313.031 415.379H314.397L314.577 415.2L316.051 404.787L315.871 404.607H314.541L314.631 403.979H319.214L321.497 412.417H321.587L326.045 403.979H330L329.91 404.607H328.903ZM54.1622 425.261H52.0293H49.0432H46.7434L46.6507 425.917H47.6522L47.8377 426.104L46.3168 436.97L46.1314 437.157H45.0927L45 437.813H50.2859L50.3786 437.157H49.3771L49.1916 436.97L50.7125 426.104L50.8979 425.917H51.9366H54.0694H55.071L55.2564 426.104L53.7356 436.97L53.5501 437.157H52.5115L52.4188 437.813H57.7046L57.7974 437.157H56.7958L56.6104 436.97L58.1312 426.104L58.3167 425.917H59.3553L59.4481 425.261H55.9056H54.1622ZM69.8917 434.253H70.5409L69.2426 437.813H59.5796L59.6724 437.157H60.711L60.8965 436.97L62.4173 426.104L62.2318 425.917H61.2303L61.323 425.261H70.615L70.8747 428.259L70.2256 428.446C70.0277 427.784 69.7433 427.272 69.3724 426.91C69.0015 426.547 68.5687 426.291 68.0741 426.142C67.5795 425.992 67.0355 425.917 66.442 425.917H65.4775L65.2921 426.104L64.6058 430.975H65.5888C66.1205 430.975 66.6213 430.794 67.0911 430.432C67.561 430.057 67.8392 429.551 67.9257 428.914H68.5749L67.9072 433.691H67.258C67.3446 433.054 67.2024 432.555 66.8315 432.193C66.4729 431.818 66.0278 431.631 65.4961 431.631H64.5131L63.7712 436.97L63.9567 437.157H65.255C66.1452 437.157 66.9922 436.92 67.7959 436.445C68.612 435.971 69.3106 435.24 69.8917 434.253ZM71.8974 437.157L71.8046 437.813H77.5542L77.6469 437.157H76.1817L75.9963 436.97L76.6454 432.38H78.7783C79.3347 432.38 79.9158 432.292 80.5217 432.118C81.1276 431.93 81.6902 431.662 82.2095 431.312C82.7412 430.962 83.1677 430.538 83.4892 430.038C83.8107 429.526 83.9714 428.939 83.9714 428.277C83.9714 427.728 83.854 427.266 83.619 426.891C83.3841 426.504 83.0626 426.192 82.6546 425.954C82.2466 425.717 81.7767 425.542 81.245 425.43C80.7134 425.317 80.1569 425.261 79.5758 425.261H73.5481L73.4553 425.917H74.4569L74.6423 426.104L73.1215 436.97L72.936 437.157H71.8974ZM78.1292 431.724H76.7381L77.5171 426.104L77.7026 425.917H78.9267C79.2852 425.917 79.6129 426.01 79.9097 426.198C80.2064 426.373 80.4475 426.654 80.633 427.041C80.8185 427.428 80.9112 427.928 80.9112 428.539C80.9112 429.264 80.7814 429.863 80.5217 430.338C80.262 430.813 79.9158 431.162 79.4831 431.387C79.0627 431.612 78.6114 431.724 78.1292 431.724ZM93.2561 431.256C94.307 431.343 95.1478 431.643 95.7784 432.155C96.409 432.655 96.7243 433.317 96.7243 434.141C96.7243 434.79 96.5636 435.346 96.2421 435.808C95.9206 436.27 95.5002 436.651 94.9809 436.951C94.474 437.238 93.9176 437.457 93.3117 437.607C92.7182 437.744 92.1432 437.813 91.5868 437.813H84.4463L84.539 437.157H85.5776L85.7631 436.97L87.2839 426.104L87.0985 425.917H86.0969L86.1897 425.261H92.5884C93.1695 425.261 93.7259 425.305 94.2576 425.392C94.8016 425.48 95.2777 425.63 95.6857 425.842C96.1061 426.042 96.4338 426.316 96.6687 426.666C96.916 427.003 97.0396 427.422 97.0396 427.921C97.0396 428.483 96.9036 428.989 96.6316 429.439C96.3596 429.888 95.9454 430.263 95.3889 430.563C94.8325 430.862 94.1216 431.094 93.2561 431.256ZM90.3442 425.917L90.1587 426.104L89.4539 431.162H91.2159C91.6857 431.162 92.1309 431.062 92.5513 430.862C92.9717 430.65 93.3117 430.332 93.5714 429.907C93.8434 429.482 93.9794 428.958 93.9794 428.333C93.9794 427.784 93.8928 427.334 93.7197 426.985C93.5466 426.622 93.2932 426.354 92.9593 426.179C92.6255 426.004 92.2236 425.917 91.7538 425.917H90.3442ZM90.9377 437.157C91.4075 437.157 91.8465 437.051 92.2545 436.839C92.6749 436.626 93.0149 436.314 93.2746 435.902C93.5343 435.477 93.6641 434.946 93.6641 434.309C93.6641 433.498 93.4601 432.879 93.052 432.455C92.644 432.03 92.1865 431.818 91.6796 431.818H89.3612L88.6564 436.97L88.8419 437.157H90.9377ZM109.342 425.786C108.526 425.311 107.531 425.074 106.356 425.074C105.305 425.074 104.334 425.261 103.444 425.636C102.566 426.01 101.8 426.535 101.144 427.209C100.489 427.871 99.982 428.646 99.6234 429.532C99.2649 430.419 99.0856 431.381 99.0856 432.417C99.0856 433.516 99.2958 434.491 99.7162 435.34C100.149 436.177 100.773 436.832 101.589 437.307C102.418 437.769 103.419 438 104.594 438C105.645 438 106.609 437.813 107.487 437.438C108.378 437.063 109.15 436.545 109.806 435.883C110.461 435.209 110.968 434.428 111.327 433.541C111.685 432.642 111.864 431.681 111.864 430.656C111.864 429.545 111.648 428.571 111.215 427.734C110.795 426.897 110.17 426.248 109.342 425.786ZM106.263 436.764C105.781 437.088 105.274 437.251 104.742 437.251C104.124 437.251 103.623 437.032 103.24 436.595C102.857 436.158 102.579 435.59 102.405 434.89C102.232 434.178 102.146 433.417 102.146 432.605C102.146 431.606 102.257 430.694 102.48 429.87C102.702 429.033 103.005 428.315 103.388 427.715C103.772 427.116 104.205 426.654 104.687 426.329C105.169 425.992 105.676 425.823 106.208 425.823C106.838 425.823 107.339 426.042 107.71 426.479C108.093 426.916 108.371 427.49 108.545 428.202C108.718 428.902 108.804 429.657 108.804 430.469C108.804 431.468 108.693 432.386 108.47 433.223C108.248 434.047 107.945 434.759 107.562 435.359C107.178 435.958 106.745 436.426 106.263 436.764ZM113.008 437.813L113.101 437.157H114.158L114.344 436.97L115.827 426.104L115.642 425.917H114.64L114.733 425.261H123.673L123.914 428.259L123.283 428.446C123.085 427.784 122.801 427.272 122.43 426.91C122.059 426.547 121.626 426.291 121.132 426.142C120.637 425.992 120.093 425.917 119.5 425.917H118.888L118.702 426.104L117.218 436.97L117.404 437.157H118.869L118.776 437.813H113.008ZM135.404 425.786C134.588 425.311 133.593 425.074 132.418 425.074C131.367 425.074 130.396 425.261 129.506 425.636C128.628 426.01 127.862 426.535 127.206 427.209C126.551 427.871 126.044 428.646 125.685 429.532C125.327 430.419 125.148 431.381 125.148 432.417C125.148 433.516 125.358 434.491 125.778 435.34C126.211 436.177 126.835 436.832 127.651 437.307C128.48 437.769 129.481 438 130.656 438C131.707 438 132.672 437.813 133.549 437.438C134.44 437.063 135.212 436.545 135.868 435.883C136.523 435.209 137.03 434.428 137.389 433.541C137.747 432.642 137.926 431.681 137.926 430.656C137.926 429.545 137.71 428.571 137.277 427.734C136.857 426.897 136.232 426.248 135.404 425.786ZM132.325 436.764C131.843 437.088 131.336 437.251 130.804 437.251C130.186 437.251 129.685 437.032 129.302 436.595C128.919 436.158 128.641 435.59 128.468 434.89C128.294 434.178 128.208 433.417 128.208 432.605C128.208 431.606 128.319 430.694 128.542 429.87C128.764 429.033 129.067 428.315 129.451 427.715C129.834 427.116 130.267 426.654 130.749 426.329C131.231 425.992 131.738 425.823 132.27 425.823C132.9 425.823 133.401 426.042 133.772 426.479C134.155 426.916 134.433 427.49 134.607 428.202C134.78 428.902 134.866 429.657 134.866 430.469C134.866 431.468 134.755 432.386 134.532 433.223C134.31 434.047 134.007 434.759 133.624 435.359C133.24 435.958 132.808 436.426 132.325 436.764ZM143.507 437.813L143.599 437.157H144.638L144.823 436.97L146.344 426.104L146.159 425.917H145.157L145.25 425.261H151.278C151.859 425.261 152.415 425.317 152.947 425.43C153.479 425.542 153.949 425.717 154.357 425.954C154.765 426.192 155.086 426.504 155.321 426.891C155.556 427.266 155.673 427.728 155.673 428.277C155.673 428.939 155.513 429.526 155.191 430.038C154.87 430.538 154.443 430.962 153.911 431.312C153.392 431.662 152.83 431.93 152.224 432.118C151.618 432.292 151.037 432.38 150.48 432.38H148.347L147.698 436.97L147.884 437.157H149.349L149.256 437.813H143.507ZM148.44 431.724H149.831C150.313 431.724 150.765 431.612 151.185 431.387C151.618 431.162 151.964 430.813 152.224 430.338C152.483 429.863 152.613 429.264 152.613 428.539C152.613 427.928 152.52 427.428 152.335 427.041C152.149 426.654 151.908 426.373 151.612 426.198C151.315 426.01 150.987 425.917 150.629 425.917H149.405L149.219 426.104L148.44 431.724ZM157.409 437.625C157.719 437.875 158.102 438 158.559 438C158.992 438 159.45 437.85 159.932 437.55C160.426 437.238 160.94 436.789 161.471 436.202C162.003 435.615 162.535 434.903 163.066 434.066L168.315 425.917H169.335L169.428 425.261H165.663L165.57 425.917H167.109L167.295 426.104L163.79 431.724H163.697L161.304 426.104L161.49 425.917H162.603L162.695 425.261H157.28L157.187 425.917H158.207L161.991 434.291C161.57 434.965 161.144 435.533 160.711 435.996C160.295 436.427 159.886 436.755 159.482 436.979C159.521 436.918 159.554 436.852 159.579 436.782C159.654 436.582 159.691 436.395 159.691 436.22C159.691 435.896 159.573 435.633 159.338 435.434C159.116 435.221 158.825 435.115 158.467 435.115C158.009 435.115 157.638 435.259 157.354 435.546C157.082 435.833 156.946 436.189 156.946 436.614C156.946 437.038 157.1 437.376 157.409 437.625ZM175.735 437.063C176.489 437.063 177.231 436.851 177.96 436.426C178.69 436.002 179.395 435.39 180.075 434.59L180.631 435.021C179.852 436.008 178.993 436.751 178.053 437.251C177.113 437.75 176.075 438 174.937 438H174.919C173.843 438 172.891 437.775 172.062 437.326C171.246 436.863 170.603 436.214 170.133 435.377C169.676 434.528 169.447 433.535 169.447 432.399C169.447 431.35 169.639 430.382 170.022 429.495C170.418 428.596 170.956 427.821 171.636 427.172C172.328 426.51 173.126 425.998 174.028 425.636C174.943 425.261 175.92 425.074 176.959 425.074C177.651 425.074 178.238 425.149 178.721 425.299C179.203 425.448 179.617 425.623 179.963 425.823L180.316 425.261H180.965C180.928 425.898 180.891 426.61 180.854 427.397C180.829 428.171 180.829 428.852 180.854 429.439L180.223 429.626C180.062 428.939 179.864 428.358 179.63 427.884C179.395 427.397 179.135 427.003 178.851 426.704C178.566 426.404 178.245 426.185 177.886 426.048C177.54 425.898 177.163 425.823 176.755 425.823C176.075 425.823 175.469 425.998 174.937 426.348C174.405 426.685 173.96 427.153 173.602 427.753C173.243 428.352 172.971 429.039 172.786 429.813C172.6 430.588 172.507 431.412 172.507 432.286C172.507 433.16 172.613 433.96 172.823 434.684C173.033 435.409 173.373 435.989 173.843 436.426C174.313 436.851 174.943 437.063 175.735 437.063ZM191.435 436.426C190.706 436.851 189.964 437.063 189.209 437.063C188.418 437.063 187.787 436.851 187.318 436.426C186.848 435.989 186.508 435.409 186.298 434.684C186.087 433.96 185.982 433.16 185.982 432.286C185.982 431.412 186.075 430.588 186.26 429.813C186.446 429.039 186.718 428.352 187.077 427.753C187.435 427.153 187.88 426.685 188.412 426.348C188.944 425.998 189.549 425.823 190.23 425.823C190.638 425.823 191.015 425.898 191.361 426.048C191.719 426.185 192.041 426.404 192.325 426.704C192.61 427.003 192.869 427.397 193.104 427.884C193.339 428.358 193.537 428.939 193.698 429.626L194.328 429.439C194.304 428.852 194.304 428.171 194.328 427.397C194.365 426.61 194.403 425.898 194.44 425.261H193.791L193.438 425.823C193.092 425.623 192.678 425.448 192.195 425.299C191.713 425.149 191.126 425.074 190.434 425.074C189.395 425.074 188.418 425.261 187.503 425.636C186.6 425.998 185.803 426.51 185.111 427.172C184.431 427.821 183.893 428.596 183.497 429.495C183.114 430.382 182.922 431.35 182.922 432.399C182.922 433.535 183.151 434.528 183.608 435.377C184.078 436.214 184.721 436.863 185.537 437.326C186.366 437.775 187.318 438 188.393 438H188.412C189.549 438 190.588 437.75 191.528 437.251C192.468 436.751 193.327 436.008 194.106 435.021L193.549 434.59C192.869 435.39 192.165 436.002 191.435 436.426ZM195.395 437.813L195.488 437.157H196.527L196.712 436.97L198.233 426.104L198.047 425.917H197.046L197.139 425.261H202.425L202.332 425.917H201.293L201.108 426.104L200.439 430.88C201.108 430.87 201.677 430.764 202.146 430.563C202.641 430.35 203.055 430.076 203.389 429.738C203.735 429.389 204.032 429.008 204.279 428.596C204.527 428.184 204.761 427.771 204.984 427.359C205.207 426.947 205.448 426.572 205.707 426.235C205.967 425.886 206.276 425.605 206.635 425.392C206.993 425.18 207.438 425.074 207.97 425.074C208.428 425.074 208.792 425.205 209.064 425.467C209.336 425.717 209.472 426.029 209.472 426.404C209.472 426.866 209.299 427.266 208.953 427.603C208.619 427.928 208.236 428.09 207.803 428.09C207.494 428.09 207.203 427.977 206.931 427.753C206.659 427.515 206.517 427.166 206.505 426.704C206.134 427.116 205.819 427.547 205.559 427.996C205.299 428.433 205.04 428.858 204.78 429.27C204.52 429.682 204.211 430.051 203.853 430.375C203.639 430.569 203.386 430.74 203.093 430.889C203.319 430.901 203.523 430.923 203.704 430.956C203.976 430.994 204.211 431.106 204.409 431.293C204.619 431.468 204.817 431.768 205.003 432.193L206.765 436.183C206.938 436.57 207.129 436.82 207.339 436.932C207.55 437.032 207.828 437.107 208.174 437.157L208.081 437.813H204.205L201.924 432.605C201.788 432.28 201.652 432.043 201.516 431.893C201.392 431.743 201.231 431.649 201.034 431.612C200.868 431.567 200.64 431.543 200.347 431.538L199.587 436.97L199.772 437.157H200.774L200.681 437.813H195.395ZM220.708 425.786C219.892 425.311 218.896 425.074 217.722 425.074C216.671 425.074 215.7 425.261 214.81 425.636C213.932 426.01 213.165 426.535 212.51 427.209C211.855 427.871 211.348 428.646 210.989 429.532C210.63 430.419 210.451 431.381 210.451 432.417C210.451 433.516 210.661 434.491 211.082 435.34C211.514 436.177 212.139 436.832 212.955 437.307C213.783 437.769 214.785 438 215.96 438C217.011 438 217.975 437.813 218.853 437.438C219.743 437.063 220.516 436.545 221.171 435.883C221.827 435.209 222.334 434.428 222.692 433.541C223.051 432.642 223.23 431.681 223.23 430.656C223.23 429.545 223.014 428.571 222.581 427.734C222.16 426.897 221.536 426.248 220.708 425.786ZM217.629 436.764C217.147 437.088 216.64 437.251 216.108 437.251C215.49 437.251 214.989 437.032 214.606 436.595C214.222 436.158 213.944 435.59 213.771 434.89C213.598 434.178 213.511 433.417 213.511 432.605C213.511 431.606 213.623 430.694 213.845 429.87C214.068 429.033 214.371 428.315 214.754 427.715C215.137 427.116 215.57 426.654 216.052 426.329C216.535 425.992 217.041 425.823 217.573 425.823C218.204 425.823 218.705 426.042 219.075 426.479C219.459 426.916 219.737 427.49 219.91 428.202C220.083 428.902 220.17 429.657 220.17 430.469C220.17 431.468 220.058 432.386 219.836 433.223C219.613 434.047 219.31 434.759 218.927 435.359C218.544 435.958 218.111 436.426 217.629 436.764ZM224.374 437.813L224.467 437.157H225.524L225.709 436.97L227.193 426.104L227.007 425.917H226.006L226.099 425.261H235.038L235.279 428.259L234.649 428.446C234.451 427.784 234.167 427.272 233.796 426.91C233.425 426.547 232.992 426.291 232.497 426.142C232.003 425.992 231.459 425.917 230.865 425.917H230.253L230.068 426.104L228.584 436.97L228.769 437.157H230.235L230.142 437.813H224.374ZM246.77 425.786C245.954 425.311 244.958 425.074 243.784 425.074C242.733 425.074 241.762 425.261 240.872 425.636C239.994 426.01 239.227 426.535 238.572 427.209C237.917 427.871 237.41 428.646 237.051 429.532C236.693 430.419 236.513 431.381 236.513 432.417C236.513 433.516 236.723 434.491 237.144 435.34C237.577 436.177 238.201 436.832 239.017 437.307C239.845 437.769 240.847 438 242.022 438C243.073 438 244.037 437.813 244.915 437.438C245.805 437.063 246.578 436.545 247.233 435.883C247.889 435.209 248.396 434.428 248.754 433.541C249.113 432.642 249.292 431.681 249.292 430.656C249.292 429.545 249.076 428.571 248.643 427.734C248.223 426.897 247.598 426.248 246.77 425.786ZM243.691 436.764C243.209 437.088 242.702 437.251 242.17 437.251C241.552 437.251 241.051 437.032 240.668 436.595C240.284 436.158 240.006 435.59 239.833 434.89C239.66 434.178 239.573 433.417 239.573 432.605C239.573 431.606 239.685 430.694 239.907 429.87C240.13 429.033 240.433 428.315 240.816 427.715C241.199 427.116 241.632 426.654 242.114 426.329C242.597 425.992 243.104 425.823 243.635 425.823C244.266 425.823 244.767 426.042 245.138 426.479C245.521 426.916 245.799 427.49 245.972 428.202C246.145 428.902 246.232 429.657 246.232 430.469C246.232 431.468 246.121 432.386 245.898 433.223C245.675 434.047 245.372 434.759 244.989 435.359C244.606 435.958 244.173 436.426 243.691 436.764ZM267.224 425.261L267.503 428.614L266.872 428.802C266.674 428.077 266.39 427.509 266.019 427.097C265.66 426.672 265.258 426.373 264.813 426.198C264.368 426.01 263.923 425.917 263.478 425.917L261.939 436.97L262.124 437.157H263.126L263.033 437.813H257.747L257.84 437.157H258.878L259.064 436.97L260.603 425.917C260.158 425.917 259.688 426.01 259.194 426.198C258.711 426.373 258.229 426.672 257.747 427.097C257.277 427.509 256.844 428.077 256.449 428.802L255.855 428.614L257.061 425.261H267.224ZM278.783 434.253H278.134C277.553 435.24 276.854 435.971 276.038 436.445C275.234 436.92 274.387 437.157 273.497 437.157H272.199L272.013 436.97L272.755 431.631H273.738C274.27 431.631 274.715 431.818 275.074 432.193C275.445 432.555 275.587 433.054 275.5 433.691H276.149L276.817 428.914H276.168C276.081 429.551 275.803 430.057 275.333 430.432C274.863 430.794 274.363 430.975 273.831 430.975H272.848L273.534 426.104L273.72 425.917H274.684C275.278 425.917 275.822 425.992 276.316 426.142C276.811 426.291 277.244 426.547 277.615 426.91C277.985 427.272 278.27 427.784 278.468 428.446L279.117 428.259L278.857 425.261H269.565L269.472 425.917H270.474L270.659 426.104L269.139 436.97L268.953 437.157H267.914L267.822 437.813H277.485L278.783 434.253ZM283.088 437.813H279.286L279.379 437.157H280.455L286.965 425.261H288.263L291.416 437.157H292.492L292.399 437.813H286.909L287.002 437.157H288.096L288.282 436.97L287.445 433.691H283.238L281.456 436.97L281.642 437.157H283.181L283.088 437.813ZM286.13 428.539L287.278 433.036H283.594L286.037 428.539H286.13ZM304.594 428.614L304.316 425.261H294.152L292.947 428.614L293.54 428.802C293.936 428.077 294.369 427.509 294.839 427.097C295.321 426.672 295.803 426.373 296.285 426.198C296.78 426.01 297.25 425.917 297.695 425.917L296.155 436.97L295.97 437.157H294.931L294.839 437.813H300.125L300.217 437.157H299.216L299.03 436.97L300.57 425.917C301.015 425.917 301.46 426.01 301.905 426.198C302.35 426.373 302.752 426.672 303.111 427.097C303.482 427.509 303.766 428.077 303.964 428.802L304.594 428.614ZM304.913 437.813L305.006 437.157H306.045L306.23 436.97L307.751 426.104L307.566 425.917H306.564L306.657 425.261H312.685C313.266 425.261 313.822 425.317 314.354 425.43C314.885 425.542 315.355 425.717 315.763 425.954C316.171 426.192 316.493 426.504 316.728 426.891C316.963 427.266 317.08 427.728 317.08 428.277C317.08 428.939 316.919 429.526 316.598 430.038C316.276 430.538 315.85 430.962 315.318 431.312C314.799 431.662 314.236 431.93 313.63 432.118C313.025 432.292 312.443 432.38 311.887 432.38H309.754L309.105 436.97L309.29 437.157H310.756L310.663 437.813H304.913ZM309.847 431.724H311.238C311.72 431.724 312.171 431.612 312.592 431.387C313.025 431.162 313.371 430.813 313.63 430.338C313.89 429.863 314.02 429.264 314.02 428.539C314.02 427.928 313.927 427.428 313.742 427.041C313.556 426.654 313.315 426.373 313.018 426.198C312.722 426.01 312.394 425.917 312.035 425.917H310.811L310.626 426.104L309.847 431.724ZM316.795 437.813H320.597L320.689 437.157H319.15L318.965 436.97L320.746 433.691H324.953L325.79 436.97L325.604 437.157H324.51L324.417 437.813H329.907L330 437.157H328.924L325.771 425.261H324.473L317.963 437.157H316.887L316.795 437.813ZM324.786 433.036L323.638 428.539H323.546L321.102 433.036H324.786Z" fill="#0B1E3A" fill-opacity="0.9"/>
</g>
<defs>
<clipPath id="clip0_700_51">
<rect width="375" height="720" fill="white"/>
</clipPath>
</defs>
</svg>
