<svg width="16" height="16" viewBox="0 0 16 16" xmlns="http://www.w3.org/2000/svg">
    <path d="M3.42133 9.02414C3.42133 8.45426 3.56143 7.93829 3.84164 7.47623C4.13659 7.01416 4.53478 6.66762 5.03621 6.43658C4.4463 6.22095 3.65729 6.09004 2.66919 6.04383C2.72818 5.1043 2.98627 4.28029 3.44345 3.57179C3.90063 2.84789 4.52004 2.29341 5.30167 1.90836C6.0833 1.50791 6.97554 1.30768 7.97839 1.30768C9.43842 1.30768 10.6109 1.73124 11.4957 2.57835C12.3806 3.42547 12.823 4.55753 12.823 5.97452V14.8461H10.9427V6.15935C10.9427 5.15821 10.6625 4.365 10.1021 3.77972C9.54165 3.19444 8.78214 2.9018 7.82354 2.9018C7.04191 2.9018 6.34876 3.09432 5.7441 3.47938C5.15419 3.84903 4.74125 4.3573 4.50529 5.00419C5.03621 5.06579 5.53763 5.20441 6.00956 5.42004C6.48149 5.63567 6.84281 5.88211 7.09352 6.15935V6.5752C6.53311 6.74463 6.09067 7.04497 5.76622 7.47623C5.45652 7.89208 5.30167 8.38495 5.30167 8.95483V14.8461H3.42133V9.02414Z"/>
</svg>
