<svg width="1920" height="1080" viewBox="0 0 1920 1080" fill="none" xmlns="http://www.w3.org/2000/svg">
<g clip-path="url(#clip0_700_4)">
<mask id="mask0_700_4" style="mask-type:luminance" maskUnits="userSpaceOnUse" x="0" y="0" width="1920" height="1080">
<path d="M1920 0H0V1080H1920V0Z" fill="white"/>
</mask>
<g mask="url(#mask0_700_4)">
<path fill-rule="evenodd" clip-rule="evenodd" d="M1920 0H0V1080H1920V0ZM631.156 706L813.056 446.389H665.508L676.801 374H921.966L912.084 439.817L728.093 706H631.156ZM357 706L366.882 642.623L480.288 543.005C490.641 533.616 499.111 525.322 505.699 518.124C512.601 510.926 517.62 503.884 520.757 496.998C524.208 490.113 525.933 482.915 525.933 475.403C525.933 465.388 522.326 457.877 515.11 452.869C508.209 447.549 498.797 444.888 486.876 444.888C474.955 444.888 462.564 447.392 449.702 452.4C436.839 457.094 423.664 464.136 410.174 473.525L385.705 409.679C397.312 401.855 409.547 395.282 422.409 389.962C435.585 384.641 449.074 380.729 462.877 378.225C476.994 375.408 491.425 374 506.169 374C526.874 374 545.07 377.756 560.755 385.267C576.754 392.778 588.989 403.107 597.459 416.251C606.243 429.083 610.635 443.949 610.635 460.85C610.635 479.315 607.498 495.746 601.224 510.143C594.95 524.54 586.009 537.998 574.402 546.384C563.108 558.903 549.932 571.578 534.874 584.41L475.48 636.051H597.459L586.166 706H357ZM980.682 701.827C994.534 704.609 1007.77 706 1020.39 706C1045.02 706 1067.49 701.209 1087.81 691.626C1108.43 681.734 1124.9 667.669 1137.22 649.43C1149.84 630.883 1156.15 608.78 1156.15 583.123C1156.15 565.812 1152.61 550.047 1145.53 535.827C1138.45 521.607 1128.13 510.324 1114.59 501.978C1101.35 493.631 1085.19 489.458 1066.11 489.458C1053.79 489.458 1041.48 491.777 1029.17 496.413C1025.19 497.81 1021.35 499.432 1017.63 501.279L1026.86 443.089H1159.38L1170 374H957.594L925.271 578.486H978.373C986.376 571.685 995.15 566.43 1004.69 562.721C1014.54 559.011 1024.24 557.156 1033.78 557.156C1045.79 557.156 1055.64 560.093 1063.34 565.966C1071.34 571.84 1075.34 580.495 1075.34 591.933C1075.34 600.898 1073.03 608.78 1068.41 615.581C1063.8 622.382 1057.33 627.482 1049.02 630.883C1040.71 634.283 1031.17 635.983 1020.39 635.983C1006.54 635.983 992.841 633.974 979.296 629.955C966.059 625.628 952.976 618.518 940.047 608.626L908.186 668.441C917.421 677.097 928.35 684.207 940.971 689.771C953.592 695.335 966.829 699.354 980.682 701.827Z" fill="#0B1E3A" fill-opacity="0.9"/>
<path d="M1201.91 381.176H1216.4V382.541H1201.91V381.176ZM1205.39 382.541L1205.12 382.814L1201.91 405.669L1202.18 405.942H1204.85L1204.65 407.307H1194L1194.2 405.942H1196.94L1197.21 405.669L1200.42 382.814L1200.15 382.541H1197.48L1197.68 381.176H1208.33L1208.14 382.541H1205.39ZM1221.06 382.541L1220.78 382.814L1217.57 405.669L1217.85 405.942H1220.51L1220.31 407.307H1209.66L1209.86 405.942H1212.6L1212.87 405.669L1216.08 382.814L1215.81 382.541H1213.15L1213.34 381.176H1223.99L1223.8 382.541H1221.06Z" fill="#E4BB6B"/>
<path d="M1240.4 380.785C1242.69 380.785 1244.68 381.279 1246.35 382.267C1248.02 383.255 1249.3 384.62 1250.19 386.362C1251.1 388.078 1251.56 390.08 1251.56 392.368C1251.56 394.552 1251.17 396.581 1250.38 398.453C1249.6 400.299 1248.52 401.924 1247.13 403.328C1245.75 404.706 1244.16 405.785 1242.36 406.565C1240.55 407.319 1238.64 407.696 1236.6 407.696C1234.3 407.696 1232.32 407.202 1230.65 406.214C1228.98 405.226 1227.68 403.861 1226.77 402.119C1225.88 400.377 1225.44 398.375 1225.44 396.112C1225.44 393.928 1225.83 391.913 1226.61 390.067C1227.4 388.195 1228.48 386.57 1229.86 385.192C1231.25 383.788 1232.84 382.709 1234.64 381.955C1236.44 381.175 1238.36 380.785 1240.4 380.785ZM1236.95 406.136C1238.34 406.136 1239.6 405.785 1240.75 405.083C1241.92 404.381 1242.94 403.406 1243.8 402.158C1244.69 400.91 1245.37 399.441 1245.84 397.751C1246.34 396.034 1246.58 394.175 1246.58 392.173C1246.58 390.353 1246.36 388.702 1245.92 387.22C1245.47 385.738 1244.77 384.555 1243.8 383.671C1242.84 382.787 1241.59 382.345 1240.05 382.345C1238.66 382.345 1237.38 382.696 1236.21 383.398C1235.06 384.1 1234.04 385.075 1233.15 386.323C1232.29 387.571 1231.61 389.04 1231.12 390.73C1230.65 392.42 1230.41 394.266 1230.41 396.269C1230.41 398.089 1230.63 399.753 1231.08 401.261C1231.55 402.743 1232.27 403.926 1233.23 404.81C1234.2 405.694 1235.44 406.136 1236.95 406.136Z" fill="#E4BB6B"/>
<path d="M1265.73 393.616C1267.17 393.824 1268.43 394.188 1269.53 394.708C1270.65 395.202 1271.52 395.865 1272.15 396.698C1272.8 397.504 1273.13 398.518 1273.13 399.74C1273.13 401.014 1272.8 402.158 1272.15 403.172C1271.5 404.16 1270.64 404.992 1269.57 405.668C1268.5 406.318 1267.28 406.825 1265.93 407.189C1264.59 407.527 1263.22 407.696 1261.81 407.696C1260.17 407.696 1258.73 407.475 1257.51 407.033C1256.31 406.565 1255.37 405.941 1254.69 405.161C1254.03 404.355 1253.71 403.458 1253.71 402.47C1253.71 401.43 1254.02 400.598 1254.65 399.974C1255.27 399.324 1255.98 398.999 1256.76 398.999C1257.44 398.999 1257.98 399.22 1258.37 399.662C1258.79 400.078 1258.99 400.611 1258.99 401.261C1258.99 402.015 1258.72 402.665 1258.17 403.211C1257.62 403.757 1256.98 404.043 1256.25 404.069C1256.8 404.797 1257.52 405.33 1258.41 405.668C1259.32 405.98 1260.31 406.136 1261.38 406.136C1263.63 406.136 1265.31 405.551 1266.43 404.381C1267.58 403.185 1268.16 401.612 1268.16 399.662C1268.16 398.648 1267.95 397.764 1267.53 397.01C1267.11 396.23 1266.45 395.618 1265.53 395.176C1264.62 394.734 1263.37 394.513 1261.77 394.513L1261.97 393.148C1262.94 393.148 1263.82 393.005 1264.63 392.719C1265.47 392.433 1266.2 392.017 1266.83 391.471C1267.48 390.899 1267.97 390.21 1268.31 389.404C1268.68 388.572 1268.86 387.649 1268.86 386.635C1268.86 385.205 1268.5 384.139 1267.77 383.437C1267.03 382.709 1265.98 382.345 1264.59 382.345C1263.39 382.345 1262.28 382.605 1261.27 383.125C1260.25 383.645 1259.45 384.334 1258.88 385.192C1259.58 385.114 1260.17 385.296 1260.64 385.738C1261.11 386.154 1261.34 386.713 1261.34 387.415C1261.34 388.195 1261.04 388.871 1260.44 389.443C1259.84 390.015 1259.15 390.301 1258.37 390.301C1257.74 390.301 1257.21 390.08 1256.76 389.638C1256.34 389.196 1256.14 388.611 1256.14 387.883C1256.14 387.025 1256.37 386.18 1256.84 385.348C1257.34 384.49 1258.03 383.723 1258.92 383.047C1259.8 382.345 1260.83 381.799 1262.01 381.409C1263.21 380.993 1264.5 380.785 1265.89 380.785C1266.83 380.785 1267.77 380.889 1268.71 381.097C1269.65 381.305 1270.49 381.63 1271.25 382.072C1272.03 382.514 1272.66 383.086 1273.13 383.788C1273.6 384.49 1273.84 385.348 1273.84 386.362C1273.84 387.636 1273.48 388.767 1272.78 389.755C1272.07 390.717 1271.11 391.523 1269.88 392.173C1268.65 392.823 1267.27 393.304 1265.73 393.616Z" fill="#E4BB6B"/>
<path d="M1273.15 415.302L1274.48 405.942H1277.42C1278.05 404.616 1278.65 403.082 1279.22 401.34C1279.8 399.598 1280.33 397.713 1280.83 395.684C1281.35 393.656 1281.82 391.55 1282.24 389.366C1282.65 387.182 1283.02 384.998 1283.33 382.814L1283.06 382.541H1279.38L1279.57 381.176H1301.54L1301.34 382.541H1298.6L1298.33 382.814L1295.12 405.669L1295.35 405.942H1298.06L1296.76 415.302H1295.47C1295.63 413.69 1295.6 412.273 1295.39 411.051C1295.18 409.855 1294.75 408.932 1294.1 408.282C1293.47 407.632 1292.59 407.307 1291.44 407.307H1280.67C1278.95 407.307 1277.59 408.022 1276.6 409.452C1275.63 410.908 1274.91 412.858 1274.44 415.302H1273.15ZM1279.26 405.942H1290.11L1290.42 405.669L1293.63 382.814L1293.36 382.541H1285.37L1285.06 382.814C1284.82 384.53 1284.52 386.402 1284.15 388.43C1283.79 390.458 1283.37 392.512 1282.9 394.592C1282.43 396.647 1281.88 398.649 1281.26 400.599C1280.66 402.549 1279.99 404.33 1279.26 405.942Z" fill="#E4BB6B"/>
<path d="M1301.11 407.307L1301.3 405.942H1304.05L1304.32 405.669L1307.57 382.814L1307.26 382.541H1304.59L1304.79 381.176H1316.65C1317.83 381.176 1318.96 381.293 1320.06 381.527C1321.18 381.735 1322.19 382.086 1323.08 382.58C1323.96 383.074 1324.67 383.737 1325.19 384.569C1325.71 385.375 1325.97 386.376 1325.97 387.572C1325.97 388.976 1325.62 390.211 1324.92 391.277C1324.21 392.317 1323.3 393.188 1322.18 393.89C1321.05 394.592 1319.85 395.125 1318.57 395.489C1317.32 395.827 1316.13 395.996 1315.01 395.996H1310.39L1309.02 405.669L1309.29 405.942H1313.25L1313.05 407.307H1301.11ZM1310.58 394.631H1314.07C1315.22 394.631 1316.33 394.436 1317.4 394.046C1318.47 393.656 1319.33 392.993 1319.98 392.057C1320.64 391.095 1320.96 389.808 1320.96 388.196C1320.96 386.844 1320.71 385.752 1320.22 384.92C1319.75 384.088 1319.12 383.49 1318.34 383.126C1317.55 382.736 1316.69 382.541 1315.75 382.541H1312.54L1312.27 382.814L1310.58 394.631Z" fill="#E4BB6B"/>
<path d="M1332.42 407.307H1324.59L1324.79 405.942H1327.06L1340.37 381.176H1343.15L1349.18 405.942H1351.69L1351.49 407.307H1341.19L1341.39 405.942H1343.86L1344.13 405.669L1339.63 386.324H1339.43L1329.1 405.669L1329.41 405.942H1332.62L1332.42 407.307ZM1332.46 396.933H1345.23L1345.03 398.298H1332.27L1332.46 396.933Z" fill="#E4BB6B"/>
<path d="M1371.4 393.578C1373.54 393.786 1375.23 394.397 1376.49 395.411C1377.77 396.426 1378.41 397.778 1378.41 399.468C1378.41 400.846 1378.05 402.029 1377.35 403.017C1376.67 404.005 1375.77 404.811 1374.65 405.435C1373.55 406.059 1372.38 406.527 1371.12 406.839C1369.87 407.151 1368.68 407.307 1367.56 407.307H1353.31L1353.5 405.942H1356.24L1356.52 405.669L1359.77 382.814L1359.45 382.541H1356.79L1356.99 381.176H1369.67C1370.82 381.176 1371.93 381.267 1373 381.449C1374.1 381.605 1375.08 381.904 1375.94 382.346C1376.83 382.762 1377.53 383.334 1378.05 384.062C1378.58 384.764 1378.84 385.661 1378.84 386.753C1378.84 387.949 1378.54 389.002 1377.94 389.912C1377.34 390.796 1376.49 391.55 1375.39 392.174C1374.29 392.772 1372.96 393.24 1371.4 393.578ZM1364.74 382.541L1364.47 382.814L1362.98 393.266H1367.01C1368.21 393.266 1369.33 393.058 1370.38 392.642C1371.42 392.226 1372.26 391.589 1372.88 390.731C1373.54 389.873 1373.86 388.781 1373.86 387.455C1373.86 386.285 1373.62 385.349 1373.12 384.647C1372.65 383.919 1372 383.386 1371.16 383.048C1370.35 382.71 1369.41 382.541 1368.34 382.541H1364.74ZM1366.62 405.942C1367.82 405.942 1368.94 405.721 1369.99 405.279C1371.03 404.811 1371.87 404.135 1372.49 403.251C1373.12 402.367 1373.43 401.262 1373.43 399.936C1373.43 398.194 1372.91 396.881 1371.87 395.996C1370.82 395.086 1369.59 394.631 1368.19 394.631H1362.78L1361.25 405.669L1361.53 405.942H1366.62Z" fill="#E4BB6B"/>
<path d="M1387.24 382.541L1387.43 381.176H1403.06L1402.86 382.541H1387.24ZM1382.26 407.697C1381.51 407.697 1380.91 407.476 1380.46 407.034C1380.02 406.566 1379.8 406.02 1379.8 405.396C1379.8 404.59 1380.07 403.927 1380.62 403.407C1381.17 402.887 1381.86 402.627 1382.69 402.627C1383.16 402.627 1383.63 402.783 1384.1 403.095C1384.57 403.407 1384.82 403.966 1384.85 404.772C1385.55 404.2 1386.21 403.251 1386.81 401.925C1387.41 400.599 1387.97 398.974 1388.49 397.05C1389.01 395.125 1389.49 392.967 1389.94 390.575C1390.38 388.157 1390.8 385.57 1391.19 382.814L1390.96 382.541H1393.19L1392.91 382.814C1392.65 384.608 1392.37 386.467 1392.05 388.391C1391.74 390.315 1391.37 392.2 1390.96 394.046C1390.54 395.892 1390.06 397.648 1389.51 399.312C1388.99 400.95 1388.37 402.406 1387.67 403.68C1386.96 404.928 1386.17 405.916 1385.28 406.644C1384.39 407.346 1383.39 407.697 1382.26 407.697ZM1406.54 382.541L1406.23 382.814L1403.02 405.669L1403.33 405.942H1405.95L1405.76 407.307H1395.15L1395.34 405.942H1398.04L1398.32 405.669L1401.53 382.814L1401.25 382.541H1398.63L1398.83 381.176H1409.44L1409.24 382.541H1406.54Z" fill="#E4BB6B"/>
<path d="M1430.68 399.897H1432.05L1429.3 407.307H1408.98L1409.18 405.942H1411.92L1412.19 405.669L1415.4 382.814L1415.13 382.541H1412.47L1412.66 381.176H1432.2L1432.75 387.416L1431.38 387.806C1431.09 386.428 1430.64 385.362 1430.01 384.608C1429.38 383.854 1428.57 383.321 1427.58 383.009C1426.59 382.697 1425.4 382.541 1424.02 382.541H1420.38L1420.1 382.814L1418.65 393.071H1421.79C1422.91 393.071 1423.87 392.746 1424.68 392.096C1425.49 391.42 1426.03 390.315 1426.29 388.781H1427.66L1426.25 398.727H1424.88C1425.04 397.193 1424.8 396.1 1424.18 395.45C1423.57 394.774 1422.71 394.436 1421.59 394.436H1418.46L1416.89 405.669L1417.17 405.942H1421.51C1423.6 405.942 1425.39 405.448 1426.88 404.46C1428.39 403.472 1429.66 401.951 1430.68 399.897Z" fill="#E4BB6B"/>
<path d="M1454 381.176H1464.65L1464.46 382.541H1461.72L1461.44 382.814L1458.23 405.669L1458.51 405.942H1461.17L1460.97 407.307H1450.32L1450.52 405.942H1453.26L1453.53 405.669L1455.1 394.436H1443.35L1441.79 405.669L1442.06 405.942H1444.72L1444.53 407.307H1433.88L1434.07 405.942H1436.81L1437.09 405.669L1440.3 382.814L1440.02 382.541H1437.36L1437.56 381.176H1448.21L1448.01 382.541H1445.27L1445 382.814L1443.55 393.071H1455.3L1456.74 382.814L1456.47 382.541H1453.81L1454 381.176Z" fill="#E4BB6B"/>
<path d="M1471.52 403.251L1471.87 400.482L1487.46 384.803L1487.11 387.572L1471.52 403.251ZM1475.59 382.541L1475.32 382.814L1472.11 405.669L1472.38 405.942H1475.05L1474.85 407.307H1464.2L1464.4 405.942H1467.14L1467.41 405.669L1470.62 382.814L1470.35 382.541H1467.68L1467.88 381.176H1478.53L1478.34 382.541H1475.59ZM1492.04 382.541L1491.77 382.814L1488.56 405.669L1488.83 405.942H1491.49L1491.3 407.307H1480.65L1480.84 405.942H1483.58L1483.86 405.669L1487.07 382.814L1486.79 382.541H1484.13L1484.33 381.176H1494.98L1494.78 382.541H1492.04Z" fill="#E4BB6B"/>
<path d="M1501.85 403.251L1502.2 400.482L1517.78 384.803L1517.43 387.572L1501.85 403.251ZM1505.92 382.541L1505.64 382.814L1502.43 405.669L1502.71 405.942H1505.37L1505.17 407.307H1494.52L1494.72 405.942H1497.46L1497.73 405.669L1500.95 382.814L1500.67 382.541H1498.01L1498.2 381.176H1508.86L1508.66 382.541H1505.92ZM1522.36 382.541L1522.09 382.814L1518.88 405.669L1519.15 405.942H1521.82L1521.62 407.307H1510.97L1511.17 405.942H1513.91L1514.18 405.669L1517.39 382.814L1517.12 382.541H1514.45L1514.65 381.176H1525.3L1525.11 382.541H1522.36ZM1511.95 379.265C1511.17 379.265 1510.37 379.161 1509.56 378.953C1508.75 378.719 1508.07 378.381 1507.52 377.939C1507 377.471 1506.74 376.86 1506.74 376.106C1506.74 375.482 1506.99 374.975 1507.48 374.585C1507.98 374.195 1508.52 374 1509.09 374C1509.59 374 1509.99 374.156 1510.3 374.468C1510.62 374.78 1510.77 375.144 1510.77 375.56C1510.77 375.924 1510.64 376.262 1510.38 376.574C1510.12 376.886 1509.85 377.107 1509.56 377.237C1509.8 377.549 1510.12 377.77 1510.54 377.9C1510.98 378.03 1511.52 378.095 1512.14 378.095C1512.72 378.095 1513.27 378.03 1513.79 377.9C1514.34 377.77 1514.76 377.536 1515.04 377.198C1514.78 377.068 1514.57 376.886 1514.42 376.652C1514.29 376.392 1514.22 376.145 1514.22 375.911C1514.22 375.365 1514.44 374.91 1514.89 374.546C1515.33 374.182 1515.84 374 1516.41 374C1516.88 374 1517.29 374.156 1517.63 374.468C1517.99 374.78 1518.17 375.17 1518.17 375.638C1518.17 376.418 1517.84 377.081 1517.16 377.627C1516.5 378.173 1515.69 378.589 1514.73 378.875C1513.76 379.135 1512.84 379.265 1511.95 379.265Z" fill="#E4BB6B"/>
<path d="M1208.37 453.965C1210.02 453.965 1211.62 453.549 1213.19 452.717C1214.75 451.859 1216.33 450.559 1217.93 448.817L1219.1 449.714C1217.43 451.742 1215.64 453.263 1213.74 454.277C1211.83 455.291 1209.62 455.798 1207.12 455.798H1207.08C1204.86 455.798 1202.91 455.317 1201.24 454.355C1199.57 453.367 1198.27 451.989 1197.33 450.221C1196.39 448.427 1195.92 446.36 1195.92 444.02C1195.92 441.81 1196.32 439.781 1197.13 437.935C1197.97 436.089 1199.09 434.49 1200.5 433.138C1201.94 431.786 1203.59 430.746 1205.47 430.018C1207.35 429.264 1209.34 428.887 1211.42 428.887C1212.78 428.887 1213.96 429.043 1214.95 429.355C1215.97 429.667 1216.91 430.096 1217.77 430.642L1218.71 429.277H1220.08C1219.97 430.603 1219.91 431.981 1219.88 433.411C1219.88 434.815 1219.92 436.128 1220 437.35L1218.67 437.74C1218.36 436.31 1217.93 435.127 1217.38 434.191C1216.83 433.255 1216.22 432.514 1215.54 431.968C1214.86 431.422 1214.13 431.032 1213.34 430.798C1212.59 430.564 1211.82 430.447 1211.03 430.447C1209.47 430.447 1208.06 430.785 1206.8 431.461C1205.55 432.137 1204.48 433.099 1203.59 434.347C1202.73 435.569 1202.07 436.999 1201.6 438.637C1201.15 440.275 1200.93 442.057 1200.93 443.981C1200.93 445.905 1201.18 447.621 1201.67 449.129C1202.2 450.611 1203.01 451.794 1204.1 452.678C1205.2 453.536 1206.62 453.965 1208.37 453.965Z" fill="#E4BB6B"/>
<path d="M1252.24 455.798C1250.18 455.798 1248.4 455.369 1246.91 454.511C1245.45 453.653 1244.32 452.405 1243.51 450.767C1242.72 449.129 1242.33 447.14 1242.33 444.8C1242.33 442.642 1242.67 440.614 1243.35 438.715C1244.05 436.817 1245.03 435.127 1246.29 433.645C1247.54 432.163 1249.01 431.006 1250.71 430.174C1252.43 429.316 1254.31 428.887 1256.35 428.887C1258.41 428.887 1260.17 429.316 1261.64 430.174C1263.12 431.032 1264.26 432.28 1265.04 433.918C1265.85 435.556 1266.26 437.545 1266.26 439.885C1266.26 442.044 1265.9 444.072 1265.2 445.97C1264.52 447.868 1263.55 449.558 1262.3 451.04C1261.05 452.522 1259.56 453.692 1257.84 454.55C1256.14 455.382 1254.27 455.798 1252.24 455.798ZM1237.67 442.538L1237.87 441.173H1244.92L1244.72 442.538H1237.67ZM1252.86 454.238C1254.01 454.238 1255.03 453.926 1255.92 453.302C1256.83 452.678 1257.62 451.833 1258.27 450.767C1258.95 449.701 1259.51 448.518 1259.95 447.218C1260.4 445.918 1260.72 444.579 1260.93 443.201C1261.17 441.797 1261.28 440.484 1261.28 439.261C1261.28 436.479 1260.81 434.321 1259.87 432.787C1258.93 431.227 1257.55 430.447 1255.72 430.447C1254.57 430.447 1253.54 430.759 1252.63 431.383C1251.72 432.007 1250.92 432.852 1250.24 433.918C1249.59 434.984 1249.04 436.167 1248.6 437.467C1248.18 438.767 1247.85 440.106 1247.62 441.485C1247.41 442.863 1247.3 444.176 1247.3 445.424C1247.3 448.18 1247.77 450.338 1248.71 451.898C1249.65 453.458 1251.04 454.238 1252.86 454.238ZM1240.8 430.642L1240.53 430.915L1237.32 453.77L1237.59 454.043H1240.26L1240.06 455.408H1229.41L1229.61 454.043H1232.35L1232.62 453.77L1235.83 430.915L1235.56 430.642H1232.89L1233.09 429.277H1243.74L1243.55 430.642H1240.8Z" fill="#E4BB6B"/>
<path d="M1288.91 436.258C1288.65 434.802 1288.21 433.671 1287.58 432.865C1286.95 432.059 1286.17 431.487 1285.23 431.149C1284.32 430.811 1283.25 430.642 1282.02 430.642H1279.24L1279.44 429.277H1289.73L1290.28 435.868L1288.91 436.258ZM1267.61 455.408L1267.81 454.043H1270.55L1270.82 453.77L1274.03 430.915L1273.76 430.642H1271.1L1271.29 429.277H1281.94L1281.75 430.642H1279.01L1278.73 430.915L1277.36 440.588H1281.98C1283.16 440.588 1284.28 440.718 1285.35 440.978C1286.42 441.212 1287.37 441.602 1288.21 442.148C1289.04 442.668 1289.7 443.344 1290.17 444.176C1290.64 444.982 1290.87 445.97 1290.87 447.14C1290.87 448.804 1290.37 450.26 1289.38 451.508C1288.42 452.756 1287.1 453.718 1285.43 454.394C1283.78 455.07 1281.94 455.408 1279.91 455.408H1267.61ZM1275.79 454.043H1278.97C1281.03 454.043 1282.69 453.471 1283.94 452.327C1285.22 451.157 1285.86 449.571 1285.86 447.569C1285.86 445.749 1285.36 444.358 1284.37 443.396C1283.4 442.434 1282.16 441.953 1280.65 441.953H1277.17L1275.52 453.77L1275.79 454.043Z" fill="#E4BB6B"/>
<path d="M1299.94 451.352L1300.29 448.583L1315.88 432.904L1315.53 435.673L1299.94 451.352ZM1304.01 430.642L1303.74 430.915L1300.53 453.77L1300.8 454.043H1303.47L1303.27 455.408H1292.62L1292.82 454.043H1295.56L1295.83 453.77L1299.04 430.915L1298.77 430.642H1296.1L1296.3 429.277H1306.95L1306.76 430.642H1304.01ZM1320.46 430.642L1320.19 430.915L1316.98 453.77L1317.25 454.043H1319.91L1319.72 455.408H1309.07L1309.26 454.043H1312L1312.28 453.77L1315.49 430.915L1315.21 430.642H1312.55L1312.75 429.277H1323.4L1323.2 430.642H1320.46Z" fill="#E4BB6B"/>
<path d="M1329.99 430.642L1330.19 429.277H1345.81L1345.62 430.642H1329.99ZM1325.02 455.798C1324.26 455.798 1323.66 455.577 1323.22 455.135C1322.77 454.667 1322.55 454.121 1322.55 453.497C1322.55 452.691 1322.83 452.028 1323.37 451.508C1323.92 450.988 1324.61 450.728 1325.45 450.728C1325.92 450.728 1326.39 450.884 1326.86 451.196C1327.33 451.508 1327.58 452.067 1327.6 452.873C1328.31 452.301 1328.96 451.352 1329.56 450.026C1330.16 448.7 1330.72 447.075 1331.24 445.151C1331.77 443.227 1332.25 441.069 1332.69 438.676C1333.14 436.258 1333.56 433.671 1333.95 430.915L1333.71 430.642H1335.94L1335.67 430.915C1335.41 432.709 1335.12 434.568 1334.81 436.492C1334.49 438.416 1334.13 440.301 1333.71 442.148C1333.29 443.994 1332.81 445.749 1332.26 447.413C1331.74 449.051 1331.13 450.507 1330.42 451.781C1329.72 453.029 1328.92 454.017 1328.03 454.745C1327.15 455.447 1326.14 455.798 1325.02 455.798ZM1349.3 430.642L1348.98 430.915L1345.77 453.77L1346.09 454.043H1348.71L1348.51 455.408H1337.9L1338.1 454.043H1340.8L1341.07 453.77L1344.28 430.915L1344.01 430.642H1341.39L1341.58 429.277H1352.19L1352 430.642H1349.3Z" fill="#E4BB6B"/>
<path d="M1373.43 447.998H1374.8L1372.06 455.408H1351.74L1351.93 454.043H1354.67L1354.95 453.77L1358.16 430.915L1357.89 430.642H1355.22L1355.42 429.277H1374.96L1375.51 435.517L1374.14 435.907C1373.85 434.529 1373.39 433.463 1372.77 432.709C1372.14 431.955 1371.33 431.422 1370.34 431.11C1369.35 430.798 1368.16 430.642 1366.77 430.642H1363.13L1362.86 430.915L1361.41 441.173H1364.54C1365.66 441.173 1366.63 440.848 1367.44 440.197C1368.25 439.521 1368.78 438.416 1369.05 436.882H1370.42L1369.01 446.828H1367.64C1367.79 445.294 1367.56 444.202 1366.93 443.552C1366.33 442.876 1365.47 442.538 1364.35 442.538H1361.21L1359.65 453.77L1359.92 454.043H1364.27C1366.36 454.043 1368.14 453.549 1369.63 452.561C1371.15 451.573 1372.41 450.052 1373.43 447.998Z" fill="#E4BB6B"/>
<path d="M1398.32 447.998H1399.7L1396.95 455.408H1376.63L1376.83 454.043H1379.57L1379.84 453.77L1383.05 430.915L1382.78 430.642H1380.12L1380.31 429.277H1399.85L1400.4 435.517L1399.03 435.907C1398.74 434.529 1398.29 433.463 1397.66 432.709C1397.03 431.955 1396.22 431.422 1395.23 431.11C1394.24 430.798 1393.05 430.642 1391.67 430.642H1388.03L1387.75 430.915L1386.3 441.173H1389.44C1390.56 441.173 1391.52 440.848 1392.33 440.197C1393.14 439.521 1393.68 438.416 1393.94 436.882H1395.31L1393.9 446.828H1392.53C1392.69 445.294 1392.45 444.202 1391.82 443.552C1391.22 442.876 1390.36 442.538 1389.24 442.538H1386.11L1384.54 453.77L1384.82 454.043H1389.16C1391.25 454.043 1393.04 453.549 1394.53 452.561C1396.04 451.573 1397.31 450.052 1398.32 447.998Z" fill="#E4BB6B"/>
<path d="M1434.85 430.642L1434.57 430.915L1431.32 453.77L1431.64 454.043H1434.26L1434.07 455.408H1423.45L1423.65 454.043H1426.35L1426.63 453.77L1429.33 434.737H1429.13L1418.17 455.408H1415.58L1409.87 433.84H1409.67L1406.85 453.77L1407.16 454.043H1410.34L1410.14 455.408H1401.53L1401.72 454.043H1404.81L1405.09 453.77L1408.34 430.915L1408.06 430.642H1405.01L1405.21 429.277H1413.74L1419.07 449.597H1419.26L1430.07 429.277H1437.75L1437.55 430.642H1434.85Z" fill="#E4BB6B"/>
<path d="M1201.91 477.379H1216.4V478.744H1201.91V477.379ZM1205.39 478.744L1205.12 479.017L1201.91 501.872L1202.18 502.145H1204.85L1204.65 503.51H1194L1194.2 502.145H1196.94L1197.21 501.872L1200.42 479.017L1200.15 478.744H1197.48L1197.68 477.379H1208.33L1208.14 478.744H1205.39ZM1221.06 478.744L1220.78 479.017L1217.57 501.872L1217.85 502.145H1220.51L1220.31 503.51H1209.66L1209.86 502.145H1212.6L1212.87 501.872L1216.08 479.017L1215.81 478.744H1213.15L1213.34 477.379H1223.99L1223.8 478.744H1221.06Z" fill="#E4BB6B"/>
<path d="M1245.21 496.1H1246.58L1243.84 503.51H1223.52L1223.72 502.145H1226.46L1226.73 501.872L1229.94 479.017L1229.67 478.744H1227.01L1227.2 477.379H1246.74L1247.29 483.619L1245.92 484.009C1245.63 482.631 1245.17 481.565 1244.55 480.811C1243.92 480.057 1243.11 479.524 1242.12 479.212C1241.13 478.9 1239.94 478.744 1238.56 478.744H1234.92L1234.64 479.017L1233.19 489.275H1236.33C1237.45 489.275 1238.41 488.95 1239.22 488.3C1240.03 487.624 1240.57 486.519 1240.83 484.985H1242.2L1240.79 494.93H1239.42C1239.58 493.396 1239.34 492.304 1238.71 491.654C1238.11 490.978 1237.25 490.64 1236.13 490.64H1233L1231.43 501.872L1231.7 502.145H1236.05C1238.14 502.145 1239.93 501.651 1241.42 500.663C1242.93 499.675 1244.2 498.154 1245.21 496.1Z" fill="#E4BB6B"/>
<path d="M1248.41 503.51L1248.61 502.145H1251.35L1251.63 501.872L1254.88 479.017L1254.56 478.744H1251.9L1252.1 477.379H1263.96C1265.13 477.379 1266.27 477.496 1267.37 477.73C1268.49 477.938 1269.49 478.289 1270.38 478.783C1271.27 479.277 1271.97 479.94 1272.5 480.772C1273.02 481.578 1273.28 482.579 1273.28 483.775C1273.28 485.18 1272.93 486.415 1272.22 487.481C1271.52 488.521 1270.6 489.392 1269.48 490.094C1268.36 490.796 1267.16 491.329 1265.88 491.693C1264.63 492.031 1263.44 492.2 1262.32 492.2H1257.69L1256.32 501.872L1256.6 502.145H1260.55L1260.36 503.51H1248.41ZM1257.89 490.835H1261.38C1262.52 490.835 1263.63 490.64 1264.7 490.25C1265.77 489.86 1266.64 489.197 1267.29 488.261C1267.94 487.299 1268.27 486.012 1268.27 484.399C1268.27 483.047 1268.02 481.955 1267.52 481.123C1267.05 480.291 1266.43 479.693 1265.64 479.329C1264.86 478.939 1264 478.744 1263.06 478.744H1259.85L1259.57 479.017L1257.89 490.835Z" fill="#E4BB6B"/>
<path d="M1291.44 489.782C1293.58 489.99 1295.27 490.601 1296.53 491.615C1297.81 492.629 1298.45 493.981 1298.45 495.671C1298.45 497.049 1298.09 498.232 1297.39 499.22C1296.71 500.208 1295.81 501.014 1294.69 501.638C1293.59 502.262 1292.42 502.73 1291.16 503.042C1289.91 503.354 1288.72 503.51 1287.6 503.51H1273.35L1273.54 502.145H1276.28L1276.56 501.872L1279.81 479.017L1279.49 478.744H1276.83L1277.03 477.379H1289.71C1290.86 477.379 1291.97 477.47 1293.04 477.652C1294.14 477.808 1295.12 478.107 1295.98 478.549C1296.87 478.965 1297.57 479.537 1298.09 480.265C1298.62 480.967 1298.88 481.864 1298.88 482.956C1298.88 484.152 1298.58 485.206 1297.98 486.116C1297.38 487 1296.53 487.754 1295.43 488.378C1294.34 488.976 1293 489.444 1291.44 489.782ZM1284.78 478.744L1284.51 479.017L1283.02 489.47H1287.05C1288.25 489.47 1289.38 489.262 1290.42 488.846C1291.46 488.43 1292.3 487.793 1292.93 486.935C1293.58 486.077 1293.9 484.984 1293.9 483.658C1293.9 482.488 1293.66 481.552 1293.16 480.85C1292.69 480.122 1292.04 479.589 1291.2 479.251C1290.39 478.913 1289.45 478.744 1288.38 478.744H1284.78ZM1286.66 502.145C1287.86 502.145 1288.98 501.924 1290.03 501.482C1291.07 501.014 1291.91 500.338 1292.53 499.454C1293.16 498.57 1293.47 497.465 1293.47 496.139C1293.47 494.397 1292.95 493.084 1291.91 492.2C1290.86 491.29 1289.64 490.835 1288.23 490.835H1282.82L1281.3 501.872L1281.57 502.145H1286.66Z" fill="#E4BB6B"/>
<path d="M1317.11 476.988C1319.4 476.988 1321.39 477.482 1323.06 478.47C1324.73 479.458 1326.01 480.823 1326.9 482.565C1327.81 484.281 1328.27 486.284 1328.27 488.572C1328.27 490.756 1327.87 492.784 1327.09 494.656C1326.31 496.502 1325.22 498.127 1323.84 499.531C1322.46 500.909 1320.87 501.988 1319.06 502.768C1317.26 503.522 1315.34 503.899 1313.31 503.899C1311.01 503.899 1309.03 503.405 1307.36 502.417C1305.69 501.429 1304.39 500.064 1303.48 498.322C1302.59 496.58 1302.15 494.578 1302.15 492.316C1302.15 490.132 1302.54 488.117 1303.32 486.271C1304.11 484.398 1305.19 482.773 1306.57 481.395C1307.96 479.991 1309.55 478.912 1311.35 478.158C1313.15 477.378 1315.07 476.988 1317.11 476.988ZM1313.66 502.339C1315.04 502.339 1316.31 501.988 1317.46 501.286C1318.63 500.584 1319.65 499.609 1320.51 498.361C1321.4 497.113 1322.08 495.644 1322.55 493.954C1323.04 492.238 1323.29 490.379 1323.29 488.377C1323.29 486.557 1323.07 484.905 1322.63 483.423C1322.18 481.941 1321.48 480.758 1320.51 479.874C1319.55 478.99 1318.29 478.548 1316.75 478.548C1315.37 478.548 1314.09 478.899 1312.92 479.601C1311.77 480.303 1310.75 481.278 1309.86 482.526C1309 483.774 1308.32 485.244 1307.83 486.934C1307.36 488.624 1307.12 490.47 1307.12 492.472C1307.12 494.292 1307.34 495.956 1307.79 497.464C1308.26 498.946 1308.97 500.129 1309.94 501.013C1310.91 501.897 1312.15 502.339 1313.66 502.339Z" fill="#E4BB6B"/>
<path d="M1329.75 503.51L1329.95 502.145H1332.69L1332.96 501.872L1336.17 479.017L1335.86 478.744H1333.24L1333.43 477.379H1351.95L1352.46 483.619L1351.13 484.009C1350.84 482.631 1350.39 481.565 1349.76 480.811C1349.13 480.057 1348.32 479.524 1347.33 479.212C1346.37 478.9 1345.18 478.744 1343.77 478.744H1341.15L1340.87 479.017L1337.66 501.872L1337.93 502.145H1341.89L1341.69 503.51H1329.75Z" fill="#E4BB6B"/>
<path d="M1368.88 476.988C1371.18 476.988 1373.16 477.482 1374.83 478.47C1376.5 479.458 1377.78 480.823 1378.67 482.565C1379.59 484.281 1380.04 486.284 1380.04 488.572C1380.04 490.756 1379.65 492.784 1378.87 494.656C1378.08 496.502 1377 498.127 1375.62 499.531C1374.23 500.909 1372.64 501.988 1370.84 502.768C1369.04 503.522 1367.12 503.899 1365.08 503.899C1362.79 503.899 1360.8 503.405 1359.13 502.417C1357.46 501.429 1356.17 500.064 1355.26 498.322C1354.37 496.58 1353.92 494.578 1353.92 492.316C1353.92 490.132 1354.32 488.117 1355.1 486.271C1355.88 484.398 1356.97 482.773 1358.35 481.395C1359.73 479.991 1361.32 478.912 1363.13 478.158C1364.93 477.378 1366.85 476.988 1368.88 476.988ZM1365.44 502.339C1366.82 502.339 1368.09 501.988 1369.23 501.286C1370.41 500.584 1371.43 499.609 1372.29 498.361C1373.18 497.113 1373.86 495.644 1374.33 493.954C1374.82 492.238 1375.07 490.379 1375.07 488.377C1375.07 486.557 1374.85 484.905 1374.4 483.423C1373.96 481.941 1373.25 480.758 1372.29 479.874C1371.32 478.99 1370.07 478.548 1368.53 478.548C1367.15 478.548 1365.87 478.899 1364.69 479.601C1363.54 480.303 1362.53 481.278 1361.64 482.526C1360.78 483.774 1360.1 485.244 1359.6 486.934C1359.13 488.624 1358.9 490.47 1358.9 492.472C1358.9 494.292 1359.12 495.956 1359.56 497.464C1360.03 498.946 1360.75 500.129 1361.72 501.013C1362.68 501.897 1363.92 502.339 1365.44 502.339Z" fill="#E4BB6B"/>
<path d="M1194 551.609L1194.2 550.245H1196.94L1197.21 549.971L1200.46 527.117L1200.15 526.844H1197.48L1197.68 525.479H1209.55C1210.72 525.479 1211.86 525.596 1212.95 525.83C1214.07 526.038 1215.08 526.389 1215.97 526.883C1216.85 527.377 1217.56 528.04 1218.08 528.872C1218.6 529.679 1218.86 530.679 1218.86 531.875C1218.86 533.279 1218.51 534.515 1217.81 535.581C1217.1 536.621 1216.19 537.491 1215.07 538.193C1213.94 538.895 1212.74 539.429 1211.46 539.793C1210.21 540.131 1209.02 540.299 1207.9 540.299H1203.28L1201.91 549.971L1202.18 550.245H1206.14L1205.94 551.609H1194ZM1203.48 538.935H1206.96C1208.11 538.935 1209.22 538.739 1210.29 538.349C1211.36 537.959 1212.22 537.297 1212.87 536.361C1213.53 535.399 1213.85 534.112 1213.85 532.5C1213.85 531.148 1213.6 530.056 1213.11 529.223C1212.64 528.391 1212.01 527.793 1211.23 527.429C1210.45 527.039 1209.58 526.844 1208.64 526.844H1205.43L1205.16 527.117L1203.48 538.935Z" fill="#E4BB6B"/>
<path d="M1223.51 552C1222.65 552 1221.96 551.765 1221.44 551.297C1220.94 550.829 1220.69 550.245 1220.69 549.543C1220.69 548.815 1220.94 548.178 1221.44 547.632C1221.96 547.086 1222.64 546.812 1223.47 546.812C1224.07 546.812 1224.6 546.995 1225.04 547.359C1225.51 547.697 1225.75 548.191 1225.75 548.841C1225.75 549.179 1225.65 549.529 1225.47 549.893C1225.31 550.231 1225.08 550.518 1224.77 550.752C1224.45 550.96 1224.05 551.064 1223.55 551.064L1223.44 550.479C1224.24 550.323 1225.01 549.998 1225.75 549.504C1226.5 548.984 1227.29 548.256 1228.09 547.32C1228.9 546.358 1229.78 545.149 1230.72 543.693L1223.47 526.844H1221.01L1221.2 525.479H1231.54L1231.34 526.844H1228.8L1228.49 527.117L1233.54 539.403H1233.73L1241.64 527.117L1241.33 526.844H1238.08L1238.28 525.479H1246.3L1246.11 526.844H1243.84L1233.19 542.952C1232.01 544.746 1230.86 546.319 1229.74 547.671C1228.64 549.023 1227.57 550.089 1226.53 550.869C1225.48 551.623 1224.48 552 1223.51 552Z" fill="#E4BB6B"/>
<path d="M1257.62 550.168C1259.27 550.168 1260.87 549.752 1262.44 548.92C1264.01 548.062 1265.59 546.762 1267.18 545.02L1268.35 545.917C1266.68 547.945 1264.89 549.466 1262.99 550.48C1261.08 551.494 1258.88 552.001 1256.37 552.001H1256.33C1254.11 552.001 1252.17 551.52 1250.5 550.558C1248.83 549.57 1247.52 548.192 1246.58 546.424C1245.64 544.63 1245.17 542.563 1245.17 540.223C1245.17 538.013 1245.58 535.985 1246.38 534.139C1247.22 532.293 1248.34 530.694 1249.75 529.341C1251.19 527.989 1252.85 526.949 1254.73 526.221C1256.61 525.467 1258.59 525.09 1260.68 525.09C1262.03 525.09 1263.21 525.246 1264.2 525.558C1265.22 525.87 1266.16 526.299 1267.02 526.845L1267.96 525.48H1269.33C1269.23 526.806 1269.16 528.184 1269.14 529.615C1269.14 531.019 1269.17 532.332 1269.25 533.554L1267.92 533.944C1267.61 532.514 1267.18 531.331 1266.63 530.395C1266.08 529.459 1265.47 528.717 1264.79 528.171C1264.11 527.625 1263.38 527.235 1262.6 527.001C1261.84 526.767 1261.07 526.65 1260.29 526.65C1258.72 526.65 1257.31 526.988 1256.06 527.664C1254.8 528.34 1253.73 529.302 1252.85 530.551C1251.98 531.773 1251.32 533.203 1250.85 534.841C1250.41 536.479 1250.18 538.26 1250.18 540.184C1250.18 542.108 1250.43 543.824 1250.93 545.332C1251.45 546.814 1252.26 547.997 1253.35 548.881C1254.45 549.739 1255.87 550.168 1257.62 550.168Z" fill="#E4BB6B"/>
<path d="M1284.58 550.168C1286.23 550.168 1287.83 549.752 1289.4 548.92C1290.96 548.062 1292.54 546.762 1294.14 545.02L1295.31 545.917C1293.64 547.945 1291.85 549.466 1289.95 550.48C1288.04 551.494 1285.83 552.001 1283.33 552.001H1283.29C1281.07 552.001 1279.13 551.52 1277.46 550.558C1275.78 549.57 1274.48 548.192 1273.54 546.424C1272.6 544.63 1272.13 542.563 1272.13 540.223C1272.13 538.013 1272.53 535.985 1273.34 534.139C1274.18 532.293 1275.3 530.694 1276.71 529.341C1278.15 527.989 1279.8 526.949 1281.68 526.221C1283.56 525.467 1285.55 525.09 1287.64 525.09C1288.99 525.09 1290.17 525.246 1291.16 525.558C1292.18 525.87 1293.12 526.299 1293.98 526.845L1294.92 525.48H1296.29C1296.19 526.806 1296.12 528.184 1296.09 529.615C1296.09 531.019 1296.13 532.332 1296.21 533.554L1294.88 533.944C1294.57 532.514 1294.14 531.331 1293.59 530.395C1293.04 529.459 1292.43 528.717 1291.75 528.171C1291.07 527.625 1290.34 527.235 1289.55 527.001C1288.8 526.767 1288.03 526.65 1287.24 526.65C1285.68 526.65 1284.27 526.988 1283.02 527.664C1281.76 528.34 1280.69 529.302 1279.8 530.551C1278.94 531.773 1278.28 533.203 1277.81 534.841C1277.36 536.479 1277.14 538.26 1277.14 540.184C1277.14 542.108 1277.39 543.824 1277.89 545.332C1278.41 546.814 1279.22 547.997 1280.31 548.881C1281.41 549.739 1282.83 550.168 1284.58 550.168Z" fill="#E4BB6B"/>
<path d="M1297.17 551.611L1297.37 550.246H1300.11L1300.38 549.973L1303.59 527.118L1303.32 526.845H1300.66L1300.85 525.48H1311.5L1311.31 526.845H1308.56L1308.29 527.118L1305.08 549.973L1305.35 550.246H1308.02L1307.82 551.611H1297.17ZM1315.81 551.611L1310.76 540.769C1310.44 540.119 1310.1 539.638 1309.74 539.326C1309.37 539.014 1308.93 538.806 1308.41 538.702C1307.91 538.598 1307.29 538.546 1306.53 538.546L1306.72 537.181H1309.74C1310.94 537.181 1311.89 537.233 1312.6 537.337C1313.3 537.415 1313.88 537.649 1314.32 538.039C1314.76 538.403 1315.2 539.027 1315.61 539.911L1319.53 548.218C1319.89 549.024 1320.4 549.544 1321.06 549.778C1321.71 549.986 1322.4 550.142 1323.13 550.246L1322.94 551.611H1315.81ZM1306.57 538.351L1306.72 537.181C1308.16 537.181 1309.39 536.96 1310.41 536.518C1311.45 536.076 1312.35 535.504 1313.11 534.802C1313.86 534.074 1314.53 533.281 1315.1 532.423C1315.7 531.565 1316.27 530.707 1316.79 529.849C1317.34 528.99 1317.91 528.21 1318.51 527.508C1319.11 526.78 1319.79 526.195 1320.55 525.753C1321.33 525.311 1322.26 525.09 1323.33 525.09C1324.19 525.09 1324.85 525.337 1325.32 525.831C1325.79 526.299 1326.03 526.897 1326.03 527.625C1326 528.405 1325.68 529.082 1325.05 529.654C1324.45 530.226 1323.76 530.512 1322.97 530.512C1322.4 530.512 1321.87 530.304 1321.37 529.888C1320.9 529.472 1320.65 528.847 1320.63 528.015C1319.76 528.743 1319.01 529.576 1318.35 530.512C1317.73 531.422 1317.11 532.345 1316.51 533.281C1315.91 534.191 1315.2 535.036 1314.36 535.816C1313.55 536.57 1312.52 537.181 1311.27 537.649C1310.04 538.117 1308.47 538.351 1306.57 538.351Z" fill="#E4BB6B"/>
<path d="M1341.46 525.09C1343.76 525.09 1345.75 525.584 1347.42 526.572C1349.09 527.56 1350.37 528.925 1351.25 530.668C1352.17 532.384 1352.62 534.386 1352.62 536.674C1352.62 538.858 1352.23 540.886 1351.45 542.758C1350.67 544.604 1349.58 546.229 1348.2 547.633C1346.82 549.011 1345.22 550.09 1343.42 550.87C1341.62 551.624 1339.7 552.001 1337.67 552.001C1335.37 552.001 1333.39 551.507 1331.71 550.519C1330.04 549.531 1328.75 548.166 1327.84 546.424C1326.95 544.682 1326.51 542.68 1326.51 540.418C1326.51 538.234 1326.9 536.219 1327.68 534.373C1328.46 532.501 1329.55 530.876 1330.93 529.498C1332.31 528.093 1333.91 527.014 1335.71 526.26C1337.51 525.48 1339.43 525.09 1341.46 525.09ZM1338.02 550.441C1339.4 550.441 1340.67 550.09 1341.82 549.388C1342.99 548.686 1344.01 547.711 1344.87 546.463C1345.76 545.215 1346.44 543.746 1346.91 542.056C1347.4 540.34 1347.65 538.481 1347.65 536.479C1347.65 534.659 1347.43 533.008 1346.99 531.526C1346.54 530.044 1345.84 528.86 1344.87 527.976C1343.91 527.092 1342.65 526.65 1341.11 526.65C1339.73 526.65 1338.45 527.001 1337.27 527.703C1336.13 528.405 1335.11 529.38 1334.22 530.629C1333.36 531.877 1332.68 533.346 1332.18 535.036C1331.71 536.726 1331.48 538.572 1331.48 540.574C1331.48 542.394 1331.7 544.058 1332.15 545.566C1332.61 547.048 1333.33 548.231 1334.3 549.115C1335.26 549.999 1336.5 550.441 1338.02 550.441Z" fill="#E4BB6B"/>
<path d="M1354.11 551.609L1354.31 550.245H1357.05L1357.32 549.971L1360.53 527.117L1360.22 526.844H1357.59L1357.79 525.479H1376.31L1376.82 531.719L1375.49 532.109C1375.2 530.731 1374.75 529.666 1374.12 528.911C1373.49 528.157 1372.68 527.624 1371.69 527.312C1370.73 527 1369.54 526.844 1368.13 526.844H1365.5L1365.23 527.117L1362.02 549.971L1362.29 550.245H1366.25L1366.05 551.609H1354.11Z" fill="#E4BB6B"/>
<path d="M1393.24 525.09C1395.54 525.09 1397.52 525.584 1399.19 526.572C1400.86 527.56 1402.14 528.925 1403.03 530.668C1403.94 532.384 1404.4 534.386 1404.4 536.674C1404.4 538.858 1404.01 540.886 1403.23 542.758C1402.44 544.604 1401.36 546.229 1399.98 547.633C1398.59 549.011 1397 550.09 1395.2 550.87C1393.4 551.624 1391.48 552.001 1389.44 552.001C1387.15 552.001 1385.16 551.507 1383.49 550.519C1381.82 549.531 1380.53 548.166 1379.61 546.424C1378.73 544.682 1378.28 542.68 1378.28 540.418C1378.28 538.234 1378.67 536.219 1379.46 534.373C1380.24 532.501 1381.32 530.876 1382.71 529.498C1384.09 528.093 1385.68 527.014 1387.48 526.26C1389.29 525.48 1391.2 525.09 1393.24 525.09ZM1389.79 550.441C1391.18 550.441 1392.44 550.09 1393.59 549.388C1394.77 548.686 1395.79 547.711 1396.65 546.463C1397.53 545.215 1398.21 543.746 1398.68 542.056C1399.18 540.34 1399.43 538.481 1399.43 536.479C1399.43 534.659 1399.21 533.008 1398.76 531.526C1398.32 530.044 1397.61 528.86 1396.65 527.976C1395.68 527.092 1394.43 526.65 1392.89 526.65C1391.5 526.65 1390.23 527.001 1389.05 527.703C1387.9 528.405 1386.88 529.38 1386 530.629C1385.14 531.877 1384.46 533.346 1383.96 535.036C1383.49 536.726 1383.26 538.572 1383.26 540.574C1383.26 542.394 1383.48 544.058 1383.92 545.566C1384.39 547.048 1385.11 548.231 1386.07 549.115C1387.04 549.999 1388.28 550.441 1389.79 550.441Z" fill="#E4BB6B"/>
<path d="M1439.04 525.479L1439.59 532.07L1438.26 532.461C1437.97 531.005 1437.5 529.874 1436.85 529.067C1436.23 528.261 1435.42 527.689 1434.42 527.351C1433.46 527.013 1432.27 526.844 1430.86 526.844L1427.61 549.971L1427.92 550.245H1430.55L1430.35 551.609H1419.74L1419.94 550.245H1422.64L1422.91 549.971L1426.16 526.844C1424.8 526.844 1423.58 527.013 1422.48 527.351C1421.38 527.689 1420.41 528.261 1419.54 529.067C1418.71 529.874 1417.95 531.005 1417.27 532.461L1416.02 532.07L1418.41 525.479H1439.04Z" fill="#E4BB6B"/>
<path d="M1460.73 544.2H1462.1L1459.36 551.609H1439.04L1439.23 550.245H1441.98L1442.25 549.971L1445.46 527.117L1445.19 526.844H1442.52L1442.72 525.479H1462.26L1462.81 531.719L1461.44 532.109C1461.15 530.731 1460.69 529.666 1460.07 528.911C1459.44 528.157 1458.63 527.624 1457.64 527.312C1456.65 527 1455.46 526.844 1454.07 526.844H1450.43L1450.16 527.117L1448.71 537.375H1451.84C1452.97 537.375 1453.93 537.05 1454.74 536.4C1455.55 535.724 1456.08 534.619 1456.35 533.085H1457.72L1456.31 543.03H1454.94C1455.09 541.496 1454.86 540.404 1454.23 539.754C1453.63 539.078 1452.77 538.74 1451.65 538.74H1448.51L1446.95 549.971L1447.22 550.245H1451.57C1453.66 550.245 1455.45 549.751 1456.93 548.763C1458.45 547.775 1459.71 546.254 1460.73 544.2Z" fill="#E4BB6B"/>
<path d="M1470.31 551.609H1462.48L1462.68 550.245H1464.95L1478.26 525.479H1481.04L1487.07 550.245H1489.58L1489.38 551.609H1479.09L1479.28 550.245H1481.75L1482.02 549.971L1477.52 530.628H1477.32L1466.99 549.971L1467.3 550.245H1470.51L1470.31 551.609ZM1470.35 541.236H1483.12L1482.92 542.601H1470.16L1470.35 541.236Z" fill="#E4BB6B"/>
<path d="M1512.43 525.479L1512.97 532.07L1511.64 532.461C1511.36 531.005 1510.89 529.874 1510.23 529.067C1509.61 528.261 1508.8 527.689 1507.81 527.351C1506.84 527.013 1505.65 526.844 1504.24 526.844L1500.99 549.971L1501.31 550.245H1503.93L1503.73 551.609H1493.12L1493.32 550.245H1496.02L1496.29 549.971L1499.54 526.844C1498.19 526.844 1496.96 527.013 1495.86 527.351C1494.77 527.689 1493.79 528.261 1492.93 529.067C1492.09 529.874 1491.33 531.005 1490.65 532.461L1489.4 532.07L1491.79 525.479H1512.43Z" fill="#E4BB6B"/>
<path d="M1512.42 551.609L1512.62 550.245H1515.36L1515.63 549.971L1518.88 527.117L1518.57 526.844H1515.9L1516.1 525.479H1527.97C1529.14 525.479 1530.28 525.596 1531.37 525.83C1532.49 526.038 1533.5 526.389 1534.39 526.883C1535.27 527.377 1535.98 528.04 1536.5 528.872C1537.02 529.679 1537.28 530.679 1537.28 531.875C1537.28 533.279 1536.93 534.515 1536.23 535.581C1535.52 536.621 1534.61 537.491 1533.49 538.193C1532.36 538.895 1531.16 539.429 1529.88 539.793C1528.63 540.131 1527.44 540.299 1526.32 540.299H1521.7L1520.33 549.971L1520.6 550.245H1524.56L1524.36 551.609H1512.42ZM1521.9 538.935H1525.38C1526.53 538.935 1527.64 538.739 1528.71 538.349C1529.78 537.959 1530.64 537.297 1531.29 536.361C1531.95 535.399 1532.27 534.112 1532.27 532.5C1532.27 531.148 1532.02 530.056 1531.53 529.223C1531.06 528.391 1530.43 527.793 1529.65 527.429C1528.87 527.039 1528 526.844 1527.06 526.844H1523.85L1523.58 527.117L1521.9 538.935Z" fill="#E4BB6B"/>
<path d="M1543.73 551.609H1535.9L1536.1 550.245H1538.37L1551.68 525.479H1554.46L1560.49 550.245H1563L1562.8 551.609H1552.51L1552.7 550.245H1555.17L1555.44 549.971L1550.94 530.628H1550.74L1540.41 549.971L1540.72 550.245H1543.93L1543.73 551.609ZM1543.77 541.236H1556.54L1556.34 542.601H1543.58L1543.77 541.236Z" fill="#E4BB6B"/>
</g>
</g>
<defs>
<clipPath id="clip0_700_4">
<rect width="1920" height="1080" fill="white"/>
</clipPath>
</defs>
</svg>
