<svg width="375" height="720" viewBox="0 0 375 720" fill="none" xmlns="http://www.w3.org/2000/svg">
<g clip-path="url(#clip0_700_51)">
<path fill-rule="evenodd" clip-rule="evenodd" d="M375 0H0V720H375V0ZM51.2896 295.986C48.4224 300.95 46.4925 306.797 45.5 313.527H122.419L135.321 277.949H129.532C127.436 282.03 125.01 285.119 122.253 287.216C119.607 289.201 116.188 290.525 111.998 291.187C107.917 291.739 102.679 292.014 96.2829 292.014H62.7033C66.2322 287.05 70.5331 282.858 75.6058 279.438C80.7889 275.908 86.3028 272.764 92.1475 270.006C97.9922 267.248 103.727 264.6 109.351 262.062C114.975 259.415 120.103 256.602 124.735 253.623C129.366 250.534 133.061 246.949 135.818 242.867C138.685 238.674 140.118 233.655 140.118 227.808C140.118 221.851 138.74 217.107 135.983 213.577C133.226 210.046 129.807 207.399 125.727 205.633C121.647 203.758 117.456 202.544 113.155 201.993C108.855 201.331 105.16 201 102.073 201C92.8092 201 84.814 202.544 78.0871 205.633C71.4704 208.722 66.3425 212.749 62.7033 217.714C59.1744 222.678 57.41 227.973 57.41 233.6C57.41 238.344 58.5679 241.763 60.8838 243.86C63.1996 245.956 65.9014 247.004 68.9892 247.004C73.0695 247.004 76.5983 245.57 79.5758 242.701C82.6636 239.723 84.2075 236.192 84.2075 232.11C84.2075 228.249 82.829 225.326 80.0721 223.34C77.3151 221.354 73.8414 220.692 69.6508 221.354C72.2975 217.162 76.2124 213.852 81.3954 211.425C86.6888 208.888 91.8718 207.619 96.9446 207.619C100.804 207.619 103.947 208.391 106.373 209.936C108.799 211.37 110.619 213.466 111.832 216.224C113.045 218.872 113.652 222.126 113.652 225.988C113.652 231.724 112.494 236.799 110.178 241.212C107.972 245.514 104.995 249.376 101.245 252.796C97.6063 256.215 93.4708 259.47 88.8392 262.559C84.3178 265.538 79.6861 268.682 74.9442 271.991C70.3125 275.191 65.9014 278.721 61.7108 282.582C57.6306 286.443 54.1568 290.911 51.2896 295.986ZM234.429 221.354C236.855 215.728 238.565 209.495 239.557 202.655H166.112L153.706 236.578L158.999 238.233C161.094 234.041 163.465 230.952 166.112 228.966C168.869 226.98 172.232 225.712 176.202 225.16C180.283 224.498 185.355 224.167 191.421 224.167H225.827C222.299 231.89 218.108 238.564 213.256 244.191C208.514 249.707 203.606 254.726 198.534 259.249C193.571 263.662 188.884 267.965 184.473 272.157C180.172 276.349 176.699 280.872 174.052 285.726C171.405 290.47 170.082 296.041 170.082 302.44C170.082 305.639 170.909 308.563 172.563 311.21C174.328 313.858 177.25 315.182 181.33 315.182C186.183 315.182 189.932 313.582 192.579 310.383C195.225 307.073 196.604 303.543 196.714 299.792C196.935 293.063 197.927 286.94 199.692 281.424C201.566 275.908 203.937 270.723 206.805 265.868C209.782 260.904 212.925 256.105 216.233 251.472C219.652 246.838 222.96 242.094 226.158 237.24C229.356 232.276 232.113 226.98 234.429 221.354ZM327.523 224.167H264.83L258.875 250.313C261.632 248.438 265.16 246.783 269.461 245.349C273.762 243.804 279.386 243.032 286.334 243.032C299.457 243.032 309.272 245.9 315.778 251.637C322.395 257.374 325.703 264.82 325.703 273.977C325.703 282.141 323.332 289.367 318.59 295.655C313.848 301.833 307.507 306.632 299.567 310.052C291.627 313.472 282.915 315.182 273.431 315.182C265.602 315.182 259.205 314.079 254.243 311.872C249.391 309.666 245.807 306.797 243.491 303.267C241.175 299.627 240.017 295.876 240.017 292.014C240.017 287.05 241.561 282.968 244.649 279.769C247.737 276.57 251.321 274.97 255.401 274.97C258.819 274.97 261.576 276.073 263.672 278.28C265.767 280.486 266.815 283.244 266.815 286.554C266.815 290.305 265.491 293.614 262.845 296.482C260.198 299.241 256.779 300.62 252.589 300.62C254.794 303.378 257.717 305.418 261.356 306.742C264.995 307.956 268.579 308.563 272.108 308.563C278.284 308.563 283.301 307.128 287.161 304.26C291.021 301.281 293.833 297.255 295.597 292.18C297.472 287.105 298.409 281.479 298.409 275.301C298.409 270.447 297.803 266.089 296.59 262.228C295.487 258.367 293.612 255.333 290.965 253.126C288.429 250.81 284.9 249.651 280.379 249.651C277.181 249.651 273.321 250.368 268.8 251.803C264.278 253.237 259.647 256.215 254.905 260.739L250.108 259.415L262.845 202.655H330.5L327.523 224.167ZM54.3801 323.979H52.3129H49.4188H47.1897L47.0999 324.607H48.0706L48.2503 324.787L46.7763 335.2L46.5965 335.379H45.5899L45.5 336.007H50.6232L50.713 335.379H49.7423L49.5626 335.2L51.0366 324.787L51.2164 324.607H52.223H54.2903H55.261L55.4407 324.787L53.9667 335.2L53.7869 335.379H52.7803L52.6904 336.007H57.8136L57.9034 335.379H56.9327L56.753 335.2L58.227 324.787L58.4068 324.607H59.4134L59.5033 323.979H56.0699H54.3801ZM67.8279 323.799C68.9664 323.799 69.9311 324.027 70.722 324.482C71.5249 324.924 72.1301 325.547 72.5376 326.349C72.957 327.151 73.1668 328.084 73.1668 329.149C73.1668 330.131 72.993 331.052 72.6455 331.914C72.2979 332.764 71.8066 333.512 71.1714 334.158C70.5363 334.793 69.7873 335.289 68.9244 335.648C68.0736 336.007 67.1388 336.187 66.1202 336.187C64.9817 336.187 64.011 335.966 63.2081 335.523C62.4171 335.068 61.8119 334.44 61.3925 333.638C60.985 332.824 60.7813 331.89 60.7813 330.837C60.7813 329.844 60.9551 328.922 61.3026 328.072C61.6501 327.222 62.1415 326.48 62.7766 325.846C63.4118 325.2 64.1548 324.697 65.0057 324.338C65.8685 323.979 66.8092 323.799 67.8279 323.799ZM66.264 335.469C66.7793 335.469 67.2706 335.313 67.738 335.002C68.2054 334.679 68.6248 334.23 68.9963 333.656C69.3678 333.081 69.6614 332.399 69.8772 331.609C70.0929 330.807 70.2007 329.927 70.2007 328.97C70.2007 328.192 70.1168 327.468 69.9491 326.797C69.7813 326.115 69.5116 325.565 69.1401 325.146C68.7806 324.727 68.2953 324.517 67.6841 324.517C67.1688 324.517 66.6774 324.679 66.21 325.002C65.7427 325.313 65.3232 325.756 64.9517 326.331C64.5802 326.905 64.2866 327.593 64.0709 328.395C63.8552 329.185 63.7473 330.059 63.7473 331.016C63.7473 331.794 63.8312 332.525 63.999 333.207C64.1668 333.877 64.4364 334.422 64.8079 334.84C65.1794 335.259 65.6648 335.469 66.264 335.469ZM82.3646 330.155C81.8013 329.915 81.1063 329.754 80.2794 329.67C81.1422 329.526 81.8912 329.317 82.5264 329.042C83.1615 328.754 83.6528 328.389 84.0004 327.946C84.3479 327.504 84.5217 326.971 84.5217 326.349C84.5217 325.858 84.3959 325.451 84.1442 325.128C83.9045 324.805 83.5869 324.547 83.1915 324.356C82.796 324.152 82.3706 324.009 81.9152 323.925C81.4598 323.841 81.0224 323.799 80.6029 323.799C80.0037 323.799 79.4165 323.889 78.8413 324.069C78.266 324.236 77.7447 324.482 77.2774 324.805C76.822 325.128 76.4565 325.505 76.1808 325.936C75.9172 326.367 75.7854 326.833 75.7854 327.336C75.7854 327.707 75.9052 328.012 76.1449 328.252C76.3846 328.491 76.6782 328.611 77.0257 328.611C77.4691 328.611 77.8526 328.455 78.1762 328.144C78.5117 327.833 78.6795 327.456 78.6795 327.013C78.6795 326.594 78.5357 326.277 78.2481 326.061C77.9724 325.834 77.6249 325.756 77.2055 325.828C77.553 325.409 77.9545 325.086 78.4099 324.859C78.8772 324.631 79.3626 324.517 79.8659 324.517C80.4771 324.517 80.9205 324.691 81.1961 325.038C81.4837 325.385 81.6276 325.84 81.6276 326.403C81.6276 326.786 81.5736 327.157 81.4658 327.516C81.3699 327.875 81.2081 328.198 80.9804 328.485C80.7527 328.772 80.4531 329 80.0816 329.167C79.7101 329.335 79.2547 329.419 78.7154 329.419L78.6256 330.047C79.2967 330.047 79.812 330.161 80.1715 330.388C80.543 330.604 80.8007 330.885 80.9445 331.232C81.0883 331.579 81.1602 331.944 81.1602 332.327C81.1602 333.332 80.8965 334.11 80.3692 334.661C79.8419 335.2 79.1109 335.469 78.1762 335.469C77.7567 335.469 77.3792 335.409 77.0437 335.289C76.7081 335.158 76.4025 334.99 76.1269 334.787C76.5823 334.787 76.9538 334.637 77.2414 334.338C77.529 334.027 77.6728 333.668 77.6728 333.261C77.6728 332.902 77.559 332.602 77.3313 332.363C77.1036 332.124 76.804 332.004 76.4325 332.004C76.0011 332.004 75.6116 332.177 75.264 332.525C74.9285 332.86 74.7607 333.291 74.7607 333.817C74.7607 334.296 74.9225 334.715 75.2461 335.074C75.5816 335.421 76.043 335.696 76.6302 335.9C77.2174 336.091 77.9005 336.187 78.6795 336.187C79.3506 336.187 80.0037 336.115 80.6389 335.972C81.286 335.828 81.8672 335.606 82.3825 335.307C82.9098 335.008 83.3293 334.625 83.6409 334.158C83.9525 333.691 84.1082 333.135 84.1082 332.489C84.1082 331.95 83.9584 331.489 83.6588 331.106C83.3712 330.711 82.9398 330.394 82.3646 330.155ZM84.7066 339.688L85.3178 335.379H86.5402C86.8158 334.817 87.0795 334.122 87.3311 333.297C87.5828 332.459 87.8225 331.555 88.0502 330.586C88.2899 329.616 88.4996 328.635 88.6794 327.641C88.8711 326.636 89.0329 325.684 89.1647 324.787L88.9849 324.607H87.2772L87.3671 323.979H97.7932L97.7033 324.607H96.6966L96.5169 324.787L95.0428 335.2L95.2046 335.379H96.1933L95.6001 339.688H95.0069C95.0668 338.91 95.0309 338.246 94.899 337.695C94.7792 337.144 94.5515 336.726 94.216 336.438C93.8924 336.151 93.443 336.007 92.8678 336.007H88.4636C87.6008 336.007 86.9177 336.325 86.4144 336.959C85.923 337.605 85.5515 338.515 85.2999 339.688H84.7066ZM87.3851 335.379H92.0588L92.2566 335.2L93.7306 324.787L93.5508 324.607H90.1534L89.9736 324.787C89.8658 325.469 89.7339 326.271 89.5781 327.192C89.4224 328.114 89.2366 329.072 89.0209 330.065C88.8052 331.058 88.5595 332.016 88.2839 332.937C88.0082 333.859 87.7086 334.673 87.3851 335.379ZM98.2153 335.379L98.1255 336.007H103.698L103.788 335.379H102.368L102.188 335.2L102.817 330.801H104.884C105.424 330.801 105.987 330.717 106.574 330.55C107.161 330.37 107.707 330.113 108.21 329.778C108.725 329.443 109.139 329.036 109.45 328.557C109.762 328.066 109.918 327.504 109.918 326.869C109.918 326.343 109.804 325.9 109.576 325.541C109.348 325.17 109.037 324.871 108.641 324.643C108.246 324.416 107.791 324.248 107.275 324.14C106.76 324.033 106.221 323.979 105.657 323.979H99.8152L99.7253 324.607H100.696L100.876 324.787L99.4017 335.2L99.222 335.379H98.2153ZM104.255 330.173H102.907L103.662 324.787L103.842 324.607H105.028C105.376 324.607 105.693 324.697 105.981 324.876C106.269 325.044 106.502 325.313 106.682 325.684C106.862 326.055 106.952 326.534 106.952 327.121C106.952 327.815 106.826 328.389 106.574 328.844C106.323 329.299 105.987 329.634 105.568 329.85C105.16 330.065 104.723 330.173 104.255 330.173ZM113.506 336.007H109.821L109.911 335.379H110.953L117.263 323.979H118.521L121.577 335.379H122.62L122.53 336.007H117.209L117.299 335.379H118.359L118.539 335.2L117.728 332.058H113.651L111.924 335.2L112.104 335.379H113.596L113.506 336.007ZM116.454 327.121L117.566 331.429H113.996L116.364 327.121H116.454ZM134.886 330.586C134.275 330.095 133.46 329.808 132.441 329.724C133.28 329.568 133.969 329.347 134.509 329.06C135.048 328.772 135.449 328.413 135.713 327.982C135.977 327.552 136.108 327.067 136.108 326.528C136.108 326.049 135.989 325.648 135.749 325.325C135.521 324.99 135.204 324.727 134.796 324.535C134.401 324.332 133.939 324.188 133.412 324.105C132.897 324.021 132.357 323.979 131.794 323.979H125.593L125.503 324.607H126.473L126.653 324.787L125.179 335.2L124.999 335.379H123.993L123.903 336.007H130.824C131.363 336.007 131.92 335.942 132.495 335.81C133.083 335.666 133.622 335.457 134.113 335.182C134.616 334.894 135.024 334.529 135.336 334.086C135.647 333.644 135.803 333.111 135.803 332.489C135.803 331.699 135.497 331.064 134.886 330.586ZM129.439 324.787L129.619 324.607H130.985C131.441 324.607 131.83 324.691 132.154 324.859C132.477 325.026 132.723 325.283 132.891 325.631C133.059 325.966 133.142 326.397 133.142 326.923C133.142 327.522 133.011 328.024 132.747 328.431C132.495 328.838 132.166 329.143 131.758 329.347C131.351 329.538 130.919 329.634 130.464 329.634H128.756L129.439 324.787ZM131.471 335.074C131.075 335.277 130.65 335.379 130.194 335.379H128.163L127.983 335.2L128.666 330.262H130.913C131.405 330.262 131.848 330.466 132.244 330.873C132.639 331.28 132.837 331.872 132.837 332.65C132.837 333.261 132.711 333.769 132.459 334.176C132.208 334.571 131.878 334.87 131.471 335.074ZM140.698 324.607L140.788 323.979H145.911H148.338H151.034L150.944 324.607H149.938L149.758 324.787L148.284 335.2L148.464 335.379H149.434L149.344 336.007H144.221L144.311 335.379H145.318L145.498 335.2L146.972 324.787L146.792 324.607H145.821H143.538L143.358 324.787C143.251 325.517 143.125 326.307 142.981 327.157C142.849 327.994 142.687 328.838 142.496 329.688C142.304 330.538 142.082 331.352 141.83 332.13C141.579 332.908 141.285 333.602 140.95 334.212C140.626 334.823 140.255 335.307 139.835 335.666C139.416 336.013 138.942 336.187 138.415 336.187C138.02 336.187 137.702 336.061 137.462 335.81C137.223 335.547 137.103 335.247 137.103 334.912C137.103 334.481 137.247 334.128 137.534 333.853C137.822 333.566 138.181 333.422 138.613 333.422C138.852 333.422 139.104 333.512 139.368 333.691C139.631 333.871 139.769 334.188 139.781 334.643C140.093 334.308 140.38 333.817 140.644 333.171C140.908 332.525 141.153 331.765 141.381 330.891C141.609 330.005 141.818 329.048 142.01 328.018C142.214 326.977 142.394 325.9 142.549 324.787L142.406 324.607H140.698ZM161.972 332.596H161.342C160.779 333.542 160.102 334.242 159.311 334.697C158.532 335.152 157.711 335.379 156.848 335.379H155.59L155.41 335.2L156.129 330.083H157.082C157.597 330.083 158.029 330.262 158.376 330.622C158.736 330.969 158.874 331.447 158.79 332.058H159.419L160.066 327.48H159.437C159.353 328.09 159.083 328.575 158.628 328.934C158.173 329.281 157.687 329.455 157.172 329.455H156.219L156.884 324.787L157.064 324.607H157.999C158.574 324.607 159.101 324.679 159.581 324.823C160.06 324.966 160.48 325.212 160.839 325.559C161.199 325.906 161.474 326.397 161.666 327.031L162.295 326.851L162.043 323.979H153.038L152.948 324.607H153.918L154.098 324.787L152.624 335.2L152.444 335.379H151.438L151.348 336.007H160.713L161.972 332.596ZM172.616 323.979H177.739L177.649 324.607H176.643L176.463 324.787L174.989 335.2L175.168 335.379H176.139L176.049 336.007H170.926L171.016 335.379H172.023L172.202 335.2L172.921 330.083H168.158L167.439 335.2L167.619 335.379H168.589L168.499 336.007H163.376L163.466 335.379H164.473L164.653 335.2L166.127 324.787L165.947 324.607H164.976L165.066 323.979H170.189L170.099 324.607H169.075L168.913 324.787L168.248 329.455H173.011L173.676 324.787L173.497 324.607H172.526L172.616 323.979ZM182.303 333.77L182.1 335.2L182.28 335.379H183.251L183.161 336.007H178.038L178.128 335.379H179.134L179.314 335.2L180.788 324.787L180.608 324.607H179.638L179.728 323.979H184.851L184.761 324.607H183.754L183.575 324.787L182.499 332.387L188.203 325.743L188.338 324.787L188.158 324.607H187.188L187.278 323.979H192.401L192.311 324.607H191.304L191.124 324.787L189.65 335.2L189.83 335.379H190.801L190.711 336.007H185.588L185.678 335.379H186.684L186.864 335.2L188.007 327.126L182.303 333.77ZM196.762 335.2L196.965 333.77L202.669 327.126L201.526 335.2L201.346 335.379H200.339L200.25 336.007H205.373L205.463 335.379H204.492L204.312 335.2L205.786 324.787L205.966 324.607H206.973L207.062 323.979H201.939L201.849 324.607H202.82L203 324.787L202.864 325.743L197.16 332.387L198.236 324.787L198.416 324.607H199.423L199.512 323.979H194.389L194.299 324.607H195.27L195.45 324.787L193.976 335.2L193.796 335.379H192.789L192.7 336.007H197.823L197.913 335.379H196.942L196.762 335.2ZM200.825 323.189C200.429 323.189 200.028 323.135 199.62 323.027C199.225 322.92 198.889 322.752 198.614 322.525C198.35 322.297 198.218 321.998 198.218 321.627C198.218 321.304 198.344 321.047 198.596 320.855C198.847 320.664 199.111 320.568 199.387 320.568C199.638 320.568 199.842 320.646 199.998 320.801C200.154 320.957 200.232 321.136 200.232 321.34C200.232 321.531 200.172 321.699 200.052 321.842C199.944 321.986 199.806 322.088 199.638 322.148C199.77 322.327 199.938 322.459 200.142 322.543C200.357 322.626 200.615 322.668 200.915 322.668C201.202 322.668 201.484 322.626 201.76 322.543C202.035 322.459 202.239 322.327 202.371 322.148C202.215 322.088 202.107 321.998 202.047 321.878C201.987 321.759 201.957 321.639 201.957 321.519C201.957 321.256 202.065 321.035 202.281 320.855C202.509 320.664 202.76 320.568 203.036 320.568C203.275 320.568 203.485 320.646 203.665 320.801C203.845 320.945 203.935 321.13 203.935 321.358C203.935 321.753 203.767 322.088 203.431 322.363C203.096 322.638 202.688 322.848 202.209 322.991C201.73 323.123 201.268 323.189 200.825 323.189ZM221.08 334.679C220.373 335.086 219.654 335.289 218.923 335.289C218.156 335.289 217.545 335.086 217.09 334.679C216.634 334.26 216.305 333.703 216.101 333.009C215.897 332.315 215.796 331.549 215.796 330.711C215.796 329.873 215.885 329.084 216.065 328.341C216.245 327.599 216.509 326.941 216.856 326.367C217.204 325.792 217.635 325.343 218.15 325.02C218.666 324.685 219.253 324.517 219.912 324.517C220.308 324.517 220.673 324.589 221.009 324.733C221.356 324.865 221.668 325.074 221.943 325.361C222.219 325.648 222.471 326.026 222.698 326.492C222.926 326.947 223.118 327.504 223.274 328.162L223.885 327.982C223.861 327.42 223.861 326.768 223.885 326.026C223.921 325.271 223.957 324.589 223.993 323.979H223.363L223.022 324.517C222.686 324.326 222.285 324.158 221.818 324.015C221.35 323.871 220.781 323.799 220.11 323.799C219.103 323.799 218.156 323.979 217.27 324.338C216.395 324.685 215.622 325.176 214.951 325.81C214.292 326.432 213.77 327.174 213.387 328.036C213.015 328.886 212.829 329.814 212.829 330.819C212.829 331.908 213.051 332.86 213.495 333.674C213.95 334.475 214.573 335.098 215.364 335.541C216.167 335.972 217.09 336.187 218.132 336.187H218.15C219.253 336.187 220.26 335.948 221.17 335.469C222.081 334.99 222.914 334.278 223.669 333.332L223.13 332.92C222.471 333.686 221.788 334.272 221.08 334.679ZM240.274 336.187C239.231 336.187 238.362 335.989 237.667 335.595C236.972 335.188 236.445 334.607 236.085 333.853C235.738 333.087 235.564 332.159 235.564 331.07C235.564 330.734 235.582 330.405 235.618 330.083H234.383L233.659 335.2L233.838 335.379H234.809L234.719 336.007H229.596L229.686 335.379H230.693L230.872 335.2L232.346 324.787L232.167 324.607H231.196L231.286 323.979H236.409L236.319 324.607H235.312L235.133 324.787L234.472 329.455H235.711C235.788 329.048 235.895 328.653 236.031 328.27C236.343 327.396 236.786 326.624 237.362 325.954C237.949 325.283 238.65 324.757 239.465 324.374C240.292 323.991 241.209 323.799 242.215 323.799C243.258 323.799 244.127 324.003 244.822 324.41C245.517 324.805 246.038 325.385 246.386 326.151C246.745 326.905 246.925 327.827 246.925 328.916C246.925 329.909 246.769 330.843 246.458 331.717C246.146 332.59 245.697 333.362 245.109 334.033C244.534 334.703 243.833 335.229 243.006 335.612C242.191 335.995 241.28 336.187 240.274 336.187ZM240.669 335.469C241.113 335.469 241.508 335.319 241.856 335.02C242.203 334.721 242.509 334.326 242.772 333.835C243.036 333.332 243.252 332.782 243.42 332.183C243.599 331.573 243.731 330.951 243.815 330.316C243.911 329.682 243.959 329.09 243.959 328.539C243.959 327.294 243.773 326.313 243.402 325.595C243.042 324.876 242.515 324.517 241.82 324.517C241.376 324.517 240.981 324.667 240.633 324.966C240.286 325.266 239.98 325.666 239.717 326.169C239.453 326.66 239.231 327.21 239.051 327.821C238.884 328.419 238.752 329.036 238.656 329.67C238.572 330.292 238.53 330.885 238.53 331.447C238.53 332.68 238.71 333.662 239.069 334.392C239.441 335.11 239.974 335.469 240.669 335.469ZM257.43 325.738C257.777 326.133 258.047 326.678 258.239 327.372L258.868 327.192L258.598 323.979H255.003H253.673H249.88L249.79 324.607H250.761L250.94 324.787L249.466 335.2L249.287 335.379H248.28L248.19 336.007H254.212C255.171 336.007 256.028 335.84 256.783 335.505C257.549 335.17 258.149 334.709 258.58 334.122C259.024 333.536 259.245 332.872 259.245 332.13C259.245 331.663 259.155 331.25 258.976 330.891C258.796 330.52 258.526 330.209 258.167 329.957C257.819 329.706 257.394 329.514 256.89 329.383C256.387 329.251 255.812 329.185 255.165 329.185H253.097L253.727 324.787L253.906 324.607H254.913H254.985C255.416 324.607 255.842 324.697 256.261 324.876C256.693 325.044 257.082 325.331 257.43 325.738ZM253.583 335.379H252.432L252.253 335.2L253.008 329.814H254.356C254.955 329.814 255.422 330.041 255.758 330.496C256.105 330.939 256.279 331.543 256.279 332.309C256.279 333.219 256.034 333.961 255.542 334.535C255.051 335.098 254.398 335.379 253.583 335.379ZM264.737 335.2L264.94 333.77L270.644 327.126L269.501 335.2L269.321 335.379H268.315L268.225 336.007H273.348L273.438 335.379H272.467L272.287 335.2L273.761 324.787L273.941 324.607H274.948L275.038 323.979H269.915L269.825 324.607H270.795L270.975 324.787L270.84 325.743L265.136 332.387L266.211 324.787L266.391 324.607H267.398L267.488 323.979H262.365L262.275 324.607H263.245L263.425 324.787L261.951 335.2L261.771 335.379H260.765L260.675 336.007H265.798L265.888 335.379H264.917L264.737 335.2ZM278.824 323.979L278.734 324.607H280.442L280.586 324.787C280.43 325.9 280.25 326.977 280.046 328.018C279.854 329.048 279.645 330.005 279.417 330.891C279.189 331.765 278.944 332.525 278.68 333.171C278.416 333.817 278.129 334.308 277.817 334.643C277.805 334.188 277.667 333.871 277.404 333.691C277.14 333.512 276.888 333.422 276.649 333.422C276.217 333.422 275.858 333.566 275.57 333.853C275.283 334.128 275.139 334.481 275.139 334.912C275.139 335.247 275.259 335.547 275.498 335.81C275.738 336.061 276.056 336.187 276.451 336.187C276.978 336.187 277.452 336.013 277.871 335.666C278.291 335.307 278.662 334.823 278.986 334.212C279.321 333.602 279.615 332.908 279.867 332.13C280.118 331.352 280.34 330.538 280.532 329.688C280.723 328.838 280.885 327.994 281.017 327.157C281.161 326.307 281.287 325.517 281.394 324.787L281.574 324.607H283.857H284.828L285.008 324.787L283.534 335.2L283.354 335.379H282.347L282.257 336.007H287.38L287.47 335.379H286.5L286.32 335.2L287.794 324.787L287.974 324.607H288.98L289.07 323.979H286.374H283.947H278.824ZM299.378 332.596H300.008L298.749 336.007H289.384L289.474 335.379H290.48L290.66 335.2L292.134 324.787L291.954 324.607H290.984L291.074 323.979H300.08L300.331 326.851L299.702 327.031C299.51 326.397 299.235 325.906 298.875 325.559C298.516 325.212 298.096 324.966 297.617 324.823C297.137 324.679 296.61 324.607 296.035 324.607H295.1L294.92 324.787L294.255 329.455H295.208C295.723 329.455 296.209 329.281 296.664 328.934C297.12 328.575 297.389 328.09 297.473 327.48H298.102L297.455 332.058H296.826C296.91 331.447 296.772 330.969 296.412 330.622C296.065 330.262 295.633 330.083 295.118 330.083H294.165L293.446 335.2L293.626 335.379H294.884C295.747 335.379 296.568 335.152 297.347 334.697C298.138 334.242 298.815 333.542 299.378 332.596ZM312.036 332.596H311.407C310.844 333.542 310.167 334.242 309.376 334.697C308.597 335.152 307.776 335.379 306.913 335.379H305.655L305.475 335.2L306.194 330.083H307.147C307.662 330.083 308.093 330.262 308.441 330.622C308.8 330.969 308.938 331.447 308.854 332.058H309.484L310.131 327.48H309.502C309.418 328.09 309.148 328.575 308.693 328.934C308.237 329.281 307.752 329.455 307.237 329.455H306.284L306.949 324.787L307.129 324.607H308.063C308.639 324.607 309.166 324.679 309.645 324.823C310.125 324.966 310.544 325.212 310.904 325.559C311.263 325.906 311.539 326.397 311.731 327.031L312.36 326.851L312.108 323.979H303.102L303.012 324.607H303.983L304.163 324.787L302.689 335.2L302.509 335.379H301.502L301.412 336.007H310.778L312.036 332.596ZM329.403 324.607L329.224 324.787L327.75 335.2L327.929 335.379H328.9L328.81 336.007H323.687L323.777 335.379H324.784L324.963 335.2L326.204 326.438H326.114L321.081 336.007H319.948L317.27 326.079H317.18L315.885 335.2L316.065 335.379H317.575L317.485 336.007H313.441L313.531 335.379H314.897L315.077 335.2L316.551 324.787L316.371 324.607H315.041L315.131 323.979H319.714L321.997 332.417H322.087L326.545 323.979H330.5L330.41 324.607H329.403ZM54.6622 345.261H52.5293H49.5432H47.2434L47.1507 345.917H48.1522L48.3377 346.104L46.8168 356.97L46.6314 357.157H45.5927L45.5 357.813H50.7859L50.8786 357.157H49.8771L49.6916 356.97L51.2125 346.104L51.3979 345.917H52.4366H54.5694H55.571L55.7564 346.104L54.2356 356.97L54.0501 357.157H53.0115L52.9188 357.813H58.2046L58.2974 357.157H57.2958L57.1104 356.97L58.6312 346.104L58.8167 345.917H59.8553L59.9481 345.261H56.4056H54.6622ZM70.3917 354.253H71.0409L69.7426 357.813H60.0796L60.1724 357.157H61.211L61.3965 356.97L62.9173 346.104L62.7318 345.917H61.7303L61.823 345.261H71.115L71.3747 348.259L70.7256 348.446C70.5277 347.784 70.2433 347.272 69.8724 346.91C69.5015 346.547 69.0687 346.291 68.5741 346.142C68.0795 345.992 67.5355 345.917 66.942 345.917H65.9775L65.7921 346.104L65.1058 350.975H66.0888C66.6205 350.975 67.1213 350.794 67.5911 350.432C68.061 350.057 68.3392 349.551 68.4257 348.914H69.0749L68.4072 353.691H67.758C67.8446 353.054 67.7024 352.555 67.3315 352.193C66.9729 351.818 66.5278 351.631 65.9961 351.631H65.0131L64.2712 356.97L64.4567 357.157H65.755C66.6452 357.157 67.4922 356.92 68.2959 356.445C69.112 355.971 69.8106 355.24 70.3917 354.253ZM72.3974 357.157L72.3046 357.813H78.0542L78.1469 357.157H76.6817L76.4963 356.97L77.1454 352.38H79.2783C79.8347 352.38 80.4158 352.292 81.0217 352.118C81.6276 351.93 82.1902 351.662 82.7095 351.312C83.2412 350.962 83.6677 350.538 83.9892 350.038C84.3107 349.526 84.4714 348.939 84.4714 348.277C84.4714 347.728 84.354 347.266 84.119 346.891C83.8841 346.504 83.5626 346.192 83.1546 345.954C82.7466 345.717 82.2767 345.542 81.745 345.43C81.2134 345.317 80.6569 345.261 80.0758 345.261H74.0481L73.9553 345.917H74.9569L75.1423 346.104L73.6215 356.97L73.436 357.157H72.3974ZM78.6292 351.724H77.2381L78.0171 346.104L78.2026 345.917H79.4267C79.7852 345.917 80.1129 346.01 80.4097 346.198C80.7064 346.373 80.9475 346.654 81.133 347.041C81.3185 347.428 81.4112 347.928 81.4112 348.539C81.4112 349.264 81.2814 349.863 81.0217 350.338C80.762 350.813 80.4158 351.162 79.9831 351.387C79.5627 351.612 79.1114 351.724 78.6292 351.724ZM93.7561 351.256C94.807 351.343 95.6478 351.643 96.2784 352.155C96.909 352.655 97.2243 353.317 97.2243 354.141C97.2243 354.79 97.0636 355.346 96.7421 355.808C96.4206 356.27 96.0002 356.651 95.4809 356.951C94.974 357.238 94.4176 357.457 93.8117 357.607C93.2182 357.744 92.6432 357.813 92.0868 357.813H84.9463L85.039 357.157H86.0776L86.2631 356.97L87.7839 346.104L87.5985 345.917H86.5969L86.6897 345.261H93.0884C93.6695 345.261 94.2259 345.305 94.7576 345.392C95.3016 345.48 95.7777 345.63 96.1857 345.842C96.6061 346.042 96.9338 346.316 97.1687 346.666C97.416 347.003 97.5396 347.422 97.5396 347.921C97.5396 348.483 97.4036 348.989 97.1316 349.439C96.8596 349.888 96.4454 350.263 95.8889 350.563C95.3325 350.862 94.6216 351.094 93.7561 351.256ZM90.8442 345.917L90.6587 346.104L89.9539 351.162H91.7159C92.1857 351.162 92.6309 351.062 93.0513 350.862C93.4717 350.65 93.8117 350.332 94.0714 349.907C94.3434 349.482 94.4794 348.958 94.4794 348.333C94.4794 347.784 94.3928 347.334 94.2197 346.985C94.0466 346.622 93.7932 346.354 93.4593 346.179C93.1255 346.004 92.7236 345.917 92.2538 345.917H90.8442ZM91.4377 357.157C91.9075 357.157 92.3465 357.051 92.7545 356.839C93.1749 356.626 93.5149 356.314 93.7746 355.902C94.0343 355.477 94.1641 354.946 94.1641 354.309C94.1641 353.498 93.9601 352.879 93.552 352.455C93.144 352.03 92.6865 351.818 92.1796 351.818H89.8612L89.1564 356.97L89.3419 357.157H91.4377ZM109.842 345.786C109.026 345.311 108.031 345.074 106.856 345.074C105.805 345.074 104.834 345.261 103.944 345.636C103.066 346.01 102.3 346.535 101.644 347.209C100.989 347.871 100.482 348.646 100.123 349.532C99.7649 350.419 99.5856 351.381 99.5856 352.417C99.5856 353.516 99.7958 354.491 100.216 355.34C100.649 356.177 101.273 356.832 102.089 357.307C102.918 357.769 103.919 358 105.094 358C106.145 358 107.109 357.813 107.987 357.438C108.878 357.063 109.65 356.545 110.306 355.883C110.961 355.209 111.468 354.428 111.827 353.541C112.185 352.642 112.364 351.681 112.364 350.656C112.364 349.545 112.148 348.571 111.715 347.734C111.295 346.897 110.67 346.248 109.842 345.786ZM106.763 356.764C106.281 357.088 105.774 357.251 105.242 357.251C104.624 357.251 104.123 357.032 103.74 356.595C103.357 356.158 103.079 355.59 102.905 354.89C102.732 354.178 102.646 353.417 102.646 352.605C102.646 351.606 102.757 350.694 102.98 349.87C103.202 349.033 103.505 348.315 103.888 347.715C104.272 347.116 104.705 346.654 105.187 346.329C105.669 345.992 106.176 345.823 106.708 345.823C107.338 345.823 107.839 346.042 108.21 346.479C108.593 346.916 108.871 347.49 109.045 348.202C109.218 348.902 109.304 349.657 109.304 350.469C109.304 351.468 109.193 352.386 108.97 353.223C108.748 354.047 108.445 354.759 108.062 355.359C107.678 355.958 107.245 356.426 106.763 356.764ZM113.508 357.813L113.601 357.157H114.658L114.844 356.97L116.327 346.104L116.142 345.917H115.14L115.233 345.261H124.173L124.414 348.259L123.783 348.446C123.585 347.784 123.301 347.272 122.93 346.91C122.559 346.547 122.126 346.291 121.632 346.142C121.137 345.992 120.593 345.917 120 345.917H119.388L119.202 346.104L117.718 356.97L117.904 357.157H119.369L119.276 357.813H113.508ZM135.904 345.786C135.088 345.311 134.093 345.074 132.918 345.074C131.867 345.074 130.896 345.261 130.006 345.636C129.128 346.01 128.362 346.535 127.706 347.209C127.051 347.871 126.544 348.646 126.185 349.532C125.827 350.419 125.648 351.381 125.648 352.417C125.648 353.516 125.858 354.491 126.278 355.34C126.711 356.177 127.335 356.832 128.151 357.307C128.98 357.769 129.981 358 131.156 358C132.207 358 133.172 357.813 134.049 357.438C134.94 357.063 135.712 356.545 136.368 355.883C137.023 355.209 137.53 354.428 137.889 353.541C138.247 352.642 138.426 351.681 138.426 350.656C138.426 349.545 138.21 348.571 137.777 347.734C137.357 346.897 136.732 346.248 135.904 345.786ZM132.825 356.764C132.343 357.088 131.836 357.251 131.304 357.251C130.686 357.251 130.185 357.032 129.802 356.595C129.419 356.158 129.141 355.59 128.968 354.89C128.794 354.178 128.708 353.417 128.708 352.605C128.708 351.606 128.819 350.694 129.042 349.87C129.264 349.033 129.567 348.315 129.951 347.715C130.334 347.116 130.767 346.654 131.249 346.329C131.731 345.992 132.238 345.823 132.77 345.823C133.4 345.823 133.901 346.042 134.272 346.479C134.655 346.916 134.933 347.49 135.107 348.202C135.28 348.902 135.366 349.657 135.366 350.469C135.366 351.468 135.255 352.386 135.032 353.223C134.81 354.047 134.507 354.759 134.124 355.359C133.74 355.958 133.308 356.426 132.825 356.764ZM144.007 357.813L144.099 357.157H145.138L145.323 356.97L146.844 346.104L146.659 345.917H145.657L145.75 345.261H151.778C152.359 345.261 152.915 345.317 153.447 345.43C153.979 345.542 154.449 345.717 154.857 345.954C155.265 346.192 155.586 346.504 155.821 346.891C156.056 347.266 156.173 347.728 156.173 348.277C156.173 348.939 156.013 349.526 155.691 350.038C155.37 350.538 154.943 350.962 154.411 351.312C153.892 351.662 153.33 351.93 152.724 352.118C152.118 352.292 151.537 352.38 150.98 352.38H148.847L148.198 356.97L148.384 357.157H149.849L149.756 357.813H144.007ZM148.94 351.724H150.331C150.813 351.724 151.265 351.612 151.685 351.387C152.118 351.162 152.464 350.813 152.724 350.338C152.983 349.863 153.113 349.264 153.113 348.539C153.113 347.928 153.02 347.428 152.835 347.041C152.649 346.654 152.408 346.373 152.112 346.198C151.815 346.01 151.487 345.917 151.129 345.917H149.905L149.719 346.104L148.94 351.724ZM157.909 357.625C158.219 357.875 158.602 358 159.059 358C159.492 358 159.95 357.85 160.432 357.55C160.926 357.238 161.44 356.789 161.971 356.202C162.503 355.615 163.035 354.903 163.566 354.066L168.815 345.917H169.835L169.928 345.261H166.163L166.07 345.917H167.609L167.795 346.104L164.29 351.724H164.197L161.804 346.104L161.99 345.917H163.103L163.195 345.261H157.78L157.687 345.917H158.707L162.491 354.291C162.07 354.965 161.644 355.533 161.211 355.996C160.795 356.427 160.386 356.755 159.982 356.979C160.021 356.918 160.054 356.852 160.079 356.782C160.154 356.582 160.191 356.395 160.191 356.22C160.191 355.896 160.073 355.633 159.838 355.434C159.616 355.221 159.325 355.115 158.967 355.115C158.509 355.115 158.138 355.259 157.854 355.546C157.582 355.833 157.446 356.189 157.446 356.614C157.446 357.038 157.6 357.376 157.909 357.625ZM176.235 357.063C176.989 357.063 177.731 356.851 178.46 356.426C179.19 356.002 179.895 355.39 180.575 354.59L181.131 355.021C180.352 356.008 179.493 356.751 178.553 357.251C177.613 357.75 176.575 358 175.437 358H175.419C174.343 358 173.391 357.775 172.562 357.326C171.746 356.863 171.103 356.214 170.633 355.377C170.176 354.528 169.947 353.535 169.947 352.399C169.947 351.35 170.139 350.382 170.522 349.495C170.918 348.596 171.456 347.821 172.136 347.172C172.828 346.51 173.626 345.998 174.528 345.636C175.443 345.261 176.42 345.074 177.459 345.074C178.151 345.074 178.738 345.149 179.221 345.299C179.703 345.448 180.117 345.623 180.463 345.823L180.816 345.261H181.465C181.428 345.898 181.391 346.61 181.354 347.397C181.329 348.171 181.329 348.852 181.354 349.439L180.723 349.626C180.562 348.939 180.364 348.358 180.13 347.884C179.895 347.397 179.635 347.003 179.351 346.704C179.066 346.404 178.745 346.185 178.386 346.048C178.04 345.898 177.663 345.823 177.255 345.823C176.575 345.823 175.969 345.998 175.437 346.348C174.905 346.685 174.46 347.153 174.102 347.753C173.743 348.352 173.471 349.039 173.286 349.813C173.1 350.588 173.007 351.412 173.007 352.286C173.007 353.16 173.113 353.96 173.323 354.684C173.533 355.409 173.873 355.989 174.343 356.426C174.813 356.851 175.443 357.063 176.235 357.063ZM191.935 356.426C191.206 356.851 190.464 357.063 189.709 357.063C188.918 357.063 188.287 356.851 187.818 356.426C187.348 355.989 187.008 355.409 186.798 354.684C186.587 353.96 186.482 353.16 186.482 352.286C186.482 351.412 186.575 350.588 186.76 349.813C186.946 349.039 187.218 348.352 187.577 347.753C187.935 347.153 188.38 346.685 188.912 346.348C189.444 345.998 190.049 345.823 190.73 345.823C191.138 345.823 191.515 345.898 191.861 346.048C192.219 346.185 192.541 346.404 192.825 346.704C193.11 347.003 193.369 347.397 193.604 347.884C193.839 348.358 194.037 348.939 194.198 349.626L194.828 349.439C194.804 348.852 194.804 348.171 194.828 347.397C194.865 346.61 194.903 345.898 194.94 345.261H194.291L193.938 345.823C193.592 345.623 193.178 345.448 192.695 345.299C192.213 345.149 191.626 345.074 190.934 345.074C189.895 345.074 188.918 345.261 188.003 345.636C187.1 345.998 186.303 346.51 185.611 347.172C184.931 347.821 184.393 348.596 183.997 349.495C183.614 350.382 183.422 351.35 183.422 352.399C183.422 353.535 183.651 354.528 184.108 355.377C184.578 356.214 185.221 356.863 186.037 357.326C186.866 357.775 187.818 358 188.893 358H188.912C190.049 358 191.088 357.75 192.028 357.251C192.968 356.751 193.827 356.008 194.606 355.021L194.049 354.59C193.369 355.39 192.665 356.002 191.935 356.426ZM195.895 357.813L195.988 357.157H197.027L197.212 356.97L198.733 346.104L198.547 345.917H197.546L197.639 345.261H202.925L202.832 345.917H201.793L201.608 346.104L200.939 350.88C201.608 350.87 202.177 350.764 202.646 350.563C203.141 350.35 203.555 350.076 203.889 349.738C204.235 349.389 204.532 349.008 204.779 348.596C205.027 348.184 205.261 347.771 205.484 347.359C205.707 346.947 205.948 346.572 206.207 346.235C206.467 345.886 206.776 345.605 207.135 345.392C207.493 345.18 207.938 345.074 208.47 345.074C208.928 345.074 209.292 345.205 209.564 345.467C209.836 345.717 209.972 346.029 209.972 346.404C209.972 346.866 209.799 347.266 209.453 347.603C209.119 347.928 208.736 348.09 208.303 348.09C207.994 348.09 207.703 347.977 207.431 347.753C207.159 347.515 207.017 347.166 207.005 346.704C206.634 347.116 206.319 347.547 206.059 347.996C205.799 348.433 205.54 348.858 205.28 349.27C205.02 349.682 204.711 350.051 204.353 350.375C204.139 350.569 203.886 350.74 203.593 350.889C203.819 350.901 204.023 350.923 204.204 350.956C204.476 350.994 204.711 351.106 204.909 351.293C205.119 351.468 205.317 351.768 205.503 352.193L207.265 356.183C207.438 356.57 207.629 356.82 207.839 356.932C208.05 357.032 208.328 357.107 208.674 357.157L208.581 357.813H204.705L202.424 352.605C202.288 352.28 202.152 352.043 202.016 351.893C201.892 351.743 201.731 351.649 201.534 351.612C201.368 351.567 201.14 351.543 200.847 351.538L200.087 356.97L200.272 357.157H201.274L201.181 357.813H195.895ZM221.208 345.786C220.392 345.311 219.396 345.074 218.222 345.074C217.171 345.074 216.2 345.261 215.31 345.636C214.432 346.01 213.665 346.535 213.01 347.209C212.355 347.871 211.848 348.646 211.489 349.532C211.13 350.419 210.951 351.381 210.951 352.417C210.951 353.516 211.161 354.491 211.582 355.34C212.014 356.177 212.639 356.832 213.455 357.307C214.283 357.769 215.285 358 216.46 358C217.511 358 218.475 357.813 219.353 357.438C220.243 357.063 221.016 356.545 221.671 355.883C222.327 355.209 222.834 354.428 223.192 353.541C223.551 352.642 223.73 351.681 223.73 350.656C223.73 349.545 223.514 348.571 223.081 347.734C222.66 346.897 222.036 346.248 221.208 345.786ZM218.129 356.764C217.647 357.088 217.14 357.251 216.608 357.251C215.99 357.251 215.489 357.032 215.106 356.595C214.722 356.158 214.444 355.59 214.271 354.89C214.098 354.178 214.011 353.417 214.011 352.605C214.011 351.606 214.123 350.694 214.345 349.87C214.568 349.033 214.871 348.315 215.254 347.715C215.637 347.116 216.07 346.654 216.552 346.329C217.035 345.992 217.541 345.823 218.073 345.823C218.704 345.823 219.205 346.042 219.575 346.479C219.959 346.916 220.237 347.49 220.41 348.202C220.583 348.902 220.67 349.657 220.67 350.469C220.67 351.468 220.558 352.386 220.336 353.223C220.113 354.047 219.81 354.759 219.427 355.359C219.044 355.958 218.611 356.426 218.129 356.764ZM224.874 357.813L224.967 357.157H226.024L226.209 356.97L227.693 346.104L227.507 345.917H226.506L226.599 345.261H235.538L235.779 348.259L235.149 348.446C234.951 347.784 234.667 347.272 234.296 346.91C233.925 346.547 233.492 346.291 232.997 346.142C232.503 345.992 231.959 345.917 231.365 345.917H230.753L230.568 346.104L229.084 356.97L229.269 357.157H230.735L230.642 357.813H224.874ZM247.27 345.786C246.454 345.311 245.458 345.074 244.284 345.074C243.233 345.074 242.262 345.261 241.372 345.636C240.494 346.01 239.727 346.535 239.072 347.209C238.417 347.871 237.91 348.646 237.551 349.532C237.193 350.419 237.013 351.381 237.013 352.417C237.013 353.516 237.223 354.491 237.644 355.34C238.077 356.177 238.701 356.832 239.517 357.307C240.345 357.769 241.347 358 242.522 358C243.573 358 244.537 357.813 245.415 357.438C246.305 357.063 247.078 356.545 247.733 355.883C248.389 355.209 248.896 354.428 249.254 353.541C249.613 352.642 249.792 351.681 249.792 350.656C249.792 349.545 249.576 348.571 249.143 347.734C248.723 346.897 248.098 346.248 247.27 345.786ZM244.191 356.764C243.709 357.088 243.202 357.251 242.67 357.251C242.052 357.251 241.551 357.032 241.168 356.595C240.784 356.158 240.506 355.59 240.333 354.89C240.16 354.178 240.073 353.417 240.073 352.605C240.073 351.606 240.185 350.694 240.407 349.87C240.63 349.033 240.933 348.315 241.316 347.715C241.699 347.116 242.132 346.654 242.614 346.329C243.097 345.992 243.604 345.823 244.135 345.823C244.766 345.823 245.267 346.042 245.638 346.479C246.021 346.916 246.299 347.49 246.472 348.202C246.645 348.902 246.732 349.657 246.732 350.469C246.732 351.468 246.621 352.386 246.398 353.223C246.175 354.047 245.872 354.759 245.489 355.359C245.106 355.958 244.673 356.426 244.191 356.764ZM267.724 345.261L268.003 348.614L267.372 348.802C267.174 348.077 266.89 347.509 266.519 347.097C266.16 346.672 265.758 346.373 265.313 346.198C264.868 346.01 264.423 345.917 263.978 345.917L262.439 356.97L262.624 357.157H263.626L263.533 357.813H258.247L258.34 357.157H259.378L259.564 356.97L261.103 345.917C260.658 345.917 260.188 346.01 259.694 346.198C259.211 346.373 258.729 346.672 258.247 347.097C257.777 347.509 257.344 348.077 256.949 348.802L256.355 348.614L257.561 345.261H267.724ZM279.283 354.253H278.634C278.053 355.24 277.354 355.971 276.538 356.445C275.734 356.92 274.887 357.157 273.997 357.157H272.699L272.513 356.97L273.255 351.631H274.238C274.77 351.631 275.215 351.818 275.574 352.193C275.945 352.555 276.087 353.054 276 353.691H276.649L277.317 348.914H276.668C276.581 349.551 276.303 350.057 275.833 350.432C275.363 350.794 274.863 350.975 274.331 350.975H273.348L274.034 346.104L274.22 345.917H275.184C275.778 345.917 276.322 345.992 276.816 346.142C277.311 346.291 277.744 346.547 278.115 346.91C278.485 347.272 278.77 347.784 278.968 348.446L279.617 348.259L279.357 345.261H270.065L269.972 345.917H270.974L271.159 346.104L269.639 356.97L269.453 357.157H268.414L268.322 357.813H277.985L279.283 354.253ZM283.588 357.813H279.786L279.879 357.157H280.955L287.465 345.261H288.763L291.916 357.157H292.992L292.899 357.813H287.409L287.502 357.157H288.596L288.782 356.97L287.945 353.691H283.738L281.956 356.97L282.142 357.157H283.681L283.588 357.813ZM286.63 348.539L287.778 353.036H284.094L286.537 348.539H286.63ZM305.094 348.614L304.816 345.261H294.652L293.447 348.614L294.04 348.802C294.436 348.077 294.869 347.509 295.339 347.097C295.821 346.672 296.303 346.373 296.785 346.198C297.28 346.01 297.75 345.917 298.195 345.917L296.655 356.97L296.47 357.157H295.431L295.339 357.813H300.625L300.717 357.157H299.716L299.53 356.97L301.07 345.917C301.515 345.917 301.96 346.01 302.405 346.198C302.85 346.373 303.252 346.672 303.611 347.097C303.982 347.509 304.266 348.077 304.464 348.802L305.094 348.614ZM305.413 357.813L305.506 357.157H306.545L306.73 356.97L308.251 346.104L308.066 345.917H307.064L307.157 345.261H313.185C313.766 345.261 314.322 345.317 314.854 345.43C315.385 345.542 315.855 345.717 316.263 345.954C316.671 346.192 316.993 346.504 317.228 346.891C317.463 347.266 317.58 347.728 317.58 348.277C317.58 348.939 317.419 349.526 317.098 350.038C316.776 350.538 316.35 350.962 315.818 351.312C315.299 351.662 314.736 351.93 314.13 352.118C313.525 352.292 312.943 352.38 312.387 352.38H310.254L309.605 356.97L309.79 357.157H311.256L311.163 357.813H305.413ZM310.347 351.724H311.738C312.22 351.724 312.671 351.612 313.092 351.387C313.525 351.162 313.871 350.813 314.13 350.338C314.39 349.863 314.52 349.264 314.52 348.539C314.52 347.928 314.427 347.428 314.242 347.041C314.056 346.654 313.815 346.373 313.518 346.198C313.222 346.01 312.894 345.917 312.535 345.917H311.311L311.126 346.104L310.347 351.724ZM317.295 357.813H321.097L321.189 357.157H319.65L319.465 356.97L321.246 353.691H325.453L326.29 356.97L326.104 357.157H325.01L324.917 357.813H330.407L330.5 357.157H329.424L326.271 345.261H324.973L318.463 357.157H317.387L317.295 357.813ZM325.286 353.036L324.138 348.539H324.046L321.602 353.036H325.286Z" fill="#0B1E3A" fill-opacity="0.9"/>
</g>
<defs>
<clipPath id="clip0_700_51">
<rect width="375" height="720" fill="white"/>
</clipPath>
</defs>
</svg>
